<svg width="597" height="402" viewBox="0 0 597 402" fill="none" xmlns="http://www.w3.org/2000/svg">
<path d="M596.047 401.2H0.748489C0.54989 401.2 0.359771 401.125 0.219055 400.995C0.0788385 400.865 0 400.689 0 400.504C0 400.318 0.0788385 400.142 0.219055 400.012C0.359771 399.882 0.54989 399.808 0.748489 399.808H596.047C596.247 399.808 596.436 399.882 596.576 400.012C596.716 400.142 596.796 400.318 596.796 400.504C596.796 400.689 596.716 400.865 596.576 400.995C596.436 401.125 596.247 401.2 596.047 401.2Z" fill="#B2B6BB"/>
<path d="M146.299 267.211H147.337V264.978H146.299V267.211ZM146.299 262.224H147.337V259.47H146.299V262.224ZM146.299 256.711H147.337V253.957H146.299V256.711ZM146.299 251.203H147.337V248.449H146.299V251.203ZM146.299 245.695H147.337V242.941H146.299V245.695ZM146.299 240.187H147.337V237.433H146.299V240.187ZM146.299 234.679H147.337V231.925H146.299V234.679ZM146.299 229.166H147.337V226.412H146.299V229.166ZM146.299 223.658H147.337V220.904H146.299V223.658ZM146.299 218.15H147.337V215.396H146.299V218.15ZM146.299 212.642H147.337V209.888H146.299V212.642ZM146.299 207.129H147.337V204.375H146.299V207.129ZM146.299 201.621H147.337V198.867H146.299V201.621ZM146.299 196.113H147.337V193.358H146.299V196.113ZM146.299 190.604H147.337V187.85H146.299V190.604ZM146.299 185.096H147.337V182.342H146.299V185.096ZM146.299 179.583H147.337V176.829H146.299V179.583ZM146.299 174.075H147.337V171.321H146.299V174.075ZM146.299 168.567H147.337V165.813H146.299V168.567ZM146.299 163.059H147.337V160.305H146.299V163.059ZM146.299 157.546H147.337V154.792H146.299V157.546ZM146.299 152.038H147.337V149.284H146.299V152.038ZM146.299 146.53H147.337V143.776H146.299V146.53ZM147.381 141.096C147.497 140.276 147.825 139.5 148.337 138.852L147.526 138.19C146.898 138.985 146.492 139.937 146.352 140.944L147.381 141.096ZM150.279 137.414C150.796 137.213 151.342 137.115 151.902 137.115H152.767V136.059H151.902C151.216 136.059 150.545 136.182 149.912 136.427L150.279 137.414ZM155.476 137.115H158.186V136.059H155.476V137.115ZM160.896 137.115H163.606V136.059H160.896V137.115ZM166.316 137.115H169.025V136.059H166.316V137.115ZM171.74 137.115H174.45V136.059H171.74V137.115ZM177.16 137.115H179.87V136.059H177.16V137.115ZM182.579 137.115H185.289V136.059H182.579V137.115ZM187.999 137.115H190.709V136.059H187.999V137.115ZM193.419 137.115H196.128V136.059H193.419V137.115ZM198.843 137.115H201.553V136.059H198.843V137.115ZM204.263 137.115H206.973V136.059H204.263V137.115ZM209.682 137.115H212.392V136.059H209.682V137.115ZM215.102 137.115H217.812V136.059H215.102V137.115ZM220.526 137.115H223.236V136.059H220.526V137.115ZM225.946 137.115H228.656V136.059H225.946V137.115ZM231.366 137.115H234.076V136.059H231.366V137.115ZM236.785 137.115H239.495V136.059H236.785V137.115ZM242.205 137.115H244.915V136.059H242.205V137.115ZM247.629 137.115H250.339V136.059H247.629V137.115ZM253.049 137.115H255.759V136.059H253.049V137.115ZM258.469 137.115H261.179V136.059H258.469V137.115ZM263.888 137.115H266.598V136.059H263.888V137.115ZM269.313 137.115H272.023V136.059H269.313V137.115ZM274.732 137.115H277.442V136.059H274.732V137.115ZM280.152 137.115H282.862V136.059H280.152V137.115ZM285.572 137.115H288.282V136.059H285.572V137.115ZM290.991 137.115H293.701V136.059H290.991V137.115ZM296.416 137.115H299.126V136.059H296.416V137.115ZM301.835 137.115H304.545V136.059H301.835V137.115ZM307.255 137.115H309.965V136.059H307.255V137.115Z" fill="url(#paint0)"/>
<path d="M194.124 391.373H491.586V192.612C491.586 189.323 488.963 186.657 485.727 186.657H199.988C196.752 186.657 194.129 189.323 194.129 192.612V391.373H194.124Z" fill="#B2B6BB"/>
<path d="M196.837 387.397H494.299V192.612C494.299 189.323 491.676 186.657 488.44 186.657H202.701C199.464 186.657 196.842 189.323 196.842 192.612V387.397H196.837Z" fill="#61656D"/>
<path d="M207.003 197.296H484.129V376.754H207.003V197.296Z" fill="white"/>
<path d="M196.061 387.386H310.183C311.251 387.386 312.115 388.265 312.115 389.35V395.634C309.975 398.456 306.676 400.111 303.169 400.111H203.065C201.491 400.111 199.955 399.777 198.549 399.153C195.839 397.951 194.125 395.177 194.125 392.173V389.355C194.125 388.265 194.989 387.386 196.061 387.386Z" fill="#868A91"/>
<path d="M271.345 387.386H560.232C561.3 387.386 562.165 388.265 562.165 389.35V392.168C562.165 395.177 560.45 397.946 557.74 399.148C556.334 399.772 554.799 400.106 553.224 400.106H278.354C276.779 400.106 275.243 399.772 273.837 399.148C271.127 397.946 269.413 395.172 269.413 392.168V389.35C269.408 388.265 270.278 387.386 271.345 387.386Z" fill="#B2B6BB"/>
<path d="M393.4 392.531H438.177C441.471 392.531 444.437 390.494 445.664 387.386H385.908C387.14 390.494 390.101 392.531 393.4 392.531Z" fill="#868A91"/>
<path d="M207.003 197.296H484.129V213.309H207.003V197.296Z" fill="#21252B"/>
<path d="M205.193 197.296H482.319V213.309H205.193V197.296Z" fill="#21252B"/>
<path d="M476.466 208.149C474.625 208.149 473.133 206.633 473.133 204.762C473.133 202.891 474.625 201.375 476.466 201.375C478.307 201.375 479.799 202.891 479.799 204.762C479.799 206.633 478.307 208.149 476.466 208.149Z" fill="url(#paint1)"/>
<path d="M464.452 208.149C462.611 208.149 461.119 206.633 461.119 204.762C461.119 202.891 462.611 201.375 464.452 201.375C466.293 201.375 467.785 202.891 467.785 204.762C467.785 206.633 466.293 208.149 464.452 208.149Z" fill="#DADDDF"/>
<path d="M452.442 208.149C450.601 208.149 449.109 206.633 449.109 204.762C449.109 202.891 450.601 201.375 452.442 201.375C454.282 201.375 455.774 202.891 455.774 204.762C455.774 206.633 454.282 208.149 452.442 208.149Z" fill="#61656D"/>
<path d="M251.375 233.928H417.583C419.071 233.928 420.273 232.705 420.273 231.193V223.044C420.273 221.532 419.071 220.31 417.583 220.31H251.375C249.888 220.31 248.685 221.532 248.685 223.044V231.193C248.685 232.7 249.893 233.928 251.375 233.928Z" fill="#DADDDF"/>
<path d="M255.344 225.218C256.334 224.212 257.943 224.212 258.928 225.218C259.918 226.225 259.918 227.86 258.928 228.861C258.025 229.779 256.605 229.848 255.61 229.082L254.194 230.52L253.707 230.025L255.122 228.586C254.373 227.58 254.441 226.136 255.344 225.218ZM255.832 228.365C256.552 229.097 257.725 229.097 258.445 228.365C259.165 227.634 259.165 226.446 258.445 225.714C257.725 224.983 256.556 224.983 255.837 225.714C255.112 226.446 255.112 227.634 255.832 228.365Z" fill="#61656D"/>
<path d="M233.216 224.87H240.732V225.621H233.216V224.87Z" fill="#61656D"/>
<path d="M233.216 227.551H240.732V228.302H233.216V227.551Z" fill="#61656D"/>
<path d="M233.216 230.226H240.732V230.977H233.216V230.226Z" fill="#61656D"/>
<path d="M464.882 233.928H473.529C474.843 233.928 475.905 232.848 475.905 231.512V222.725C475.905 221.39 474.843 220.31 473.529 220.31H464.882C463.569 220.31 462.506 221.39 462.506 222.725V231.512C462.506 232.843 463.569 233.928 464.882 233.928Z" fill="url(#paint2)"/>
<path d="M469.207 228.969C471.173 228.969 472.767 227.349 472.767 225.351V225.267H465.642V225.351C465.647 227.349 467.241 228.969 469.207 228.969Z" fill="white"/>
<path d="M219.773 232.759C216.705 232.759 214.218 230.231 214.218 227.113C214.218 223.995 216.705 221.468 219.773 221.468C222.841 221.468 225.328 223.995 225.328 227.113C225.328 230.231 222.841 232.759 219.773 232.759Z" fill="url(#paint3)"/>
<path d="M219.776 227.241C218.693 227.241 217.815 226.349 217.815 225.248C217.815 224.147 218.693 223.255 219.776 223.255C220.859 223.255 221.737 224.147 221.737 225.248C221.737 226.349 220.859 227.241 219.776 227.241Z" fill="url(#paint4)"/>
<path d="M215.273 230.417C216.283 231.836 217.92 232.759 219.775 232.759C221.625 232.759 223.267 231.841 224.277 230.417C224.035 228.915 222.765 227.801 221.253 227.801H218.307C216.785 227.801 215.52 228.915 215.273 230.417Z" fill="url(#paint5)"/>
<path opacity="0.8" d="M219.776 227.241C218.693 227.241 217.815 226.349 217.815 225.248C217.815 224.147 218.693 223.255 219.776 223.255C220.859 223.255 221.737 224.147 221.737 225.248C221.737 226.349 220.859 227.241 219.776 227.241Z" fill="white"/>
<path opacity="0.8" d="M215.273 230.417C216.283 231.836 217.92 232.759 219.775 232.759C221.625 232.759 223.267 231.841 224.277 230.417C224.035 228.915 222.765 227.801 221.253 227.801H218.307C216.785 227.801 215.52 228.915 215.273 230.417Z" fill="white"/>
<path d="M467.027 262.592H473.674C474.799 262.592 475.712 261.664 475.712 260.52V254.06C475.712 252.916 474.799 251.988 473.674 251.988H467.027C465.902 251.988 464.989 252.916 464.989 254.06V260.52C464.989 261.659 465.902 262.592 467.027 262.592Z" fill="url(#paint6)"/>
<path d="M427.653 259.342H458.814C459.374 259.342 459.828 258.88 459.828 258.311V256.264C459.828 255.694 459.374 255.233 458.814 255.233H427.653C427.093 255.233 426.639 255.694 426.639 256.264V258.311C426.639 258.88 427.093 259.342 427.653 259.342Z" fill="url(#paint7)"/>
<path d="M427.653 283.824H458.814C459.374 283.824 459.828 283.362 459.828 282.793V280.746C459.828 280.176 459.374 279.715 458.814 279.715H427.653C427.093 279.715 426.639 280.176 426.639 280.746V282.793C426.639 283.362 427.093 283.824 427.653 283.824Z" fill="url(#paint8)"/>
<path d="M427.653 308.311H458.814C459.374 308.311 459.828 307.849 459.828 307.28V305.233C459.828 304.663 459.374 304.202 458.814 304.202H427.653C427.093 304.202 426.639 304.663 426.639 305.233V307.28C426.639 307.849 427.093 308.311 427.653 308.311Z" fill="url(#paint9)"/>
<path d="M427.653 332.792H458.814C459.374 332.792 459.828 332.331 459.828 331.761V329.714C459.828 329.145 459.374 328.683 458.814 328.683H427.653C427.093 328.683 426.639 329.145 426.639 329.714V331.761C426.639 332.331 427.093 332.792 427.653 332.792Z" fill="url(#paint10)"/>
<path d="M427.653 357.279H458.814C459.374 357.279 459.828 356.818 459.828 356.248V354.201C459.828 353.632 459.374 353.17 458.814 353.17H427.653C427.093 353.17 426.639 353.632 426.639 354.201V356.248C426.639 356.818 427.093 357.279 427.653 357.279Z" fill="url(#paint11)"/>
<path d="M467.027 287.074H473.674C474.799 287.074 475.712 286.146 475.712 285.002V278.542C475.712 277.398 474.799 276.47 473.674 276.47H467.027C465.902 276.47 464.989 277.398 464.989 278.542V285.002C464.989 286.146 465.902 287.074 467.027 287.074Z" fill="url(#paint12)"/>
<path d="M467.027 311.56H473.674C474.799 311.56 475.712 310.633 475.712 309.489V303.028C475.712 301.885 474.799 300.957 473.674 300.957H467.027C465.902 300.957 464.989 301.885 464.989 303.028V309.489C464.989 310.628 465.902 311.56 467.027 311.56Z" fill="url(#paint13)"/>
<path d="M467.027 336.042H473.674C474.799 336.042 475.712 335.114 475.712 333.97V327.51C475.712 326.366 474.799 325.438 473.674 325.438H467.027C465.902 325.438 464.989 326.366 464.989 327.51V333.97C464.989 335.114 465.902 336.042 467.027 336.042Z" fill="url(#paint14)"/>
<path d="M467.027 360.529H473.674C474.799 360.529 475.712 359.601 475.712 358.457V351.997C475.712 350.853 474.799 349.925 473.674 349.925H467.027C465.902 349.925 464.989 350.853 464.989 351.997V358.457C464.989 359.596 465.902 360.529 467.027 360.529Z" fill="url(#paint15)"/>
<path d="M467.027 262.592H473.674C474.799 262.592 475.712 261.664 475.712 260.52V254.06C475.712 252.916 474.799 251.988 473.674 251.988H467.027C465.902 251.988 464.989 252.916 464.989 254.06V260.52C464.989 261.659 465.902 262.592 467.027 262.592Z" fill="#B2B6BB"/>
<path d="M427.653 259.342H458.814C459.374 259.342 459.828 258.88 459.828 258.311V256.264C459.828 255.694 459.374 255.233 458.814 255.233H427.653C427.093 255.233 426.639 255.694 426.639 256.264V258.311C426.639 258.88 427.093 259.342 427.653 259.342Z" fill="#B2B6BB"/>
<path d="M427.653 283.824H458.814C459.374 283.824 459.828 283.362 459.828 282.793V280.746C459.828 280.176 459.374 279.715 458.814 279.715H427.653C427.093 279.715 426.639 280.176 426.639 280.746V282.793C426.639 283.362 427.093 283.824 427.653 283.824Z" fill="#B2B6BB"/>
<path d="M427.653 308.311H458.814C459.374 308.311 459.828 307.849 459.828 307.28V305.233C459.828 304.663 459.374 304.202 458.814 304.202H427.653C427.093 304.202 426.639 304.663 426.639 305.233V307.28C426.639 307.849 427.093 308.311 427.653 308.311Z" fill="#B2B6BB"/>
<path d="M427.653 332.792H458.814C459.374 332.792 459.828 332.331 459.828 331.761V329.714C459.828 329.145 459.374 328.683 458.814 328.683H427.653C427.093 328.683 426.639 329.145 426.639 329.714V331.761C426.639 332.331 427.093 332.792 427.653 332.792Z" fill="#B2B6BB"/>
<path d="M427.653 357.279H458.814C459.374 357.279 459.828 356.818 459.828 356.248V354.201C459.828 353.632 459.374 353.17 458.814 353.17H427.653C427.093 353.17 426.639 353.632 426.639 354.201V356.248C426.639 356.818 427.093 357.279 427.653 357.279Z" fill="#B2B6BB"/>
<path d="M467.027 287.074H473.674C474.799 287.074 475.712 286.146 475.712 285.002V278.542C475.712 277.398 474.799 276.47 473.674 276.47H467.027C465.902 276.47 464.989 277.398 464.989 278.542V285.002C464.989 286.146 465.902 287.074 467.027 287.074Z" fill="#B2B6BB"/>
<path d="M467.027 311.56H473.674C474.799 311.56 475.712 310.633 475.712 309.489V303.028C475.712 301.885 474.799 300.957 473.674 300.957H467.027C465.902 300.957 464.989 301.885 464.989 303.028V309.489C464.989 310.628 465.902 311.56 467.027 311.56Z" fill="#B2B6BB"/>
<path d="M467.027 336.042H473.674C474.799 336.042 475.712 335.114 475.712 333.97V327.51C475.712 326.366 474.799 325.438 473.674 325.438H467.027C465.902 325.438 464.989 326.366 464.989 327.51V333.97C464.989 335.114 465.902 336.042 467.027 336.042Z" fill="#B2B6BB"/>
<path d="M467.027 360.529H473.674C474.799 360.529 475.712 359.601 475.712 358.457V351.997C475.712 350.853 474.799 349.925 473.674 349.925H467.027C465.902 349.925 464.989 350.853 464.989 351.997V358.457C464.989 359.596 465.902 360.529 467.027 360.529Z" fill="#B2B6BB"/>
<path d="M207.003 240.722H484.129V241.066H207.003V240.722Z" fill="#DADDDF"/>
<path d="M420.105 240.893H420.441V376.754H420.105V240.893Z" fill="#DADDDF"/>
<path d="M219.503 254.075H411.272C412.205 254.075 412.963 253.304 412.963 252.356V248.67C412.963 247.722 412.205 246.951 411.272 246.951H219.503C218.571 246.951 217.813 247.722 217.813 248.67V252.356C217.813 253.304 218.571 254.075 219.503 254.075Z" fill="#868A91"/>
<path d="M280.424 370.328H411.867C412.471 370.328 412.959 369.832 412.959 369.218C412.959 368.605 412.471 368.109 411.867 368.109H280.424C279.82 368.109 279.333 368.605 279.333 369.218C279.333 369.832 279.825 370.328 280.424 370.328Z" fill="#B2B6BB"/>
<path d="M280.424 360.528H411.867C412.471 360.528 412.959 360.033 412.959 359.419C412.959 358.805 412.471 358.309 411.867 358.309H280.424C279.82 358.309 279.333 358.805 279.333 359.419C279.333 360.028 279.825 360.528 280.424 360.528Z" fill="#B2B6BB"/>
<path d="M280.424 350.725H411.867C412.471 350.725 412.959 350.229 412.959 349.616C412.959 349.002 412.471 348.506 411.867 348.506H280.424C279.82 348.506 279.333 349.002 279.333 349.616C279.333 350.229 279.825 350.725 280.424 350.725Z" fill="#B2B6BB"/>
<path d="M280.424 340.922H411.867C412.471 340.922 412.959 340.426 412.959 339.812C412.959 339.199 412.471 338.703 411.867 338.703H280.424C279.82 338.703 279.333 339.199 279.333 339.812C279.333 340.426 279.825 340.922 280.424 340.922Z" fill="#B2B6BB"/>
<path d="M280.424 331.118H411.867C412.471 331.118 412.959 330.622 412.959 330.008C412.959 329.395 412.471 328.899 411.867 328.899H280.424C279.82 328.899 279.333 329.395 279.333 330.008C279.333 330.622 279.825 331.118 280.424 331.118Z" fill="#B2B6BB"/>
<path d="M280.424 321.315H411.867C412.471 321.315 412.959 320.819 412.959 320.205C412.959 319.592 412.471 319.096 411.867 319.096H280.424C279.82 319.096 279.333 319.592 279.333 320.205C279.333 320.819 279.825 321.315 280.424 321.315Z" fill="#B2B6BB"/>
<path d="M218.905 311.516H325.897C326.5 311.516 326.988 311.02 326.988 310.406C326.988 309.792 326.5 309.297 325.897 309.297H218.91C218.306 309.297 217.818 309.792 217.818 310.406C217.813 311.02 218.301 311.516 218.905 311.516Z" fill="#B2B6BB"/>
<path d="M218.905 301.713H325.897C326.5 301.713 326.988 301.217 326.988 300.603C326.988 299.99 326.5 299.493 325.897 299.493H218.91C218.306 299.493 217.818 299.99 217.818 300.603C217.813 301.217 218.301 301.713 218.905 301.713Z" fill="#B2B6BB"/>
<path d="M218.905 291.909H325.897C326.5 291.909 326.988 291.413 326.988 290.8C326.988 290.186 326.5 289.69 325.897 289.69H218.91C218.306 289.69 217.818 290.186 217.818 290.8C217.813 291.413 218.301 291.909 218.905 291.909Z" fill="#B2B6BB"/>
<path d="M218.905 282.105H325.897C326.5 282.105 326.988 281.609 326.988 280.996C326.988 280.382 326.5 279.886 325.897 279.886H218.91C218.306 279.886 217.818 280.382 217.818 280.996C217.813 281.609 218.301 282.105 218.905 282.105Z" fill="#B2B6BB"/>
<path d="M218.905 272.306H325.897C326.5 272.306 326.988 271.81 326.988 271.197C326.988 270.583 326.5 270.087 325.897 270.087H218.91C218.306 270.087 217.818 270.583 217.818 271.197C217.813 271.806 218.301 272.306 218.905 272.306Z" fill="#B2B6BB"/>
<path d="M218.905 262.503H325.897C326.5 262.503 326.988 262.007 326.988 261.393C326.988 260.78 326.5 260.284 325.897 260.284H218.91C218.306 260.284 217.818 260.78 217.818 261.393C217.813 262.007 218.301 262.503 218.905 262.503Z" fill="#B2B6BB"/>
<path d="M420.272 269.356H484.129V269.7H420.272V269.356Z" fill="#DADDDF"/>
<path d="M420.272 293.839H484.129V294.182H420.272V293.839Z" fill="#DADDDF"/>
<path d="M420.272 318.325H484.129V318.669H420.272V318.325Z" fill="#DADDDF"/>
<path d="M420.272 342.807H484.129V343.151H420.272V342.807Z" fill="#DADDDF"/>
<path d="M420.272 367.293H484.129V367.637H420.272V367.293Z" fill="#DADDDF"/>
<path d="M412.963 264.364V308.649C412.963 310.986 411.098 312.885 408.794 312.885H340.633C338.334 312.885 336.465 310.991 336.465 308.649V264.364C336.465 262.027 338.329 260.127 340.633 260.127H408.794C411.094 260.132 412.963 262.027 412.963 264.364Z" fill="#DADDDF"/>
<path d="M376.616 291.021C369.512 291.021 363.753 285.168 363.753 277.948C363.753 270.728 369.512 264.875 376.616 264.875C383.72 264.875 389.479 270.728 389.479 277.948C389.479 285.168 383.72 291.021 376.616 291.021Z" fill="url(#paint16)"/>
<path opacity="0.2" d="M403.845 309.523L384.06 296.671L403.632 283.824L403.845 309.523Z" fill="black"/>
<path opacity="0.2" d="M371.567 279.379V307.646H343.754V279.379H371.567Z" fill="black"/>
<path d="M221.759 370.327H266.343C268.642 370.327 270.512 368.432 270.512 366.091V320.78C270.512 318.443 268.647 316.543 266.343 316.543H221.759C219.46 316.543 217.591 318.438 217.591 320.78V366.091C217.591 368.432 219.46 370.327 221.759 370.327Z" fill="#DADDDF"/>
<path opacity="0.2" d="M244.053 344.461C252.327 344.461 259.037 337.642 259.037 329.233V327.952H229.069V329.233C229.069 337.642 235.779 344.461 244.053 344.461Z" fill="black"/>
<path d="M229.069 350.166H259.037V358.929H229.069V350.166Z" fill="url(#paint17)"/>
<path d="M432.836 230.226H457.268C458.191 230.226 458.939 229.465 458.939 228.527V224.958C458.939 224.02 458.191 223.26 457.268 223.26H432.836C431.914 223.26 431.165 224.02 431.165 224.958V228.527C431.16 229.465 431.914 230.226 432.836 230.226Z" fill="url(#paint18)"/>
<path d="M286.24 100.414C286.186 99.6136 286.157 98.8085 286.157 97.9936C286.157 78.0085 302.098 61.8083 321.762 61.8083C336.543 61.8083 349.222 70.9639 354.603 83.9976C356.328 83.4331 358.163 83.1189 360.071 83.1189C369.123 83.1189 376.581 90.0113 377.663 98.9116C389.493 101.126 398.453 111.661 398.453 124.321C398.453 138.592 387.068 150.163 373.026 150.163H295.886C281.844 150.163 270.459 138.592 270.459 124.321C270.464 113.526 276.985 104.277 286.24 100.414Z" fill="url(#paint19)"/>
<path d="M468.041 102.009L456.989 94.2919C456.472 93.9286 455.801 93.8943 455.245 94.179L451.154 96.3096L425.94 78.7054C425.167 78.1654 424.104 78.3569 423.568 79.1521L405.092 106.491C404.599 107.218 404.783 108.204 405.498 108.705L445.044 136.309C445.749 136.8 446.72 136.618 447.203 135.902L468.495 104.4C469.012 103.614 468.814 102.549 468.041 102.009Z" fill="url(#paint20)"/>
<path d="M404.388 107.183L412.923 78.3028C413.14 77.5566 414.015 77.2376 414.652 77.6794L454.565 105.544C455.106 105.922 455.353 106.614 455.159 107.252L446.653 136.015C446.484 136.589 445.807 136.839 445.31 136.491L404.716 108.15C404.417 107.964 404.286 107.561 404.388 107.183Z" fill="url(#paint21)"/>
<path opacity="0.4" d="M404.388 107.183L412.923 78.3028C413.14 77.5566 414.015 77.2376 414.652 77.6794L454.565 105.544C455.106 105.922 455.353 106.614 455.159 107.252L446.653 136.015C446.484 136.589 445.807 136.839 445.31 136.491L404.716 108.15C404.417 107.964 404.286 107.561 404.388 107.183Z" fill="white"/>
<path opacity="0.6" d="M404.392 107.183L412.927 78.303L404.392 107.183Z" fill="white"/>
<path d="M278.98 56.85L310.832 52.6478C311.894 52.5055 312.643 51.5187 312.508 50.4387L307.194 8.82889C307.054 7.74888 306.083 6.98796 305.021 7.12542L273.261 11.2933C272.199 11.4307 271.45 12.4175 271.585 13.4975L276.807 55.1417C276.942 56.2266 277.918 56.9924 278.98 56.85Z" fill="url(#paint22)"/>
<path opacity="0.2" d="M278.98 56.85L310.832 52.6478C311.894 52.5055 312.643 51.5187 312.508 50.4387L307.194 8.82889C307.054 7.74888 306.083 6.98796 305.021 7.12542L273.261 11.2933C272.199 11.4307 271.45 12.4175 271.585 13.4975L276.807 55.1417C276.942 56.2266 277.918 56.9924 278.98 56.85Z" fill="white"/>
<path d="M276.103 54.9944L307.104 42.9817C307.834 42.697 308.201 41.8674 307.921 41.1261L292.841 0.925236C292.561 0.183958 291.744 -0.18913 291.014 0.0955999L268.336 8.88294L262.41 22.5156L274.283 54.1647C274.558 54.9011 275.374 55.2742 276.103 54.9944Z" fill="url(#paint23)"/>
<path opacity="0.6" d="M276.103 54.9944L307.104 42.9817C307.834 42.697 308.201 41.8674 307.921 41.1261L292.841 0.925236C292.561 0.183958 291.744 -0.18913 291.014 0.0955999L268.336 8.88294L262.41 22.5156L274.283 54.1647C274.558 54.9011 275.374 55.2742 276.103 54.9944Z" fill="white"/>
<path d="M262.41 22.5108L270.728 19.2855C271.458 19.0008 271.825 18.1711 271.545 17.4299L268.337 8.87817L262.41 22.5108Z" fill="url(#paint24)"/>
<path opacity="0.2" d="M262.41 22.5108L270.728 19.2855C271.458 19.0008 271.825 18.1711 271.545 17.4299L268.337 8.87817L262.41 22.5108Z" fill="white"/>
<path d="M285.979 7.08377L289.753 5.62183L293.135 14.6404L289.362 16.1023L285.979 7.08377Z" fill="url(#paint25)"/>
<path d="M283.764 12.6912L287.537 11.2292L289.364 16.1011L285.591 17.5625L283.764 12.6912Z" fill="white"/>
<path d="M269.577 28.6917L294.748 18.9392L295.522 21.0035L270.351 30.7555L269.577 28.6917Z" fill="white"/>
<path d="M272.547 36.6155L297.718 26.8635L298.493 28.9278L273.321 38.6798L272.547 36.6155Z" fill="white"/>
<path d="M283.029 41.627L300.69 34.7847L301.464 36.849L283.803 43.6913L283.029 41.627Z" fill="white"/>
<path d="M205.17 75.86L249.199 67.1384L255.752 101.305L211.723 110.027L205.17 75.86Z" fill="white"/>
<path d="M207.829 77.7536L247.435 69.9083L253.093 99.4108L213.487 107.256L207.829 77.7536Z" fill="url(#paint26)"/>
<path opacity="0.7" d="M207.829 77.7536L247.435 69.9083L253.093 99.4108L213.487 107.256L207.829 77.7536Z" fill="white"/>
<path d="M210.796 93.3349L218.558 83.2221C218.959 82.7017 219.679 82.5594 220.239 82.8883L232.31 89.9771L236.662 84.307C237.063 83.7866 237.778 83.6443 238.343 83.9732L251.607 91.7542L253.071 99.3977L213.467 107.242L210.796 93.3349Z" fill="url(#paint27)"/>
<path opacity="0.2" d="M210.797 93.3347L218.54 83.2464C218.95 82.7113 219.689 82.564 220.264 82.9028L232.306 89.9768L236.639 84.3313C237.049 83.7962 237.788 83.6489 238.363 83.9877L251.598 91.7539L253.062 99.3974L213.458 107.242L210.797 93.3347Z" fill="white"/>
<path d="M230.399 81.4984C229.108 81.4984 228.061 80.4346 228.061 79.1224C228.061 77.8101 229.108 76.7463 230.399 76.7463C231.69 76.7463 232.737 77.8101 232.737 79.1224C232.737 80.4346 231.69 81.4984 230.399 81.4984Z" fill="white"/>
<path opacity="0.5" d="M232.307 89.9763L234.742 91.4049C235.177 91.6602 235.732 91.4245 235.858 90.9336L237.717 83.8104C237.307 83.8055 236.906 83.9871 236.64 84.3308L232.307 89.9763Z" fill="url(#paint28)"/>
<path opacity="0.5" d="M210.789 93.3352L212.721 103.414L219.281 82.7511C218.991 82.8198 218.725 82.9916 218.532 83.242L210.789 93.3352Z" fill="url(#paint29)"/>
<path d="M359.109 62.0284L385.125 64.3602C388.671 64.6793 391.796 62.0136 392.11 58.4103L394.404 31.9747C394.718 28.3714 392.095 25.1951 388.55 24.8761L362.538 22.5442C358.993 22.2251 355.868 24.8908 355.554 28.4941L353.259 54.9298C352.945 58.5331 355.568 61.7142 359.109 62.0284Z" fill="url(#paint30)"/>
<path opacity="0.2" d="M359.109 62.0284L385.125 64.3602C388.671 64.6793 391.796 62.0136 392.11 58.4103L394.404 31.9747C394.718 28.3714 392.095 25.1951 388.55 24.8761L362.538 22.5442C358.993 22.2251 355.868 24.8908 355.554 28.4941L353.259 54.9298C352.945 58.5331 355.568 61.7142 359.109 62.0284Z" fill="white"/>
<path d="M365.505 32.8538C365.683 32.6967 365.905 32.6329 366.118 32.682L379.527 36.6044C379.909 36.6878 380.169 37.1051 380.131 37.5715L379.228 49.7511C379.967 49.3191 380.783 49.1325 381.594 49.2111C383.71 49.4025 385.285 51.1895 385.111 53.1973C384.937 55.2051 383.077 56.6877 380.962 56.4962C378.846 56.3048 377.271 54.5178 377.445 52.51L378.131 42.8096L366.239 39.2259L365.591 46.6927C366.331 46.2607 367.147 46.0741 367.954 46.1527C370.069 46.3441 371.644 48.1311 371.47 50.1389C371.296 52.1467 369.436 53.6293 367.321 53.4378C365.205 53.2464 363.63 51.4595 363.804 49.4516L365.186 33.5165C365.21 33.2514 365.326 33.0109 365.505 32.8538Z" fill="white"/>
<path d="M381.227 131.066L383.347 130.128L382.932 129.161L380.811 130.099L381.227 131.066ZM385.835 129.028L388.318 127.929L387.902 126.962L385.42 128.061L385.835 129.028ZM390.805 126.829L393.288 125.73L392.873 124.762L390.39 125.862L390.805 126.829ZM395.771 124.63L398.254 123.53L397.838 122.563L395.356 123.663L395.771 124.63ZM400.741 122.426L403.224 121.326L402.809 120.359L400.326 121.459L400.741 122.426ZM405.712 120.226L408.195 119.127L407.779 118.16L405.296 119.259L405.712 120.226ZM410.682 118.027L413.165 116.927L412.75 115.96L410.267 117.06L410.682 118.027Z" fill="url(#paint31)"/>
<path d="M356.532 86.6238L357.89 84.2429L356.991 83.7127L355.634 86.0937L356.532 86.6238ZM359.252 81.8571L360.609 79.4762L359.711 78.946L358.353 81.3269L359.252 81.8571ZM361.971 77.0903L363.329 74.7094L362.43 74.1792L361.073 76.5601L361.971 77.0903ZM364.691 72.3285L366.048 69.9476L365.15 69.4174L363.792 71.7983L364.691 72.3285ZM367.41 67.5617L368.768 65.1808L367.869 64.6506L366.512 67.0316L367.41 67.5617Z" fill="url(#paint32)"/>
<path d="M304.481 79.1872L305.418 78.7307L304.244 76.2467L303.307 76.7032L304.481 79.1872ZM302.133 74.2192L303.07 73.7626L301.897 71.2786L300.96 71.7352L302.133 74.2192ZM299.786 69.2511L300.723 68.7946L299.549 66.3106L298.612 66.7671L299.786 69.2511ZM297.443 64.288L298.38 63.8315L297.206 61.3474L296.269 61.804L297.443 64.288ZM295.096 59.32L296.033 58.8634L294.859 56.3794L293.922 56.8359L295.096 59.32Z" fill="url(#paint33)"/>
<path d="M295.945 114.557L296.307 113.565L293.766 112.608L293.404 113.6L295.945 114.557ZM290.859 112.647L291.221 111.656L288.68 110.699L288.318 111.69L290.859 112.647ZM285.772 110.738L286.134 109.746L283.594 108.789L283.231 109.781L285.772 110.738ZM280.691 108.828L281.053 107.836L278.512 106.879L278.15 107.871L280.691 108.828ZM275.604 106.918L275.967 105.927L273.426 104.97L273.063 105.961L275.604 106.918ZM270.523 105.009L270.885 104.017L268.344 103.06L267.982 104.052L270.523 105.009ZM265.436 103.099L265.799 102.108L263.258 101.15L262.896 102.142L265.436 103.099ZM260.35 101.19L260.712 100.198L258.172 99.2406L257.809 100.232L260.35 101.19Z" fill="url(#paint34)"/>
<path d="M333.94 186.658H334.979V183.903H333.94V186.658ZM333.94 181.145H334.979V178.391H333.94V181.145ZM333.94 175.636H334.979V172.882H333.94V175.636ZM333.94 170.128H334.979V167.374H333.94V170.128ZM333.94 164.62H334.979V161.866H333.94V164.62ZM333.94 159.107H334.979V156.353H333.94V159.107ZM333.94 153.599H334.979V150.845H333.94V153.599ZM333.94 148.091H334.979V145.337H333.94V148.091ZM333.94 142.583H334.979V139.829H333.94V142.583ZM333.94 137.075H334.979V134.321H333.94V137.075Z" fill="url(#paint35)"/>
<path d="M333.622 170.619H335.984C336.53 170.619 336.975 170.168 336.975 169.613V167.212C336.975 166.658 336.53 166.206 335.984 166.206H333.622C333.077 166.206 332.632 166.658 332.632 167.212V169.613C332.632 170.168 333.077 170.619 333.622 170.619Z" fill="url(#paint36)"/>
<path d="M247.148 138.94H249.67C250.254 138.94 250.728 138.459 250.728 137.865V135.303C250.728 134.709 250.254 134.228 249.67 134.228H247.148C246.563 134.228 246.09 134.709 246.09 135.303V137.87C246.09 138.459 246.563 138.94 247.148 138.94Z" fill="url(#paint37)"/>
<path d="M181.034 138.798H183.396C183.942 138.798 184.387 138.346 184.387 137.791V135.391C184.387 134.836 183.942 134.384 183.396 134.384H181.034C180.488 134.384 180.044 134.836 180.044 135.391V137.791C180.039 138.346 180.484 138.798 181.034 138.798Z" fill="url(#paint38)"/>
<path d="M145.637 176.731H147.999C148.545 176.731 148.99 176.279 148.99 175.725V173.324C148.99 172.769 148.545 172.318 147.999 172.318H145.637C145.091 172.318 144.647 172.769 144.647 173.324V175.725C144.642 176.279 145.087 176.731 145.637 176.731Z" fill="url(#paint39)"/>
<path d="M145.598 242.224L147.961 242.268C148.506 242.278 148.96 241.836 148.97 241.277L149.014 238.876C149.023 238.321 148.588 237.86 148.038 237.85L145.676 237.806C145.13 237.796 144.676 238.238 144.666 238.797L144.623 241.198C144.613 241.758 145.053 242.214 145.598 242.224Z" fill="url(#paint40)"/>
<path opacity="0.15" d="M286.241 100.414C286.188 99.6136 286.159 98.8085 286.159 97.9936C286.159 78.0085 302.099 61.8083 321.764 61.8083C323.222 61.8083 324.662 61.9016 326.077 62.0734C308.422 64.2138 294.728 79.4714 294.728 97.9936C294.728 98.8085 294.757 99.6136 294.81 100.414C285.555 104.277 279.035 113.526 279.035 124.326C279.035 138.597 290.42 150.168 304.461 150.168H295.888C281.846 150.168 270.461 138.597 270.461 124.326C270.466 113.526 276.986 104.277 286.241 100.414Z" fill="black"/>
<path d="M189.973 379.118L172.259 362.232L166.494 378.704L171.85 382.414L187.913 384.474L189.973 379.118Z" fill="#FC9D9D"/>
<path opacity="0.15" d="M189.973 379.118L172.259 362.232L166.494 378.704L171.85 382.414L187.913 384.474L189.973 379.118Z" fill="black"/>
<path d="M172.589 384.118L172.699 396.659C172.704 397.141 172.793 397.613 172.961 398.064C173.129 398.499 173.375 398.902 173.69 399.248C173.993 399.584 174.366 399.851 174.78 400.034C175.178 400.212 175.613 400.307 176.053 400.302L214.616 399.956C214.802 399.95 214.986 399.908 215.155 399.83C215.324 399.751 215.474 399.636 215.596 399.494C215.861 399.196 216.004 398.803 215.999 398.404C215.984 396.963 215.556 395.553 214.768 394.348C214.014 393.2 212.912 392.32 211.623 391.843L202.902 388.751L191.792 379.375C191.252 378.903 190.55 378.657 189.837 378.683C189.119 378.709 188.443 379.003 187.934 379.511L183.092 384.165C182.751 384.5 182.327 384.736 181.865 384.846C181.415 384.956 180.938 384.935 180.497 384.788L174.287 382.692C174.093 382.619 173.878 382.608 173.674 382.65C173.469 382.687 173.275 382.776 173.113 382.912C172.94 383.054 172.809 383.232 172.72 383.436C172.626 383.646 172.578 383.871 172.578 384.097L172.589 384.118Z" fill="url(#paint41)"/>
<path d="M172.589 384.118L172.699 396.659C172.704 397.141 172.793 397.613 172.961 398.064C173.129 398.499 173.375 398.902 173.69 399.248C173.993 399.584 174.366 399.851 174.78 400.034C175.178 400.212 175.613 400.307 176.053 400.302L214.616 399.956C214.802 399.95 214.986 399.908 215.155 399.83C215.324 399.751 215.474 399.636 215.596 399.494C215.861 399.196 216.004 398.803 215.999 398.404C215.984 396.963 215.556 395.553 214.768 394.348C214.014 393.2 212.912 392.32 211.623 391.843L202.902 388.751L191.792 379.375C191.252 378.903 190.55 378.657 189.837 378.683C189.119 378.709 188.443 379.003 187.934 379.511L183.092 384.165C182.751 384.5 182.327 384.736 181.865 384.846C181.415 384.956 180.938 384.935 180.497 384.788L174.287 382.692C174.093 382.619 173.878 382.608 173.674 382.65C173.469 382.687 173.275 382.776 173.113 382.912C172.94 383.054 172.809 383.232 172.72 383.436C172.626 383.646 172.578 383.871 172.578 384.097L172.589 384.118Z" fill="#21252B"/>
<path d="M176.075 400.291L214.616 399.951C214.802 399.945 214.986 399.903 215.155 399.825C215.324 399.746 215.474 399.631 215.596 399.489C215.86 399.185 216.003 398.798 216 398.399C216.004 397.88 215.938 397.367 215.806 396.864L172.778 397.246C172.904 398.085 173.307 398.855 173.92 399.442C174.502 399.987 175.273 400.291 176.075 400.291Z" fill="#21252B"/>
<path opacity="0.3" d="M176.075 400.291L214.616 399.951C214.802 399.945 214.986 399.903 215.155 399.825C215.324 399.746 215.474 399.631 215.596 399.489C215.86 399.185 216.003 398.798 216 398.399C216.004 397.88 215.938 397.367 215.806 396.864L172.778 397.246C172.904 398.085 173.307 398.855 173.92 399.442C174.502 399.987 175.273 400.291 176.075 400.291Z" fill="black"/>
<path d="M191.603 384.385C191.561 384.385 191.519 384.375 191.483 384.359C191.441 384.343 191.409 384.317 191.378 384.286C191.31 384.212 191.273 384.113 191.273 384.013C191.273 383.913 191.31 383.819 191.373 383.74L193.684 380.942C193.715 380.905 193.752 380.879 193.794 380.858C193.836 380.837 193.883 380.821 193.93 380.821C194.025 380.827 194.119 380.868 194.182 380.937C194.25 381.015 194.287 381.11 194.287 381.214C194.287 381.314 194.25 381.408 194.187 381.487L191.876 384.28C191.792 384.333 191.703 384.369 191.603 384.385Z" fill="#F4F4F4"/>
<path d="M193.464 385.952C193.422 385.952 193.38 385.942 193.343 385.926C193.302 385.91 193.27 385.889 193.239 385.858C193.207 385.821 193.181 385.779 193.16 385.737C193.144 385.69 193.134 385.638 193.129 385.585C193.123 385.533 193.123 385.486 193.129 385.433C193.15 385.386 193.176 385.344 193.207 385.308L195.518 382.509C195.549 382.472 195.588 382.446 195.63 382.425C195.672 382.404 195.718 382.394 195.765 382.394C195.859 382.399 195.947 382.435 196.011 382.504C196.077 382.582 196.112 382.682 196.111 382.781C196.114 382.881 196.08 382.975 196.016 383.054L193.705 385.853C193.621 385.905 193.532 385.936 193.438 385.952H193.464Z" fill="#F4F4F4"/>
<path d="M195.303 387.524C195.219 387.524 195.138 387.488 195.078 387.43C195.01 387.351 194.978 387.252 194.978 387.152C194.978 387.053 195.015 386.953 195.078 386.88L197.389 384.081C197.453 384.023 197.537 383.987 197.625 383.987C197.714 383.997 197.798 384.039 197.861 384.102C197.922 384.175 197.957 384.264 197.96 384.359C197.968 384.453 197.939 384.547 197.882 384.626L195.57 387.425C195.497 387.493 195.402 387.524 195.303 387.524Z" fill="#F4F4F4"/>
<path d="M26.1737 366.708L28.0027 375.848C28.857 380.129 30.7542 384.128 33.5214 387.503C36.6502 391.308 40.7748 394.175 45.434 395.774C49.7525 397.252 54.3645 397.671 58.8769 397L60.2291 396.801C66.8641 395.816 73.0641 392.902 78.0482 388.415L121.663 348.689L170.199 381.959L184.292 371.393L132.239 321.756C129.876 319.279 126.673 317.768 123.256 317.515C119.839 317.263 116.454 318.286 113.749 320.388L72.8702 345.194L26.1737 366.708Z" fill="#21252B"/>
<path opacity="0.3" d="M26.1733 366.707L28.0024 375.847C28.8566 380.129 30.7538 384.128 33.521 387.503C36.6498 391.308 40.7745 394.175 45.4337 395.773C49.7522 397.251 54.3641 397.671 58.8765 397L60.2287 396.801C66.8637 395.815 73.0637 392.901 78.0479 388.415L121.663 348.689L170.199 381.958L182.725 372.954L131.851 322.93C126.956 317.778 118.948 316.389 113.335 320.744L72.8698 345.162L26.1733 366.707Z" fill="black"/>
<path d="M53.1804 282.942L88.8186 311.908L112.497 302.318L121.501 315.236L93.3625 332.5C91.7431 333.747 89.7778 334.46 87.7338 334.541C85.6898 334.622 83.6721 334.066 81.9583 332.951L45.9375 306.626L53.1804 282.942Z" fill="url(#paint42)"/>
<path opacity="0.2" d="M53.1804 282.942L88.8186 311.908L112.497 302.318L121.501 315.236L93.3625 332.5C91.7431 333.747 89.7778 334.46 87.7338 334.541C85.6898 334.622 83.6721 334.066 81.9583 332.951L45.9375 306.626L53.1804 282.942Z" fill="black"/>
<path d="M121.48 314.372L113.509 301.589C113.357 301.348 113.121 301.172 112.848 301.096C112.576 301.021 112.282 301.051 112.031 301.18L106.439 304.058C106.297 304.13 106.171 304.233 106.072 304.356C105.977 304.481 105.904 304.624 105.862 304.778C105.82 304.932 105.815 305.092 105.841 305.249C105.867 305.406 105.925 305.555 106.014 305.688L114.85 319.047C114.934 319.174 115.044 319.283 115.17 319.368C115.301 319.452 115.443 319.509 115.595 319.537C115.741 319.563 115.899 319.56 116.045 319.525C116.197 319.49 116.333 319.426 116.459 319.335L121.176 315.886C121.407 315.718 121.564 315.469 121.622 315.188C121.679 314.908 121.627 314.616 121.48 314.372Z" fill="#DADDDF"/>
<path opacity="0.3" d="M121.537 314.471L113.451 301.49C113.32 301.275 113.11 301.119 112.864 301.052C112.623 300.985 112.36 301.012 112.135 301.128L106.312 304.12C106.187 304.186 106.077 304.277 105.988 304.387C105.904 304.498 105.836 304.626 105.804 304.762C105.767 304.899 105.762 305.042 105.783 305.182C105.804 305.321 105.857 305.454 105.935 305.572L114.944 319.157C115.018 319.27 115.117 319.367 115.233 319.441C115.343 319.516 115.474 319.567 115.605 319.591C115.741 319.615 115.877 319.611 116.008 319.581C116.139 319.55 116.265 319.494 116.375 319.413L121.281 315.813C121.485 315.664 121.626 315.442 121.674 315.193C121.721 314.944 121.674 314.686 121.537 314.471Z" fill="#DADDDF"/>
<path d="M186.677 379.532L171.022 364.286L165.257 380.764L170.613 384.474L186.677 386.534V379.532Z" fill="#FC9D9D"/>
<path opacity="0.15" d="M167.851 373.353L173.737 379.893C174.523 380.758 175.545 381.366 176.677 381.649C177.809 381.927 178.999 381.864 180.094 381.466L186.677 379.097V386.513L170.613 384.453L165.257 380.742L167.851 373.353Z" fill="black"/>
<path d="M169.293 384.526L169.408 397.073C169.408 397.555 169.497 398.032 169.67 398.478C169.833 398.918 170.084 399.316 170.399 399.662C170.703 399.998 171.07 400.26 171.484 400.443C171.882 400.626 172.317 400.721 172.757 400.71L211.326 400.364C211.512 400.359 211.696 400.317 211.865 400.239C212.034 400.16 212.184 400.045 212.305 399.903C212.568 399.604 212.71 399.217 212.704 398.818C212.688 397.377 212.261 395.967 211.472 394.762C210.719 393.614 209.617 392.734 208.327 392.257L199.602 389.159L188.49 379.789C187.951 379.317 187.254 379.071 186.536 379.092C185.818 379.123 185.141 379.422 184.633 379.925L179.79 384.574C179.455 384.909 179.03 385.145 178.569 385.26C178.113 385.365 177.642 385.344 177.196 385.202L170.991 383.106C170.792 383.038 170.582 383.027 170.378 383.069C170.168 383.106 169.974 383.195 169.812 383.331C169.644 383.473 169.508 383.651 169.419 383.856C169.324 384.065 169.277 384.291 169.277 384.516L169.293 384.526Z" fill="url(#paint43)"/>
<path d="M169.293 384.526L169.408 397.073C169.408 397.555 169.497 398.032 169.67 398.478C169.833 398.918 170.084 399.316 170.399 399.662C170.703 399.998 171.07 400.26 171.484 400.443C171.882 400.626 172.317 400.721 172.757 400.71L211.326 400.364C211.512 400.359 211.696 400.317 211.865 400.239C212.034 400.16 212.184 400.045 212.305 399.903C212.568 399.604 212.71 399.217 212.704 398.818C212.688 397.377 212.261 395.967 211.472 394.762C210.719 393.614 209.617 392.734 208.327 392.257L199.602 389.159L188.49 379.789C187.951 379.317 187.254 379.071 186.536 379.092C185.818 379.123 185.141 379.422 184.633 379.925L179.79 384.574C179.455 384.909 179.03 385.145 178.569 385.26C178.113 385.365 177.642 385.344 177.196 385.202L170.991 383.106C170.792 383.038 170.582 383.027 170.378 383.069C170.168 383.106 169.974 383.195 169.812 383.331C169.644 383.473 169.508 383.651 169.419 383.856C169.324 384.065 169.277 384.291 169.277 384.516L169.293 384.526Z" fill="#21252B"/>
<path d="M172.778 400.705L211.32 400.359C211.507 400.359 211.692 400.312 211.862 400.234C212.032 400.155 212.183 400.04 212.305 399.898C212.569 399.599 212.711 399.206 212.703 398.808C212.707 398.289 212.642 397.776 212.509 397.272L169.482 397.66C169.607 398.499 170.011 399.269 170.629 399.851C171.211 400.401 171.981 400.705 172.778 400.705Z" fill="#21252B"/>
<path opacity="0.3" d="M172.778 400.705L211.32 400.359C211.507 400.359 211.692 400.312 211.862 400.234C212.032 400.155 212.183 400.04 212.305 399.898C212.569 399.599 212.711 399.206 212.703 398.808C212.707 398.289 212.642 397.776 212.509 397.272L169.482 397.66C169.607 398.499 170.011 399.269 170.629 399.851C171.211 400.401 171.981 400.705 172.778 400.705Z" fill="black"/>
<path d="M188.307 384.799C188.265 384.799 188.223 384.788 188.181 384.773C188.144 384.752 188.108 384.726 188.082 384.694C188.05 384.657 188.024 384.621 188.003 384.574C187.987 384.526 187.977 384.479 187.977 384.427C187.977 384.374 187.982 384.322 188.003 384.275C188.019 384.228 188.045 384.191 188.076 384.154L190.388 381.356C190.419 381.319 190.456 381.288 190.503 381.272C190.545 381.251 190.592 381.235 190.639 381.235C190.686 381.235 190.733 381.246 190.775 381.267C190.817 381.288 190.854 381.314 190.885 381.35C190.954 381.424 190.996 381.523 190.99 381.628C190.99 381.728 190.954 381.822 190.891 381.895L188.579 384.689C188.501 384.747 188.406 384.783 188.307 384.799Z" fill="#F4F4F4"/>
<path d="M190.173 386.366C190.131 386.366 190.089 386.355 190.047 386.34C190.01 386.324 189.973 386.298 189.947 386.266C189.916 386.23 189.884 386.193 189.869 386.146C189.858 386.099 189.858 386.046 189.869 385.999C189.863 385.9 189.9 385.8 189.968 385.721L192.279 382.917C192.311 382.886 192.348 382.855 192.39 382.839C192.431 382.818 192.479 382.807 192.526 382.807C192.573 382.807 192.62 382.818 192.662 382.839C192.704 382.855 192.741 382.881 192.772 382.917C192.835 382.996 192.872 383.09 192.877 383.19C192.877 383.29 192.84 383.389 192.777 383.462L190.466 386.266C190.382 386.319 190.293 386.35 190.199 386.366H190.173Z" fill="#F4F4F4"/>
<path d="M192.007 387.938C191.923 387.933 191.845 387.902 191.787 387.844C191.719 387.765 191.682 387.671 191.682 387.566C191.682 387.467 191.719 387.372 191.782 387.294L194.093 384.495C194.124 384.464 194.161 384.437 194.203 384.422C194.24 384.406 194.287 384.401 194.329 384.401C194.418 384.411 194.502 384.448 194.565 384.516C194.627 384.584 194.664 384.678 194.669 384.773C194.669 384.867 194.643 384.961 194.586 385.04L192.274 387.839C192.201 387.902 192.107 387.938 192.007 387.938Z" fill="#F4F4F4"/>
<path d="M62.1841 275.505L56.7754 271.59L56.7702 281.401L59.8362 282.549L62.1841 275.505Z" fill="white"/>
<path d="M61.393 283.786L62.001 275.557C62.001 275.557 60.6069 276.286 59.4329 282.942L61.393 283.786Z" fill="white"/>
<path opacity="0.2" d="M61.393 283.786L62.001 275.557C62.001 275.557 60.2191 277.072 59.4329 282.942L61.393 283.786Z" fill="black"/>
<path d="M42.368 238.106L42.1112 254.473L39.1711 271.092L58.5048 277.271L59.3172 265.217L64.1598 266.05C64.3223 266.092 64.4847 266.124 64.6524 266.145C67.797 266.601 69.6627 266.433 70.6952 261.428L71.5705 255.364L73.5411 254.594L73.6511 254.541C73.9131 254.4 74.1123 254.16 74.1962 253.874C74.2853 253.589 74.2538 253.28 74.1123 253.016L71.408 248.037V247.744L71.6386 247.042C72.5872 244.081 72.6973 240.916 71.9635 237.896L71.235 234.935L42.368 238.106Z" fill="#FC9D9D"/>
<path d="M71.7696 235.386L63.2688 238.724C62.8705 238.814 62.5089 239.018 62.2206 239.31C61.9323 239.602 61.7385 239.97 61.6546 240.37L61.3192 241.89C60.9314 243.892 59.4849 244.757 57.4461 245.008L55.4074 245.144L54.9777 248.876C54.941 249.131 54.8204 249.365 54.6265 249.537C54.4326 249.708 54.1863 249.807 53.9295 249.814C53.6517 249.814 53.3844 249.704 53.1905 249.507C52.9914 249.31 52.8813 249.044 52.8813 248.766V247.367L48.0597 247.922L47.3941 251.832C45.7537 255.045 41.954 255.375 41.954 255.375C39.6166 248.116 36.624 241.319 38.8881 234.233L38.9458 234.06C39.7162 231.586 43.4267 228.452 46.9329 229.291C48.2169 229.631 48.9611 228.284 49.4223 227.876C51.2619 224.951 57.3623 224.018 60.9523 226.199L63.2374 227.771C65.0874 228.683 67.1209 228.143 69.2173 227.891C72.2203 227.1 74.7097 231.775 71.7696 235.386Z" fill="#21252B"/>
<path opacity="0.15" d="M59.1393 269.378L54.9937 265.238C54.8942 265.114 54.8365 264.96 54.826 264.8C54.8208 264.64 54.8679 264.482 54.957 264.35C55.0514 264.218 55.1824 264.119 55.3344 264.068C55.4863 264.018 55.6488 264.018 55.8008 264.069L59.3018 265.118L59.1393 269.378Z" fill="black"/>
<path d="M113.729 301.94L132.428 292.454L135.725 294.047L117.968 308.743L113.729 301.94Z" fill="#FC9D9D"/>
<path opacity="0.15" d="M113.729 301.94L132.428 292.454L135.725 294.047L117.968 308.743L113.729 301.94Z" fill="black"/>
<path opacity="0.15" d="M44.5956 254.604L49.0137 253.981C48.4005 253.352 47.8712 252.647 47.4414 251.884C47.1794 252.508 46.7863 253.071 46.2989 253.539C45.8114 254.007 45.2297 254.37 44.5956 254.604Z" fill="black"/>
<path d="M24.9999 369.055L26.8027 378.195C27.6622 382.477 29.5594 386.476 32.3267 389.851C35.4555 393.656 39.5801 396.523 44.2392 398.121C48.5578 399.599 53.1698 400.024 57.6822 399.348L59.0343 399.149C65.6693 398.163 71.8693 395.249 76.8534 390.763L120.495 351.074L169.046 384.327L183.139 373.762L131.097 324.12C128.733 321.632 125.531 320.111 122.109 319.853C118.686 319.594 115.29 320.616 112.581 322.72L72.9018 349.093L24.9999 369.055Z" fill="#21252B"/>
<path d="M52.9814 255.343L52.9133 247.655C52.9028 246.833 52.5622 246.049 51.9752 245.475C51.383 244.901 50.5916 244.584 49.7688 244.594C48.9459 244.608 48.1651 244.946 47.5938 245.536C47.0173 246.125 46.7029 246.917 46.7133 247.739V249.253C46.7186 250.064 46.8863 250.866 47.206 251.612C47.5205 252.358 47.9816 253.034 48.5634 253.602C49.1399 254.17 49.8264 254.619 50.5759 254.921C51.3306 255.225 52.1324 255.377 52.9448 255.37L52.9814 255.343Z" fill="#FC9D9D"/>
<g opacity="0.3">
<path opacity="0.3" d="M51.7597 249.295V248.011C51.7492 247.473 51.5291 246.961 51.1465 246.584C50.7586 246.207 50.245 245.995 49.7052 245.994C49.4065 245.986 49.1078 246.046 48.8405 246.17C48.568 246.293 48.3269 246.477 48.1329 246.706C48.1172 246.721 48.1015 246.739 48.091 246.759C48.0544 246.807 48.0229 246.864 48.0072 246.923C47.9914 246.984 47.9862 247.046 47.9967 247.108C48.0072 247.169 48.0282 247.228 48.0596 247.281C48.0911 247.335 48.133 247.38 48.1854 247.416C48.2378 247.452 48.2954 247.477 48.3531 247.49C48.416 247.502 48.4789 247.502 48.5365 247.49C48.5994 247.478 48.6571 247.453 48.7095 247.417C48.7619 247.381 48.8038 247.336 48.8353 247.283C48.9348 247.149 49.0711 247.041 49.2231 246.969C49.3751 246.897 49.5428 246.862 49.7105 246.869C49.8624 246.867 50.0145 246.896 50.156 246.953C50.2975 247.011 50.4285 247.095 50.5333 247.203C50.6434 247.31 50.7272 247.437 50.7901 247.578C50.8478 247.718 50.8792 247.869 50.8792 248.022V249.301C50.8897 249.421 50.9473 249.533 51.0312 249.618C51.1203 249.703 51.2303 249.755 51.3509 249.767C51.4138 249.775 51.4766 249.769 51.5343 249.747C51.5919 249.725 51.6444 249.689 51.6811 249.642C51.723 249.595 51.7544 249.539 51.7649 249.478C51.7806 249.418 51.7754 249.355 51.7597 249.295Z" fill="#21252B"/>
</g>
<path d="M144.047 259.421L154.943 264.69L139.781 296.054L128.885 290.784L144.047 259.421Z" fill="#3F4249"/>
<path d="M143.906 261.53L153.376 266.108L141.112 291.483L131.642 286.906L143.906 261.53Z" fill="#F4F4F4"/>
<path d="M134.671 292.714C134.278 292.523 134.262 291.736 134.634 290.957C135.012 290.177 135.641 289.701 136.034 289.892C136.432 290.084 136.448 290.871 136.07 291.65C135.693 292.429 135.069 292.905 134.671 292.714Z" fill="#868A91"/>
<path opacity="0.2" d="M135.725 289.813C135.442 290.051 135.216 290.348 135.064 290.683C134.687 291.464 134.703 292.255 135.096 292.438C135.19 292.479 135.295 292.488 135.394 292.465C135.3 292.562 135.185 292.632 135.054 292.666C134.923 292.701 134.787 292.698 134.661 292.659C134.262 292.47 134.247 291.684 134.624 290.903C134.718 290.654 134.87 290.429 135.059 290.241C135.248 290.053 135.473 289.908 135.725 289.813Z" fill="black"/>
<path d="M146.118 262.549L144.771 283.828L141.097 291.427L142.334 264.703L143.896 261.475L146.118 262.549Z" fill="#DADDDF"/>
<path d="M141.511 266.407L140.457 291.112L138.995 290.41L139.807 269.934L141.511 266.407Z" fill="#DADDDF"/>
<path d="M155.043 264.468L155.782 265.296L140.662 296.458L139.708 296.013L155.043 264.468Z" fill="#21252B"/>
<path d="M116.585 320.739L137.208 303.9L146.17 298.659C146.699 298.284 147.145 297.807 147.485 297.256C147.821 296.705 148.046 296.091 148.146 295.452L150.614 279.347C150.64 279.141 150.588 278.934 150.462 278.767C150.341 278.6 150.158 278.487 149.954 278.45C149.781 278.418 149.603 278.444 149.445 278.523C149.288 278.603 149.162 278.732 149.084 278.891L142.213 293.109C142.082 293.382 141.872 293.608 141.61 293.76C141.348 293.912 141.049 293.981 140.745 293.96C140.447 293.938 140.158 293.827 139.917 293.64C139.681 293.453 139.509 293.198 139.414 292.91C139.414 292.91 139.414 292.868 139.414 292.842C140.017 290.538 140.473 288.198 140.772 285.835C140.871 284.97 140.672 284.097 140.216 283.356C140.153 283.254 140.064 283.17 139.959 283.113C139.849 283.056 139.729 283.028 139.608 283.033C139.488 283.037 139.372 283.073 139.267 283.137C139.168 283.201 139.084 283.292 139.026 283.398L135.609 289.954L131.223 297.035L108.262 308.491L116.585 320.739Z" fill="#FC9D9D"/>
<path d="M59.6422 282.355C59.6422 282.355 65.706 297.816 71.754 339.366C72.2257 342.599 72.4301 345.283 72.9489 348.506C73.1166 349.554 71.4448 351.766 68.5989 354.438C61.508 361.089 52.6613 363.547 43.1543 365.135C41.3095 365.444 39.4857 365.796 37.6356 366.183L25.1937 368.856L27.9661 295.483C28.291 286.959 31.2574 278.746 36.4564 271.983L59.6422 282.355Z" fill="url(#paint44)"/>
<path opacity="0.2" d="M58.269 279.42L57.8812 286.464L36.3515 271.983L58.269 279.42Z" fill="black"/>
<path d="M58.6201 275.432L57.0846 284.635L36.4877 272.125L38.5317 266.501C38.5317 266.501 50.9527 269.3 58.6201 275.432Z" fill="white"/>
<path d="M58.4209 275.374L59.5635 282.549L57.5876 281.768L58.4209 275.374Z" fill="white"/>
<path opacity="0.2" d="M58.4209 275.374L59.5635 282.549L57.5876 281.768L58.4209 275.374Z" fill="black"/>
<path d="M52.5933 283.922L87.2358 315.823L110.919 306.238L119.923 319.157L91.7901 336.415C90.1706 337.661 88.2001 338.373 86.1614 338.454C84.1174 338.534 82.0996 337.979 80.3859 336.866L44.3651 310.54L52.5933 283.922Z" fill="url(#paint45)"/>
<path d="M119.913 318.292L111.946 305.509C111.8 305.267 111.564 305.09 111.286 305.014C111.014 304.939 110.72 304.969 110.469 305.1L104.876 307.978C104.735 308.049 104.609 308.151 104.51 308.274C104.41 308.399 104.337 308.542 104.295 308.697C104.258 308.851 104.248 309.012 104.274 309.169C104.305 309.326 104.363 309.476 104.452 309.608L113.278 322.961C113.362 323.089 113.472 323.198 113.597 323.283C113.728 323.367 113.87 323.424 114.022 323.451C114.174 323.478 114.326 323.474 114.473 323.439C114.625 323.405 114.766 323.34 114.887 323.25L119.603 319.801C119.834 319.634 119.997 319.386 120.054 319.107C120.112 318.827 120.059 318.536 119.913 318.292Z" fill="white"/>
<path opacity="0.2" d="M119.918 318.292L111.936 305.488C111.789 305.25 111.559 305.075 111.286 305C111.019 304.926 110.731 304.956 110.479 305.085L104.861 307.972C104.719 308.045 104.599 308.146 104.499 308.269C104.405 308.392 104.331 308.534 104.29 308.686C104.253 308.838 104.248 308.997 104.269 309.152C104.295 309.308 104.358 309.456 104.442 309.587L113.309 322.967C113.393 323.09 113.498 323.195 113.624 323.276C113.749 323.358 113.891 323.413 114.038 323.439C114.184 323.466 114.331 323.462 114.478 323.43C114.625 323.397 114.761 323.336 114.881 323.25L119.598 319.785C119.834 319.624 119.997 319.379 120.054 319.102C120.112 318.824 120.065 318.535 119.918 318.292Z" fill="white"/>
<path opacity="0.2" d="M44.4907 312.585L70.9102 335.283L70.0139 329.518L45.1196 311.778C45.0095 311.727 44.889 311.714 44.7737 311.741C44.6584 311.769 44.5536 311.835 44.4802 311.929C44.4068 312.023 44.3702 312.139 44.3702 312.259C44.3702 312.378 44.4173 312.493 44.4907 312.585Z" fill="black"/>
<path opacity="0.2" d="M37.6356 366.189L25.1937 368.861L28.1495 292.711C28.2962 288.848 29.2658 285.062 30.9953 281.605L30.0624 347.704C30.0624 349.738 30.5184 351.747 31.3884 353.584C32.2636 355.422 33.5372 357.041 35.1147 358.325C36.6922 359.61 38.537 360.526 40.5129 361.009C42.4887 361.492 44.5484 361.528 46.5399 361.115C53.961 359.543 62.8496 356.839 70.9102 352.075C70.2708 352.798 69.4899 353.595 68.5989 354.433C61.5079 361.084 52.6613 363.542 43.1542 365.13C41.3094 365.46 39.4647 365.796 37.6356 366.189Z" fill="black"/>
<path opacity="0.3" d="M120.091 351.053L93.032 371.885L70.7686 389.023C70.7686 389.023 45.9581 405.322 28.6159 383.866C30.1043 387.184 32.2584 390.166 34.947 392.613C37.6303 395.066 40.7906 396.942 44.2338 398.121C48.5524 399.599 53.1644 400.024 57.6768 399.348L59.0289 399.149C65.6639 398.163 71.8639 395.249 76.848 390.763L95.5267 373.777L120.091 351.053Z" fill="black"/>
<path opacity="0.2" d="M62.1841 291.427L52.3993 284.116L62.9702 293.476L62.1841 291.427Z" fill="black"/>
<path d="M129.43 293.974L129.666 291.113L132.428 292.454L129.43 293.974Z" fill="#FC9D9D"/>
<path opacity="0.15" d="M129.43 293.974L129.666 291.113L132.428 292.454L129.43 293.974Z" fill="black"/>
<defs>
<linearGradient id="paint0" x1="228.132" y1="136.059" x2="228.132" y2="267.211" gradientUnits="userSpaceOnUse">
<stop stop-color="#00B4F5"/>
<stop offset="1" stop-color="#0042DE"/>
</linearGradient>
<linearGradient id="paint1" x1="476.466" y1="201.375" x2="476.466" y2="208.149" gradientUnits="userSpaceOnUse">
<stop stop-color="#00B4F5"/>
<stop offset="1" stop-color="#0042DE"/>
</linearGradient>
<linearGradient id="paint2" x1="469.206" y1="220.31" x2="469.206" y2="233.928" gradientUnits="userSpaceOnUse">
<stop stop-color="#00B4F5"/>
<stop offset="1" stop-color="#0042DE"/>
</linearGradient>
<linearGradient id="paint3" x1="219.773" y1="221.468" x2="219.773" y2="232.759" gradientUnits="userSpaceOnUse">
<stop stop-color="#00B4F5"/>
<stop offset="1" stop-color="#0042DE"/>
</linearGradient>
<linearGradient id="paint4" x1="219.776" y1="223.255" x2="219.776" y2="227.241" gradientUnits="userSpaceOnUse">
<stop stop-color="#00B4F5"/>
<stop offset="1" stop-color="#0042DE"/>
</linearGradient>
<linearGradient id="paint5" x1="219.775" y1="227.801" x2="219.775" y2="232.759" gradientUnits="userSpaceOnUse">
<stop stop-color="#00B4F5"/>
<stop offset="1" stop-color="#0042DE"/>
</linearGradient>
<linearGradient id="paint6" x1="470.35" y1="251.988" x2="470.35" y2="262.592" gradientUnits="userSpaceOnUse">
<stop stop-color="#00B4F5"/>
<stop offset="1" stop-color="#0042DE"/>
</linearGradient>
<linearGradient id="paint7" x1="443.234" y1="255.233" x2="443.234" y2="259.342" gradientUnits="userSpaceOnUse">
<stop stop-color="#00B4F5"/>
<stop offset="1" stop-color="#0042DE"/>
</linearGradient>
<linearGradient id="paint8" x1="443.234" y1="279.715" x2="443.234" y2="283.824" gradientUnits="userSpaceOnUse">
<stop stop-color="#00B4F5"/>
<stop offset="1" stop-color="#0042DE"/>
</linearGradient>
<linearGradient id="paint9" x1="443.234" y1="304.202" x2="443.234" y2="308.311" gradientUnits="userSpaceOnUse">
<stop stop-color="#00B4F5"/>
<stop offset="1" stop-color="#0042DE"/>
</linearGradient>
<linearGradient id="paint10" x1="443.234" y1="328.683" x2="443.234" y2="332.792" gradientUnits="userSpaceOnUse">
<stop stop-color="#00B4F5"/>
<stop offset="1" stop-color="#0042DE"/>
</linearGradient>
<linearGradient id="paint11" x1="443.234" y1="353.17" x2="443.234" y2="357.279" gradientUnits="userSpaceOnUse">
<stop stop-color="#00B4F5"/>
<stop offset="1" stop-color="#0042DE"/>
</linearGradient>
<linearGradient id="paint12" x1="470.35" y1="276.47" x2="470.35" y2="287.074" gradientUnits="userSpaceOnUse">
<stop stop-color="#00B4F5"/>
<stop offset="1" stop-color="#0042DE"/>
</linearGradient>
<linearGradient id="paint13" x1="470.35" y1="300.957" x2="470.35" y2="311.56" gradientUnits="userSpaceOnUse">
<stop stop-color="#00B4F5"/>
<stop offset="1" stop-color="#0042DE"/>
</linearGradient>
<linearGradient id="paint14" x1="470.35" y1="325.438" x2="470.35" y2="336.042" gradientUnits="userSpaceOnUse">
<stop stop-color="#00B4F5"/>
<stop offset="1" stop-color="#0042DE"/>
</linearGradient>
<linearGradient id="paint15" x1="470.35" y1="349.925" x2="470.35" y2="360.529" gradientUnits="userSpaceOnUse">
<stop stop-color="#00B4F5"/>
<stop offset="1" stop-color="#0042DE"/>
</linearGradient>
<linearGradient id="paint16" x1="376.616" y1="264.875" x2="376.616" y2="291.021" gradientUnits="userSpaceOnUse">
<stop stop-color="#00B4F5"/>
<stop offset="1" stop-color="#0042DE"/>
</linearGradient>
<linearGradient id="paint17" x1="244.053" y1="350.166" x2="244.053" y2="358.929" gradientUnits="userSpaceOnUse">
<stop stop-color="#00B4F5"/>
<stop offset="1" stop-color="#0042DE"/>
</linearGradient>
<linearGradient id="paint18" x1="445.052" y1="223.26" x2="445.052" y2="230.226" gradientUnits="userSpaceOnUse">
<stop stop-color="#00B4F5"/>
<stop offset="1" stop-color="#0042DE"/>
</linearGradient>
<linearGradient id="paint19" x1="334.456" y1="61.8083" x2="334.456" y2="150.163" gradientUnits="userSpaceOnUse">
<stop stop-color="#00B4F5"/>
<stop offset="1" stop-color="#0042DE"/>
</linearGradient>
<linearGradient id="paint20" x1="436.799" y1="78.3997" x2="436.799" y2="136.585" gradientUnits="userSpaceOnUse">
<stop stop-color="#00B4F5"/>
<stop offset="1" stop-color="#0042DE"/>
</linearGradient>
<linearGradient id="paint21" x1="429.789" y1="77.4779" x2="429.789" y2="136.65" gradientUnits="userSpaceOnUse">
<stop stop-color="#00B4F5"/>
<stop offset="1" stop-color="#0042DE"/>
</linearGradient>
<linearGradient id="paint22" x1="292.046" y1="7.10937" x2="292.046" y2="56.8671" gradientUnits="userSpaceOnUse">
<stop stop-color="#00B4F5"/>
<stop offset="1" stop-color="#0042DE"/>
</linearGradient>
<linearGradient id="paint23" x1="285.212" y1="0" x2="285.212" y2="55.0874" gradientUnits="userSpaceOnUse">
<stop stop-color="#00B4F5"/>
<stop offset="1" stop-color="#0042DE"/>
</linearGradient>
<linearGradient id="paint24" x1="267.025" y1="8.87817" x2="267.025" y2="22.5108" gradientUnits="userSpaceOnUse">
<stop stop-color="#00B4F5"/>
<stop offset="1" stop-color="#0042DE"/>
</linearGradient>
<linearGradient id="paint25" x1="289.557" y1="5.62183" x2="289.557" y2="16.1023" gradientUnits="userSpaceOnUse">
<stop stop-color="#00B4F5"/>
<stop offset="1" stop-color="#0042DE"/>
</linearGradient>
<linearGradient id="paint26" x1="230.461" y1="69.9083" x2="230.461" y2="107.256" gradientUnits="userSpaceOnUse">
<stop stop-color="#00B4F5"/>
<stop offset="1" stop-color="#0042DE"/>
</linearGradient>
<linearGradient id="paint27" x1="231.933" y1="82.7119" x2="231.933" y2="107.242" gradientUnits="userSpaceOnUse">
<stop stop-color="#00B4F5"/>
<stop offset="1" stop-color="#0042DE"/>
</linearGradient>
<linearGradient id="paint28" x1="235.012" y1="83.8103" x2="235.012" y2="91.509" gradientUnits="userSpaceOnUse">
<stop stop-color="#00B4F5"/>
<stop offset="1" stop-color="#0042DE"/>
</linearGradient>
<linearGradient id="paint29" x1="215.035" y1="82.7511" x2="215.035" y2="103.414" gradientUnits="userSpaceOnUse">
<stop stop-color="#00B4F5"/>
<stop offset="1" stop-color="#0042DE"/>
</linearGradient>
<linearGradient id="paint30" x1="373.832" y1="22.5183" x2="373.832" y2="64.3861" gradientUnits="userSpaceOnUse">
<stop stop-color="#00B4F5"/>
<stop offset="1" stop-color="#0042DE"/>
</linearGradient>
<linearGradient id="paint31" x1="396.988" y1="115.96" x2="396.988" y2="131.066" gradientUnits="userSpaceOnUse">
<stop stop-color="#00B4F5"/>
<stop offset="1" stop-color="#0042DE"/>
</linearGradient>
<linearGradient id="paint32" x1="362.201" y1="64.6506" x2="362.201" y2="86.6238" gradientUnits="userSpaceOnUse">
<stop stop-color="#00B4F5"/>
<stop offset="1" stop-color="#0042DE"/>
</linearGradient>
<linearGradient id="paint33" x1="299.67" y1="56.3794" x2="299.67" y2="79.1872" gradientUnits="userSpaceOnUse">
<stop stop-color="#00B4F5"/>
<stop offset="1" stop-color="#0042DE"/>
</linearGradient>
<linearGradient id="paint34" x1="277.058" y1="99.2406" x2="277.058" y2="114.557" gradientUnits="userSpaceOnUse">
<stop stop-color="#00B4F5"/>
<stop offset="1" stop-color="#0042DE"/>
</linearGradient>
<linearGradient id="paint35" x1="334.459" y1="134.321" x2="334.459" y2="186.658" gradientUnits="userSpaceOnUse">
<stop stop-color="#00B4F5"/>
<stop offset="1" stop-color="#0042DE"/>
</linearGradient>
<linearGradient id="paint36" x1="334.803" y1="166.206" x2="334.803" y2="170.619" gradientUnits="userSpaceOnUse">
<stop stop-color="#00B4F5"/>
<stop offset="1" stop-color="#0042DE"/>
</linearGradient>
<linearGradient id="paint37" x1="248.409" y1="134.228" x2="248.409" y2="138.94" gradientUnits="userSpaceOnUse">
<stop stop-color="#00B4F5"/>
<stop offset="1" stop-color="#0042DE"/>
</linearGradient>
<linearGradient id="paint38" x1="182.215" y1="134.384" x2="182.215" y2="138.798" gradientUnits="userSpaceOnUse">
<stop stop-color="#00B4F5"/>
<stop offset="1" stop-color="#0042DE"/>
</linearGradient>
<linearGradient id="paint39" x1="146.818" y1="172.318" x2="146.818" y2="176.731" gradientUnits="userSpaceOnUse">
<stop stop-color="#00B4F5"/>
<stop offset="1" stop-color="#0042DE"/>
</linearGradient>
<linearGradient id="paint40" x1="146.818" y1="237.806" x2="146.818" y2="242.268" gradientUnits="userSpaceOnUse">
<stop stop-color="#00B4F5"/>
<stop offset="1" stop-color="#0042DE"/>
</linearGradient>
<linearGradient id="paint41" x1="194.289" y1="378.681" x2="194.289" y2="400.302" gradientUnits="userSpaceOnUse">
<stop stop-color="#00B4F5"/>
<stop offset="1" stop-color="#0042DE"/>
</linearGradient>
<linearGradient id="paint42" x1="83.7192" y1="282.942" x2="83.7192" y2="334.549" gradientUnits="userSpaceOnUse">
<stop stop-color="#00B4F5"/>
<stop offset="1" stop-color="#0042DE"/>
</linearGradient>
<linearGradient id="paint43" x1="190.991" y1="379.09" x2="190.991" y2="400.711" gradientUnits="userSpaceOnUse">
<stop stop-color="#00B4F5"/>
<stop offset="1" stop-color="#0042DE"/>
</linearGradient>
<linearGradient id="paint44" x1="49.0771" y1="271.983" x2="49.0771" y2="368.856" gradientUnits="userSpaceOnUse">
<stop stop-color="#00B4F5"/>
<stop offset="1" stop-color="#0042DE"/>
</linearGradient>
<linearGradient id="paint45" x1="82.1442" y1="283.922" x2="82.1442" y2="338.461" gradientUnits="userSpaceOnUse">
<stop stop-color="#00B4F5"/>
<stop offset="1" stop-color="#0042DE"/>
</linearGradient>
</defs>
</svg>
