<svg width="161" height="132" viewBox="0 0 161 132" fill="none" xmlns="http://www.w3.org/2000/svg">
<path d="M160.804 131.577L0.200295 131.272C0.145599 131.267 0.0947232 131.243 0.05775 131.201C0.0206241 131.162 0 131.108 0 131.053C0 131 0.0206241 130.946 0.05775 130.906C0.0947232 130.865 0.145599 130.841 0.200295 130.836L160.806 131.142C160.859 131.148 160.908 131.174 160.945 131.214C160.98 131.255 161 131.307 161 131.36C161 131.414 160.98 131.466 160.945 131.507C160.908 131.547 160.859 131.573 160.806 131.579L160.804 131.577Z" fill="#B2B6BB"/>
<path d="M132.011 47.8673C130.937 48.3897 129.771 48.6954 128.579 48.7671C127.386 48.8386 126.193 48.6748 125.064 48.2847C123.935 47.8947 122.894 47.2863 122.001 46.494C121.107 45.7017 120.38 44.7413 119.857 43.6674C118.803 41.4985 118.653 38.9996 119.44 36.7204C120.228 34.4412 121.889 32.5683 124.059 31.5136C126.227 30.4592 128.726 30.3093 131.006 31.0969C133.284 31.8844 135.157 33.5452 136.212 35.7136C137.267 37.8825 137.416 40.3814 136.628 42.6606C135.84 44.9398 134.179 46.8127 132.011 47.8673Z" fill="url(#paint0_linear)"/>
<g clip-path="url(#clip0)">
<path d="M127.192 43.8393C127.192 43.8393 126.479 43.8393 126.479 43.1263C126.479 42.4133 127.192 40.2744 130.044 40.2744C132.896 40.2744 133.609 42.4133 133.609 43.1263C133.609 43.8393 132.896 43.8393 132.896 43.8393H127.192ZM130.044 39.5614C130.611 39.5614 131.155 39.336 131.557 38.9349C131.958 38.5338 132.183 37.9897 132.183 37.4225C132.183 36.8552 131.958 36.3111 131.557 35.91C131.155 35.5089 130.611 35.2835 130.044 35.2835C129.477 35.2835 128.933 35.5089 128.532 35.91C128.131 36.3111 127.905 36.8552 127.905 37.4225C127.905 37.9897 128.131 38.5338 128.532 38.9349C128.933 39.336 129.477 39.5614 130.044 39.5614Z" fill="white"/>
<path fill-rule="evenodd" clip-rule="evenodd" d="M125.92 43.8393C125.815 43.6167 125.762 43.3727 125.766 43.1263C125.766 42.1602 126.251 41.1656 127.147 40.474C126.7 40.3363 126.234 40.269 125.766 40.2744C122.914 40.2744 122.201 42.4134 122.201 43.1263C122.201 43.8393 122.914 43.8393 122.914 43.8393H125.92Z" fill="white"/>
<path d="M125.41 39.5614C125.883 39.5614 126.336 39.3736 126.67 39.0393C127.005 38.705 127.192 38.2516 127.192 37.7789C127.192 37.3062 127.005 36.8528 126.67 36.5185C126.336 36.1843 125.883 35.9965 125.41 35.9965C124.937 35.9965 124.484 36.1843 124.15 36.5185C123.815 36.8528 123.627 37.3062 123.627 37.7789C123.627 38.2516 123.815 38.705 124.15 39.0393C124.484 39.3736 124.937 39.5614 125.41 39.5614Z" fill="white"/>
</g>
<path d="M58.4573 22.2329C55.8053 22.2329 53.2618 21.1793 51.3866 19.3041C49.5114 17.4288 48.4578 14.8853 48.4578 12.2333C48.4578 9.58134 49.5114 7.03783 51.3866 5.16259C53.2618 3.28735 55.8053 2.23376 58.4573 2.23376C59.7705 2.23376 61.0708 2.49243 62.284 2.99492C63.4973 3.49742 64.5996 4.23398 65.5281 5.16259C66.4567 6.09104 67.1932 7.19352 67.6957 8.4066C68.1982 9.61984 68.4569 10.9202 68.4569 12.2333C68.4569 13.5465 68.1982 14.8468 67.6957 16.06C67.1932 17.2731 66.4567 18.3754 65.5281 19.3041C64.5996 20.2327 63.4973 20.9692 62.284 21.4717C61.0708 21.9742 59.7705 22.2329 58.4573 22.2329Z" fill="#868A91"/>
<path d="M55.9925 10.0042H53.9224V16.6899H55.9925V10.0042Z" fill="white"/>
<path d="M54.9482 9.12885C55.1928 9.13129 55.4326 9.06086 55.6374 8.92672C55.8419 8.79258 56.0021 8.60068 56.0974 8.37533C56.1927 8.14998 56.2189 7.9014 56.1726 7.66108C56.1264 7.4209 56.0098 7.19968 55.8377 7.02581C55.6655 6.85195 55.4456 6.73324 55.2058 6.68465C54.9659 6.63591 54.7172 6.65974 54.4909 6.75279C54.2646 6.84583 54.071 7.00396 53.9349 7.20732C53.7986 7.41051 53.7259 7.64977 53.7259 7.89438C53.7242 8.05587 53.7548 8.21613 53.8154 8.36586C53.8761 8.51559 53.9659 8.65171 54.0796 8.7666C54.1933 8.88134 54.3285 8.9724 54.4776 9.03458C54.6267 9.09692 54.7867 9.12885 54.9482 9.12885Z" fill="white"/>
<path d="M59.3008 13.1806C59.3008 12.241 59.7332 11.6803 60.5612 11.6803C61.3251 11.6803 61.6888 12.2181 61.6888 13.1806V16.6946H63.7498V12.4564C63.7498 10.6658 62.7353 9.80106 61.3175 9.79953C60.9148 9.79403 60.5175 9.89288 60.1645 10.0865C59.8112 10.28 59.5142 10.5618 59.3023 10.9041V10.0043H57.3162V16.69H59.3023L59.3008 13.1806Z" fill="white"/>
<path d="M69.4413 15.2827H115.204C116.852 15.2827 118.432 15.9374 119.598 17.1027C120.764 18.2679 121.417 19.8484 121.417 21.4963V124.763C121.417 126.411 120.764 127.991 119.598 129.157C118.432 130.323 116.852 130.977 115.204 130.977H68.4925C67.6375 130.977 66.8175 130.637 66.213 130.032C65.6084 129.427 65.2688 128.608 65.2688 127.753V19.4506C65.2691 18.9029 65.3771 18.3607 65.5869 17.8548C65.7968 17.3489 66.1042 16.8894 66.4917 16.5024C66.8791 16.1152 67.3391 15.8083 67.8452 15.5991C68.3513 15.3898 68.8937 15.2823 69.4413 15.2827Z" fill="#3F4249"/>
<path opacity="0.3" d="M69.4413 15.2827H115.204C116.852 15.2827 118.432 15.9374 119.598 17.1027C120.764 18.2679 121.417 19.8484 121.417 21.4963V124.763C121.417 126.411 120.764 127.991 119.598 129.157C118.432 130.323 116.852 130.977 115.204 130.977H69.2533C68.1967 130.977 67.1832 130.556 66.4359 129.809C65.6886 129.062 65.2688 128.049 65.2688 126.992V19.4506C65.2691 18.9029 65.3771 18.3607 65.5869 17.8548C65.7968 17.3489 66.1042 16.8894 66.4917 16.5024C66.8791 16.1152 67.3391 15.8083 67.8452 15.5991C68.3513 15.3898 68.8937 15.2823 69.4413 15.2827Z" fill="black"/>
<path d="M116.953 16.8854H64.2617V128.123H116.953V16.8854Z" fill="white"/>
<path d="M115.946 17.3256H64.917V30.3121H115.946V17.3256Z" fill="url(#paint1_linear)"/>
<path d="M115.942 119.842H64.9124V128.856H115.942V119.842Z" fill="url(#paint2_linear)"/>
<path d="M111.992 127.646H68.8698C66.6972 127.646 64.9372 125.965 64.9372 123.898V22.0862C64.9372 20.0175 66.6987 18.3384 68.8713 18.3384H76.6341C77.0877 18.3319 77.5319 18.4684 77.9036 18.7288C78.2751 18.989 78.5554 19.3598 78.7043 19.7883L79.0603 20.87C79.2091 21.2987 79.4893 21.6697 79.8609 21.9302C80.2324 22.1907 80.6767 22.3276 81.1305 22.3214H99.7393C100.193 22.328 100.637 22.1914 101.009 21.9311C101.38 21.6709 101.661 21.3001 101.809 20.8716L102.165 19.7899C102.314 19.3613 102.595 18.9905 102.966 18.7303C103.338 18.47 103.782 18.3334 104.236 18.34H111.998C114.171 18.34 115.932 20.0206 115.931 22.0877V123.9C115.926 125.968 114.165 127.646 111.992 127.646ZM62.3628 20.5263V125.599C62.3628 127.007 62.9223 128.358 63.9183 129.354C64.9142 130.35 66.265 130.909 67.6735 130.909H113.202C114.611 130.909 115.961 130.35 116.957 129.354C117.954 128.358 118.514 127.007 118.514 125.599V20.5263C118.514 19.1178 117.955 17.767 116.959 16.771C115.963 15.7751 114.612 15.2156 113.204 15.2156H67.675C66.9774 15.2154 66.2867 15.3526 65.6423 15.6194C64.9977 15.8861 64.4121 16.2773 63.9187 16.7704C63.4255 17.2636 63.0341 17.8492 62.7672 18.4937C62.5001 19.1379 62.3628 19.8287 62.3628 20.5263Z" fill="#3F4249"/>
<path d="M111.286 26.2082H107.789C107.767 26.2082 107.745 26.1993 107.729 26.1836C107.714 26.1679 107.705 26.1465 107.705 26.1242C107.705 26.113 107.707 26.102 107.711 26.0918C107.715 26.0816 107.721 26.0722 107.729 26.0643C107.737 26.0565 107.746 26.0503 107.756 26.0461C107.767 26.042 107.778 26.04 107.789 26.0402H111.292C111.303 26.0402 111.314 26.0423 111.324 26.0466C111.335 26.0509 111.344 26.057 111.352 26.0648C111.359 26.0726 111.366 26.0819 111.37 26.0921C111.374 26.1022 111.376 26.1132 111.376 26.1242C111.376 26.1358 111.374 26.1473 111.369 26.1578C111.365 26.1685 111.358 26.178 111.349 26.1859C111.341 26.1937 111.331 26.1998 111.32 26.2036C111.309 26.2074 111.298 26.2091 111.286 26.2082Z" fill="white"/>
<path d="M111.286 27.3587H107.789C107.778 27.3589 107.767 27.3569 107.757 27.3528C107.746 27.3487 107.737 27.3424 107.729 27.3346C107.721 27.3268 107.715 27.3173 107.711 27.3071C107.707 27.2969 107.705 27.2859 107.705 27.2747C107.704 27.2633 107.706 27.2519 107.71 27.2411C107.714 27.2304 107.72 27.2206 107.728 27.2124C107.736 27.204 107.745 27.1974 107.756 27.193C107.766 27.1884 107.778 27.1861 107.789 27.1861H111.292C111.315 27.1861 111.336 27.195 111.352 27.2107C111.367 27.2264 111.376 27.2478 111.376 27.2701C111.377 27.282 111.375 27.294 111.371 27.3053C111.366 27.3164 111.36 27.3265 111.351 27.3349C111.343 27.3433 111.333 27.3497 111.321 27.3539C111.31 27.358 111.298 27.3597 111.286 27.3587Z" fill="white"/>
<path d="M111.286 28.5107H107.789C107.767 28.5107 107.745 28.5018 107.729 28.4861C107.714 28.4703 107.705 28.4489 107.705 28.4266C107.705 28.4155 107.707 28.4045 107.711 28.3942C107.715 28.3838 107.721 28.3745 107.729 28.3667C107.737 28.3589 107.746 28.3527 107.756 28.3486C107.767 28.3444 107.778 28.3424 107.789 28.3426H111.292C111.314 28.3426 111.336 28.3515 111.352 28.3672C111.367 28.3829 111.376 28.4043 111.376 28.4266C111.376 28.4382 111.374 28.4497 111.369 28.4602C111.365 28.4709 111.358 28.4804 111.349 28.4883C111.341 28.4961 111.331 28.5023 111.32 28.5061C111.309 28.5099 111.298 28.5114 111.286 28.5107Z" fill="white"/>
<path d="M70.8235 25.6017L69.4989 26.7567C69.4775 26.7758 69.4604 26.7995 69.4491 26.8257C69.4378 26.8522 69.4323 26.8807 69.4332 26.9095V28.8666C69.4335 28.9005 69.4473 28.9329 69.4712 28.9569C69.4952 28.9809 69.5276 28.9945 69.5615 28.9949H70.3575C70.3916 28.9949 70.4245 28.9815 70.4487 28.9575C70.473 28.9334 70.4869 28.9008 70.4874 28.8666V27.8399C70.4874 27.8057 70.5008 27.773 70.5248 27.7485C70.5488 27.7242 70.5815 27.7105 70.6157 27.71H71.2926C71.3266 27.7105 71.3593 27.7242 71.3833 27.7485C71.4075 27.773 71.4209 27.8057 71.4209 27.8399V28.8666C71.4212 28.9008 71.4351 28.9334 71.4594 28.9575C71.4837 28.9815 71.5165 28.9949 71.5508 28.9949H72.3437C72.3776 28.9945 72.41 28.9809 72.434 28.9569C72.458 28.9329 72.4716 28.9005 72.4721 28.8666V26.9034C72.4719 26.8759 72.4661 26.8488 72.4548 26.8238C72.4435 26.7987 72.427 26.7764 72.4063 26.7582L71.0817 25.6017C71.0458 25.5706 71 25.5535 70.9526 25.5535C70.9051 25.5535 70.8593 25.5706 70.8235 25.6017Z" stroke="white" stroke-width="1.84" stroke-miterlimit="10"/>
<path d="M74.8229 122.827H71.6328C71.6113 122.821 71.5925 122.809 71.5789 122.791C71.5654 122.772 71.5581 122.751 71.5581 122.728C71.5581 122.706 71.5654 122.685 71.5789 122.667C71.5925 122.648 71.6113 122.636 71.6328 122.63H74.8229C74.8444 122.636 74.8634 122.648 74.8768 122.667C74.8903 122.685 74.8976 122.706 74.8976 122.728C74.8976 122.751 74.8903 122.772 74.8768 122.791C74.8634 122.809 74.8444 122.821 74.8229 122.827Z" fill="white" stroke="white" stroke-width="0.45" stroke-miterlimit="10"/>
<path d="M74.8229 123.897H71.6328C71.6113 123.891 71.5925 123.878 71.5789 123.86C71.5654 123.842 71.5581 123.82 71.5581 123.797C71.5581 123.776 71.5654 123.755 71.5789 123.736C71.5925 123.718 71.6113 123.706 71.6328 123.7H74.8229C74.8444 123.706 74.8634 123.718 74.8768 123.736C74.8903 123.755 74.8976 123.776 74.8976 123.797C74.8976 123.82 74.8903 123.842 74.8768 123.86C74.8634 123.878 74.8444 123.891 74.8229 123.897Z" fill="white" stroke="white" stroke-width="0.45" stroke-miterlimit="10"/>
<path d="M74.8235 124.966H71.6334C71.6112 124.96 71.5917 124.948 71.5776 124.93C71.5636 124.911 71.5559 124.89 71.5559 124.867C71.5559 124.844 71.5636 124.823 71.5776 124.804C71.5917 124.786 71.6112 124.774 71.6334 124.768H74.8235C74.845 124.774 74.8639 124.786 74.8774 124.804C74.8908 124.823 74.8982 124.844 74.8982 124.865C74.8982 124.888 74.8908 124.91 74.8774 124.928C74.8639 124.946 74.845 124.959 74.8235 124.965V124.966Z" fill="white" stroke="white" stroke-width="0.45" stroke-miterlimit="10"/>
<path d="M107.578 122.493L109.295 123.661L107.577 125.105" stroke="white" stroke-width="1.8" stroke-miterlimit="10" stroke-linecap="round"/>
<path d="M91.6647 123.247L91.6631 125.31H88.9146V123.247" stroke="white" stroke-width="1.8" stroke-miterlimit="10" stroke-linecap="round"/>
<path d="M88.5022 123.522L90.2898 122.286L92.0758 123.522" stroke="white" stroke-width="1.8" stroke-miterlimit="10" stroke-linecap="round"/>
<path d="M106.497 20.491C106.463 20.5262 106.428 20.5598 106.393 20.5949L106.333 20.6545C106.201 20.5216 106.043 20.416 105.87 20.344C105.696 20.2719 105.51 20.235 105.323 20.235C105.135 20.235 104.949 20.2719 104.776 20.344C104.602 20.416 104.445 20.5216 104.312 20.6545L104.255 20.5949C104.22 20.5598 104.185 20.5262 104.152 20.491H104.159C104.204 20.4528 104.246 20.4116 104.292 20.3734C104.387 20.2973 104.489 20.2318 104.598 20.1778C104.727 20.1146 104.863 20.0689 105.004 20.0418C105.071 20.0296 105.14 20.0235 105.207 20.0143H105.386L105.524 20.025C105.651 20.0397 105.776 20.07 105.896 20.1152C105.984 20.1463 106.068 20.1856 106.148 20.2328C106.234 20.2811 106.315 20.3373 106.39 20.4009C106.428 20.433 106.463 20.4681 106.5 20.5002L106.497 20.491Z" fill="white"/>
<path d="M104.644 20.9845L104.479 20.8195C104.659 20.6352 104.896 20.5165 105.152 20.4818C105.336 20.454 105.524 20.4701 105.7 20.5284C105.876 20.5868 106.036 20.6861 106.167 20.818L106 20.983C105.82 20.8034 105.576 20.7028 105.322 20.7028C105.068 20.7028 104.824 20.8034 104.644 20.983V20.9845Z" fill="white"/>
<path d="M105.835 21.1496L105.67 21.3146C105.624 21.2687 105.57 21.2323 105.51 21.2077C105.45 21.1831 105.386 21.1706 105.321 21.171C105.257 21.1706 105.193 21.1833 105.133 21.2082C105.074 21.2332 105.02 21.2699 104.975 21.3162L104.81 21.1512C104.876 21.0833 104.956 21.0294 105.044 20.9926C105.132 20.9558 105.227 20.9367 105.322 20.9365C105.417 20.9364 105.512 20.9552 105.6 20.9917C105.688 21.0283 105.767 21.082 105.835 21.1496Z" fill="white"/>
<path d="M105.472 21.4643C105.472 21.5048 105.456 21.5438 105.427 21.5723C105.399 21.601 105.36 21.6171 105.319 21.6171C105.279 21.6171 105.24 21.601 105.211 21.5723C105.182 21.5438 105.166 21.5048 105.166 21.4643C105.166 21.4238 105.182 21.3849 105.211 21.3563C105.24 21.3276 105.279 21.3115 105.319 21.3115C105.36 21.3115 105.399 21.3276 105.427 21.3563C105.456 21.3849 105.472 21.4238 105.472 21.4643Z" fill="white"/>
<path d="M68.77 20.806C68.77 20.7205 68.7954 20.6369 68.8429 20.5658C68.8904 20.4946 68.9579 20.4393 69.0369 20.4065C69.1159 20.3738 69.203 20.3652 69.2869 20.3819C69.3706 20.3985 69.4478 20.4398 69.5081 20.5003C69.5686 20.5608 69.6099 20.6378 69.6265 20.7217C69.6432 20.8056 69.6346 20.8925 69.6019 20.9715C69.5692 21.0505 69.5138 21.118 69.4427 21.1655C69.3715 21.213 69.2879 21.2384 69.2024 21.2384C69.0878 21.2384 68.9778 21.1929 68.8967 21.1117C68.8157 21.0306 68.77 20.9206 68.77 20.806Z" fill="white"/>
<path d="M70.1311 20.806C70.1311 20.7204 70.1565 20.6367 70.204 20.5657C70.2517 20.4945 70.3192 20.439 70.3983 20.4063C70.4775 20.3736 70.5644 20.3652 70.6483 20.382C70.7323 20.3988 70.8093 20.4402 70.8696 20.5007C70.9301 20.5614 70.9711 20.6386 70.9876 20.7226C71.0041 20.8066 70.9954 20.8936 70.9624 20.9725C70.9294 21.0515 70.8738 21.1189 70.8026 21.1663C70.7312 21.2136 70.6475 21.2387 70.562 21.2384C70.5051 21.2384 70.449 21.2272 70.3966 21.2054C70.3442 21.1837 70.2967 21.1518 70.2567 21.1116C70.2167 21.0714 70.1849 21.0237 70.1633 20.9713C70.1418 20.9189 70.1308 20.8627 70.1311 20.806Z" fill="white"/>
<path d="M71.4915 20.806C71.4915 20.7205 71.5168 20.6369 71.5643 20.5658C71.6118 20.4946 71.6794 20.4393 71.7584 20.4065C71.8374 20.3738 71.9243 20.3652 72.0082 20.3819C72.0921 20.3985 72.1691 20.4398 72.2296 20.5003C72.2901 20.5608 72.3312 20.6378 72.348 20.7217C72.3646 20.8056 72.3561 20.8925 72.3232 20.9715C72.2905 21.0505 72.2352 21.118 72.164 21.1655C72.093 21.213 72.0094 21.2384 71.9238 21.2384C71.8091 21.2384 71.6992 21.1929 71.6181 21.1117C71.537 21.0306 71.4915 20.9206 71.4915 20.806Z" fill="white"/>
<path d="M72.8511 20.806C72.8511 20.7205 72.8764 20.6369 72.9239 20.5658C72.9715 20.4946 73.039 20.4393 73.118 20.4065C73.197 20.3738 73.2839 20.3652 73.3678 20.3819C73.4517 20.3985 73.5288 20.4398 73.5892 20.5003C73.6497 20.5608 73.6909 20.6378 73.7076 20.7217C73.7242 20.8056 73.7157 20.8925 73.683 20.9715C73.6503 21.0505 73.5948 21.118 73.5238 21.1655C73.4526 21.213 73.369 21.2384 73.2834 21.2384C73.1689 21.2384 73.0589 21.1929 72.9777 21.1117C72.8966 21.0306 72.8511 20.9206 72.8511 20.806Z" fill="white"/>
<path d="M113.185 21.5972H110.435V20.3245H113.185V21.5972ZM110.574 21.4597H113.046V20.4636H110.574V21.4597Z" fill="white"/>
<path d="M112.439 20.54H110.665V21.3818H112.439V20.54Z" fill="white"/>
<path d="M113.433 20.621H113.188V21.3024H113.433V20.621Z" fill="white"/>
<path d="M99.6186 26.6833H81.2451C80.9184 26.6833 80.6538 26.9481 80.6538 27.2746V27.2761C80.6538 27.6026 80.9184 27.8674 81.2451 27.8674H99.6186C99.9451 27.8674 100.21 27.6026 100.21 27.2761V27.2746C100.21 26.9481 99.9451 26.6833 99.6186 26.6833Z" fill="white"/>
<path d="M59.55 75.995L59.8556 78.71C59.888 78.9943 60.022 79.2576 60.233 79.451L62.6515 81.6602C62.6683 81.6756 62.6888 81.6868 62.7109 81.6926C62.7331 81.6983 62.7563 81.6986 62.7786 81.6932C62.8009 81.688 62.8215 81.6773 62.8388 81.6624C62.8561 81.6472 62.8694 81.6281 62.8776 81.6067C62.9525 81.4349 62.9621 81.2414 62.9051 81.0628C62.7737 80.7328 63.5636 81.4906 63.5636 81.4906V83.0276C63.5627 83.0734 63.572 83.119 63.5911 83.1605C63.61 83.2022 63.6381 83.2392 63.6734 83.2686C63.7086 83.2979 63.75 83.319 63.7945 83.3301C63.8389 83.3413 63.8854 83.3423 63.9303 83.3332C63.9978 83.3184 64.0604 83.2863 64.1119 83.2398C64.1634 83.1935 64.2018 83.1346 64.2236 83.0689C64.3443 82.7633 64.4299 81.8466 64.4665 81.376C64.4734 81.2894 64.4577 81.2026 64.421 81.1238C64.3843 81.0451 64.328 80.9773 64.2572 80.9269C64.3498 80.8324 64.4189 80.7175 64.4589 80.5915C64.4989 80.4655 64.5088 80.3318 64.4879 80.2011C64.6564 79.7834 64.7127 79.3289 64.6514 78.8826C64.612 78.4852 64.5121 78.0963 64.355 77.7291L61.9915 75.0891L59.55 75.995Z" fill="#FC9D9D"/>
<g opacity="0.15">
<path opacity="0.15" d="M60.9999 79.0324C60.9739 79.0507 61.3253 79.5534 61.8509 80.0927C62.3764 80.632 62.8684 80.9987 62.8883 80.9742C62.9081 80.9498 62.4574 80.5434 61.938 80.0087C61.4185 79.4739 61.0274 79.011 60.9999 79.0324Z" fill="black"/>
</g>
<g opacity="0.15">
<path opacity="0.15" d="M63.0241 79.6101C62.9996 79.633 63.3082 79.9875 63.7101 80.4015C64.1119 80.8155 64.4602 81.1318 64.4847 81.1089C64.5091 81.086 64.202 80.7315 63.7971 80.316C63.3923 79.9004 63.05 79.5902 63.0241 79.6101Z" fill="black"/>
</g>
<g opacity="0.15">
<path opacity="0.15" d="M63.4166 78.8859C63.3937 78.9134 63.6702 79.1746 63.962 79.5352C64.2538 79.8957 64.4586 80.2181 64.4907 80.1998C64.5227 80.1814 64.3608 79.8285 64.0568 79.4588C63.7527 79.0891 63.4365 78.8614 63.4166 78.8859Z" fill="black"/>
</g>
<g opacity="0.15">
<path opacity="0.15" d="M63.7495 78.1402C63.7266 78.1662 63.9374 78.3831 64.1773 78.6627C64.4172 78.9423 64.6051 79.1806 64.6357 79.1623C64.6662 79.144 64.5195 78.8705 64.272 78.5833C64.0245 78.296 63.7709 78.1158 63.7495 78.1402Z" fill="black"/>
</g>
<path d="M34.3774 39.8668C34.107 39.8561 33.4531 40.2457 32.9275 40.9699L32.9 41.002C32.5257 41.4878 32.1758 40.099 32.1117 39.5826C32.0988 39.5027 32.0684 39.4267 32.0224 39.36C31.9765 39.2934 31.9163 39.238 31.8461 39.1978C31.7759 39.1574 31.6976 39.1333 31.617 39.1274C31.5363 39.1212 31.4552 39.1332 31.3798 39.1625L29.6442 39.9753L29.137 39.9921C29.0157 40.0347 28.9147 40.1207 28.8534 40.2338C28.7922 40.3467 28.7751 40.4784 28.8055 40.6032L29.6366 43.3441L29.8184 44.0928L32.8572 44.2211L33.0222 42.736C33.0742 42.5191 33.3049 42.2166 33.3981 41.9248C33.4817 41.6609 33.6111 41.4137 33.78 41.1945C33.9638 40.9447 34.1733 40.7148 34.4049 40.5085C34.4233 40.4963 34.4446 40.4795 34.4614 40.4703C34.4999 40.4489 34.5339 40.4197 34.5608 40.3847C34.6009 40.344 34.6287 40.2926 34.6413 40.2367C34.6536 40.1808 34.6501 40.1224 34.631 40.0685C34.6118 40.0144 34.5779 39.9669 34.5331 39.9313C34.4883 39.8955 34.4343 39.8732 34.3774 39.8668Z" fill="#FC9D9D"/>
<path d="M33.6316 33.4363C33.6316 33.4363 31.8624 33.0971 29.3216 30.7886C26.7809 28.4801 25.5281 25.3526 25.2256 25.3771C24.9231 25.4015 23.5847 24.8255 21.2242 30.3669C18.8637 35.9083 19.892 37.1504 20.3916 37.126C20.8912 37.1015 24.2615 36.0565 26.3913 36.2383C28.5211 36.4201 31.2803 37.4484 31.2803 37.4484L33.6316 33.4363Z" fill="url(#paint3_linear)"/>
<path d="M37.4495 36.3116L36.8827 37.4697L36.6275 37.9877C36.4596 38.3299 36.1669 38.5948 35.8096 38.7276C35.4522 38.8602 35.0576 38.8509 34.7071 38.7012L30.9028 37.4957L32.9547 32.4233L36.7742 34.3239C37.1267 34.4987 37.3954 34.806 37.5221 35.1785C37.6486 35.5509 37.6225 35.9584 37.4495 36.3116Z" fill="#3F4249"/>
<path d="M35.3293 38.1985L34.1956 40.5865L33.5845 40.4337L29.7527 43.7338L28.5962 41.6193C28.5962 41.6193 30.8879 40.5498 31.2913 39.7172C31.6946 38.8845 31.195 38.7058 31.195 38.7058L32.2507 37.4362L35.3293 38.1985Z" fill="#3F4249"/>
<path d="M21.431 30.4601C20.1766 33.4607 19.6939 36.113 20.3539 36.3926C21.0139 36.6722 22.5646 34.4599 23.819 31.4577C25.0733 28.4556 25.5561 25.8048 24.8961 25.5252C24.2361 25.2456 22.6899 27.4594 21.431 30.4601Z" fill="#3F4249"/>
<path d="M37.6548 37.9509L36.79 37.6591L37.3874 36.4384L38.1681 36.8937L37.6548 37.9509Z" fill="#61656D"/>
<g opacity="0.3">
<path opacity="0.5" d="M31.895 37.8747L34.6894 39.5461L35.0133 38.8663L31.895 37.8747Z" fill="black"/>
</g>
<path d="M36.6917 36.7363C36.678 36.7699 36.1631 36.5835 35.5413 36.3253C34.9195 36.0671 34.426 35.8273 34.4413 35.7952C34.4565 35.7631 34.9699 35.948 35.5917 36.2046C36.2135 36.4613 36.7055 36.7027 36.6917 36.7363Z" fill="#61656D"/>
<path d="M36.3178 37.4986C36.2072 37.4994 36.0976 37.478 35.9954 37.436C35.8976 37.41 35.7815 37.3749 35.6532 37.3352C35.5248 37.2954 35.3935 37.2298 35.2529 37.1702C34.6861 36.9273 34.2522 36.6859 34.2659 36.6553C34.2797 36.6248 34.7426 36.8081 35.3033 37.0495C35.4439 37.1091 35.5753 37.1748 35.6975 37.2221C35.8197 37.2695 35.9312 37.3107 36.0244 37.3489C36.2093 37.4223 36.3224 37.4803 36.3178 37.4986Z" fill="#61656D"/>
<path d="M24.3056 29.8888C24.3056 29.8888 22.7503 28.9858 21.9726 31.0728C21.195 33.1598 22.8129 33.4547 22.8129 33.4547C23.4754 32.342 23.9779 31.1416 24.3056 29.8888Z" fill="white"/>
<path opacity="0.3" d="M25.6963 27.2181C25.6904 27.3511 25.6741 27.4834 25.6474 27.6138C25.6061 27.8675 25.5481 28.2357 25.4625 28.6833L25.2715 29.4121C25.2379 29.5435 25.2012 29.6779 25.1646 29.817C25.1462 29.8872 25.1279 29.9575 25.108 30.0293C25.0882 30.1011 25.0592 30.1714 25.0347 30.2432C24.9339 30.5304 24.8254 30.8314 24.7154 31.1431C24.6879 31.221 24.6589 31.2959 24.6314 31.3799C24.6039 31.4639 24.5641 31.5327 24.5305 31.6137L24.3166 32.0873L24.1012 32.5624C24.0645 32.6404 24.034 32.7152 23.9927 32.7931L23.872 33.0131L23.4137 33.8489C23.377 33.9146 23.3419 33.9818 23.3022 34.0444L23.1815 34.2278L22.9477 34.5761L22.526 35.2025C22.2449 35.5646 22.0081 35.8503 21.8446 36.0489C21.765 36.1578 21.6766 36.2599 21.5803 36.3545C21.6449 36.2379 21.7201 36.1274 21.8049 36.0245L22.4527 35.1521L22.8576 34.5211C22.9309 34.4096 23.0104 34.2919 23.0837 34.1712L23.2013 33.9894C23.2395 33.9268 23.2731 33.8596 23.3098 33.7939L23.7682 32.9597L23.8873 32.7412C23.9286 32.6679 23.9591 32.5884 23.9943 32.512C24.0645 32.3592 24.1364 32.1988 24.2066 32.0399L24.4205 31.5694C24.4541 31.4914 24.4939 31.4166 24.5214 31.3371C24.5489 31.2577 24.5779 31.1844 24.6054 31.1034L24.9308 30.2111C24.9568 30.1393 24.9843 30.0706 25.0057 30.0003L25.0653 29.791C25.1035 29.6519 25.1417 29.519 25.1783 29.3892L25.3831 28.668C25.4762 28.225 25.5526 27.8644 25.6076 27.6077C25.6258 27.4756 25.6555 27.3451 25.6963 27.2181Z" fill="black"/>
<path d="M30.7734 38.6325C30.6823 38.674 30.6104 38.7484 30.5719 38.8409C30.5334 38.9332 30.5311 39.0366 30.5656 39.1306C30.6985 39.5079 30.9139 40.1007 31.0759 40.4597C31.1211 40.5783 31.1885 40.6872 31.2745 40.7806C31.3167 40.8258 31.3705 40.8585 31.43 40.8749C31.4898 40.8914 31.5527 40.8909 31.6121 40.8738C31.6719 40.8443 31.7223 40.7988 31.7579 40.7425C31.7935 40.6862 31.8127 40.6211 31.8138 40.5545C31.815 40.4193 31.7907 40.285 31.742 40.1588C31.6274 39.8058 31.4365 39.2772 31.2638 38.8464C31.2464 38.7995 31.2198 38.7567 31.1854 38.7203C31.1512 38.6841 31.1098 38.6551 31.0641 38.6351C31.0183 38.6151 30.9689 38.6045 30.919 38.6041C30.869 38.6038 30.8195 38.6134 30.7734 38.6325Z" fill="#FC9D9D"/>
<path d="M30.2463 39.3291C30.1555 39.3709 30.0837 39.4453 30.0449 39.5375C30.0062 39.6296 30.0033 39.733 30.037 39.8271C30.1714 40.2045 30.3868 40.7973 30.5488 41.1563C30.5935 41.2749 30.6604 41.3837 30.7458 41.4772C30.7879 41.5227 30.8416 41.5555 30.9014 41.572C30.961 41.5885 31.0241 41.5879 31.0835 41.5703C31.1434 41.5412 31.1941 41.4958 31.2297 41.4394C31.2653 41.383 31.2845 41.3178 31.2852 41.251C31.2871 41.1157 31.2627 40.9814 31.2133 40.8553C31.1003 40.5024 30.9078 39.9738 30.7352 39.543C30.7179 39.4962 30.6915 39.4534 30.6574 39.4171C30.6232 39.3807 30.5819 39.3518 30.5364 39.3318C30.4907 39.3118 30.4414 39.3013 30.3916 39.3008C30.3417 39.3003 30.2922 39.31 30.2463 39.3291Z" fill="#FC9D9D"/>
<path d="M29.7371 39.7722C29.656 39.8056 29.5909 39.8691 29.5556 39.9495C29.5202 40.0298 29.5174 40.1207 29.5477 40.2031C29.6684 40.53 29.8639 41.0434 30.006 41.3551C30.0471 41.458 30.1078 41.5518 30.1848 41.6316C30.2227 41.6758 30.2732 41.7069 30.3296 41.7208C30.3862 41.7346 30.4454 41.7304 30.4994 41.7089C30.5533 41.6874 30.5991 41.6495 30.6304 41.6004C30.6616 41.5515 30.6769 41.4941 30.6737 41.436C30.674 41.3189 30.6517 41.2026 30.608 41.0938C30.5041 40.7882 30.3269 40.3299 30.1756 39.9571C30.1588 39.9159 30.1339 39.8783 30.1024 39.8467C30.071 39.815 30.0337 39.79 29.9924 39.7729C29.9513 39.7556 29.9072 39.7467 29.8626 39.7466C29.818 39.7466 29.7738 39.7553 29.7325 39.7722H29.7371Z" fill="#FC9D9D"/>
<path d="M29.0667 39.9204C28.9855 39.954 28.9204 40.0179 28.8851 40.0984C28.8498 40.179 28.847 40.2701 28.8773 40.3528C28.9995 40.6812 29.1951 41.1976 29.3356 41.5108C29.3769 41.6144 29.4381 41.709 29.5159 41.7889C29.5541 41.8329 29.605 41.8638 29.6615 41.8775C29.718 41.8911 29.7775 41.8868 29.8314 41.8651C29.8853 41.8435 29.9312 41.8054 29.9626 41.7565C29.994 41.7075 30.0092 41.6499 30.0063 41.5918C30.0082 41.474 29.9857 41.357 29.9406 41.2481C29.8367 40.9425 29.6595 40.4842 29.5067 40.1068C29.4898 40.0652 29.4649 40.0273 29.4333 39.9954C29.4016 39.9635 29.364 39.9381 29.3225 39.9207C29.2811 39.9034 29.2366 39.8944 29.1916 39.8944C29.1466 39.8944 29.1022 39.9031 29.0606 39.9204H29.0667Z" fill="#FC9D9D"/>
<path opacity="0.15" d="M31.2454 40.7958C31.2087 40.8111 31.0513 40.5147 30.8925 40.1328C30.7336 39.7508 30.6327 39.4315 30.6694 39.4178C30.7061 39.404 30.8619 39.6989 31.0208 40.0793C31.1797 40.4597 31.2744 40.7836 31.2454 40.7958Z" fill="black"/>
<path opacity="0.15" d="M30.6616 41.3733C30.6265 41.3886 30.4569 41.0463 30.2843 40.6094C30.1116 40.1724 30.0001 39.8073 30.0368 39.792C30.0734 39.7767 30.2415 40.1189 30.4141 40.5559C30.5868 40.9929 30.6983 41.3595 30.6616 41.3733Z" fill="black"/>
<path opacity="0.15" d="M30.0613 41.4513C30.0277 41.4681 29.8413 41.1824 29.6809 40.7943C29.5205 40.4062 29.4456 40.0716 29.4823 40.0594C29.519 40.0472 29.6504 40.365 29.8092 40.7393C29.9681 41.1136 30.0965 41.4329 30.0613 41.4513Z" fill="black"/>
<path d="M39.4638 39.6164C39.3932 39.9908 39.4261 40.3775 39.5586 40.7347C39.7252 41.2135 40.0745 41.6071 40.5301 41.8296C40.9857 42.052 41.5108 42.0852 41.9908 41.9218C42.2128 41.8534 42.4502 41.8528 42.6725 41.92C42.895 41.9872 43.0922 42.1192 43.2391 42.2992C43.5232 42.6428 43.8959 42.9021 44.3168 43.0492C44.7377 43.1962 45.1908 43.2254 45.627 43.1334C47.0708 42.8278 47.963 41.2893 47.494 39.7997C47.3311 39.2708 46.9978 38.8106 46.5459 38.4911C46.0941 38.1717 45.5491 38.0108 44.996 38.0336C44.6246 38.0546 44.2628 38.1596 43.9377 38.3402C43.6126 38.5209 43.3326 38.7729 43.1184 39.0771C42.9627 38.7681 42.7295 38.5049 42.4415 38.3131C42.7373 38.0071 42.9543 37.6337 43.0734 37.225C43.1928 36.8165 43.2108 36.3851 43.126 35.968C43.0661 35.6326 42.9381 35.3131 42.7499 35.0291C42.5618 34.7451 42.3175 34.5025 42.0321 34.3165C41.7467 34.1305 41.4262 34.0047 41.0905 33.9471C40.7547 33.8897 40.4106 33.9014 40.0795 33.9818C38.8359 34.2996 38.0109 35.586 38.2141 36.8846C38.3039 37.4835 38.6014 38.0319 39.0544 38.4338C39.22 38.5781 39.3448 38.7631 39.4168 38.9706C39.4886 39.178 39.5048 39.4006 39.4638 39.6164Z" fill="#21252B"/>
<path d="M51.8356 44.0607C52.3352 43.6941 51.2321 43.3839 51.1221 42.7789L50.7524 38.252L50.4025 36.5057H45.9123L45.2385 43.2281C45.211 43.8804 45.1193 44.4717 44.4746 44.5909C44.4731 44.5909 48.2819 46.6657 51.8356 44.0607Z" fill="#FC9D9D"/>
<path opacity="0.15" d="M45.3533 41.3794C45.6969 41.4513 46.0472 41.4872 46.3983 41.4863C47.1411 41.4767 47.8599 41.2228 48.444 40.7637C49.0753 40.698 49.6844 40.4946 50.2285 40.1678C50.2545 40.151 50.2728 40.1244 50.2794 40.094C50.2859 40.0638 50.2803 40.032 50.2636 40.0059C50.2482 39.9808 50.2235 39.963 50.1947 39.9561C50.1662 39.9492 50.1359 39.9539 50.1109 39.9692C49.6919 40.2221 49.229 40.3936 48.7465 40.4749C48.7129 40.4749 48.6778 40.4948 48.6426 40.4948C48.5387 40.5116 48.4501 40.5116 48.363 40.5299H48.3279C48.2709 40.5464 48.2115 40.5531 48.1522 40.5498H47.6816C46.9636 40.5116 46.1111 40.3496 45.5167 39.9891L45.3533 41.3794Z" fill="black"/>
<path d="M42.8412 39.7615L46.2895 37.9831L45.8312 29.6091L42.8687 29.9896L41.4693 31.1675C41.4693 31.1675 41.5487 31.6381 41.5686 31.9161C41.6449 32.9764 40.7695 33.5295 39.7688 34.0856L42.8412 39.7615Z" fill="#21252B"/>
<path d="M43.5535 36.3743L43.7277 31.088C43.7315 30.861 43.7801 30.637 43.8706 30.4288C43.961 30.2205 44.0916 30.0323 44.255 29.8746C44.4183 29.717 44.6111 29.5931 44.8224 29.5099C45.0337 29.427 45.2593 29.3863 45.4862 29.3906L50.6487 29.5877C50.8238 29.5961 50.9955 29.6391 51.1541 29.7138C51.3125 29.7886 51.4548 29.894 51.5726 30.0238C51.6904 30.1536 51.7814 30.3055 51.8404 30.4705C51.8995 30.6355 51.9255 30.8106 51.9168 30.9857L51.7289 36.6753C51.6555 38.9074 49.842 40.6583 47.6634 40.5849L47.3578 40.5697C45.1944 40.4948 43.4985 38.6064 43.5535 36.3743Z" fill="#FC9D9D"/>
<path d="M75.84 113.077L72.894 116.312L75.699 118.867L78.6449 115.631L75.84 113.077Z" fill="#FC9D9D"/>
<path opacity="0.15" d="M75.0034 113.998L77.7627 116.56L78.2561 115.278L75.7811 113.092L75.0034 113.998Z" fill="black"/>
<path d="M78.2061 114.688L80.6629 116.925C80.7577 117.011 80.8347 117.115 80.8893 117.23C80.9438 117.346 80.975 117.472 80.9811 117.599C80.9871 117.727 80.9677 117.855 80.924 117.975C80.8804 118.095 80.8135 118.206 80.727 118.3L73.1231 126.647C73.0499 126.726 72.9485 126.773 72.8408 126.778C72.7329 126.784 72.6275 126.746 72.5471 126.674C72.2625 126.413 72.0668 126.069 71.9873 125.69C71.9079 125.313 71.9487 124.92 72.1041 124.566L73.198 122.121L73.5188 118.044C73.5352 117.838 73.6216 117.645 73.7639 117.496C73.9061 117.347 74.0953 117.252 74.2995 117.226L76.1635 116.988C76.2984 116.97 76.4269 116.919 76.5369 116.839C76.6469 116.759 76.735 116.653 76.7929 116.529L77.595 114.809C77.6213 114.755 77.6598 114.707 77.7076 114.67C77.7554 114.633 77.8112 114.608 77.8705 114.596C77.9298 114.584 77.9909 114.587 78.0491 114.603C78.1074 114.619 78.1612 114.648 78.2061 114.688Z" fill="#61656D"/>
<path d="M80.727 118.299L73.1231 126.647C73.0499 126.726 72.9484 126.774 72.8407 126.778C72.7329 126.785 72.6275 126.746 72.5471 126.675C72.444 126.586 72.3544 126.484 72.2812 126.369L80.7713 117.049C80.9113 117.23 80.9835 117.454 80.9754 117.682C80.9673 117.911 80.8795 118.129 80.727 118.299Z" fill="#3F4249"/>
<path d="M74.5439 118.885C74.5603 118.868 74.5691 118.844 74.5684 118.82C74.5679 118.806 74.5649 118.793 74.5592 118.781C74.5536 118.768 74.5456 118.757 74.5357 118.748C74.5256 118.739 74.514 118.732 74.5012 118.728C74.4885 118.723 74.4749 118.721 74.4614 118.722L73.4592 118.733C73.4458 118.733 73.4326 118.736 73.4204 118.742C73.4083 118.747 73.3973 118.755 73.3882 118.765C73.3792 118.775 73.3721 118.786 73.3674 118.799C73.3628 118.811 73.3608 118.825 73.3614 118.838C73.362 118.852 73.3653 118.865 73.3709 118.877C73.3766 118.889 73.3847 118.9 73.3946 118.909C73.4045 118.918 73.4161 118.925 73.4288 118.93C73.4415 118.935 73.4549 118.937 73.4684 118.936L74.4721 118.927C74.499 118.919 74.5236 118.905 74.5439 118.885Z" fill="white"/>
<path d="M74.492 119.567C74.5084 119.549 74.5172 119.526 74.5165 119.501C74.516 119.488 74.5129 119.475 74.5074 119.463C74.5019 119.451 74.494 119.44 74.4842 119.431C74.4744 119.422 74.4628 119.414 74.4503 119.41C74.4378 119.405 74.4245 119.404 74.411 119.404L73.4073 119.413C73.3937 119.413 73.3804 119.416 73.368 119.422C73.3556 119.428 73.3445 119.436 73.3353 119.445C73.326 119.456 73.3186 119.466 73.3139 119.48C73.309 119.492 73.3067 119.506 73.3072 119.518C73.3076 119.532 73.3107 119.546 73.3162 119.558C73.3217 119.57 73.3297 119.582 73.3396 119.591C73.3494 119.601 73.361 119.607 73.3736 119.613C73.3863 119.617 73.3998 119.619 73.4134 119.619L74.4172 119.61C74.4453 119.602 74.4711 119.587 74.492 119.567Z" fill="white"/>
<path d="M74.4402 120.248C74.4534 120.233 74.4622 120.216 74.4649 120.196C74.4677 120.176 74.4644 120.157 74.4557 120.138C74.4469 120.121 74.433 120.106 74.4159 120.097C74.3986 120.088 74.3787 120.083 74.3592 120.085L73.3554 120.094C73.3284 120.095 73.303 120.108 73.2848 120.128C73.2665 120.147 73.2567 120.173 73.2576 120.201C73.2596 120.228 73.2717 120.253 73.2915 120.271C73.3116 120.289 73.3375 120.299 73.3646 120.299L74.3683 120.288C74.3824 120.286 74.396 120.282 74.4084 120.276C74.4206 120.268 74.4314 120.259 74.4402 120.248Z" fill="white"/>
<path d="M42.273 31.0559C42.4435 31.4062 42.7166 31.6964 43.0563 31.8875C43.3959 32.0785 43.7857 32.1616 44.1736 32.1254C44.8238 32.0745 45.4331 31.7882 45.8873 31.3202C46.3415 30.8521 46.6095 30.2346 46.641 29.5831H46.6654C46.9241 29.9261 47.2634 30.1999 47.6535 30.3802C48.0434 30.5603 48.4718 30.6413 48.9006 30.6159C49.1498 30.6014 49.3953 30.5499 49.6294 30.4631C49.935 33.3186 51.6981 33.5417 51.6981 33.5417C51.7149 33.8151 51.7454 34.3636 51.7836 35.0145C51.8111 35.456 51.2886 35.6699 51.5407 35.9892L51.4032 35.9984C51.4781 36.1053 51.281 36.2413 51.3344 36.3635C51.4215 36.5661 51.4733 36.7822 51.4872 37.0022C51.499 37.1837 51.484 37.3658 51.4429 37.543C51.3372 37.9758 51.0784 38.3558 50.7141 38.6125C50.1886 38.996 49.6111 39.5139 49.5301 40.1861C49.4293 41.0188 50.0434 42.5466 52.1167 42.5054C52.7141 42.4947 57.4992 42.3663 56.9247 38.0991C56.885 37.8012 56.6466 37.3429 56.5107 37.0999C56.395 36.8825 56.3273 36.643 56.3121 36.3972C56.2754 35.8105 56.6375 35.3919 57.0149 35.013C57.2281 34.8204 57.395 34.5821 57.5033 34.316C57.6115 34.0498 57.6581 33.7627 57.6397 33.476C57.6197 33.0829 57.476 32.7063 57.2291 32.3998C56.982 32.0931 56.6445 31.8727 56.2647 31.7694C56.1593 31.7405 56.0644 31.6819 55.9914 31.6007C55.9182 31.5194 55.8699 31.4189 55.8522 31.3111C55.6887 30.3776 54.607 27.9911 51.2687 28.3685C51.3283 27.3861 50.3429 25.9469 48.8854 25.9072C47.6387 25.872 46.6196 26.8498 45.9672 27.6825C45.7816 27.9207 45.5399 28.1094 45.2638 28.2317C44.9877 28.3541 44.6855 28.4062 44.3844 28.3838C44.1155 28.3608 43.7244 28.231 43.347 28.2508C41.8925 28.3303 41.2417 29.5984 41.477 31.1919L42.273 31.0559Z" fill="#21252B"/>
<path d="M51.1914 37.0542L51.3778 34.9336C51.6375 32.9871 53.9537 33.2606 53.6206 35.1964C53.2876 37.1321 51.4022 37.0297 51.4022 37.0297L51.1914 37.0542Z" fill="#FC9D9D"/>
<path d="M43.1851 86.4758L48.8059 97.4486C49.3044 98.4212 49.9485 99.3119 50.7157 100.09L72.6704 116.716L76.2088 113.077L75.616 112.438C74.3846 111.098 72.8827 109.731 71.772 108.29C70.3618 106.457 68.6568 104.538 67.3414 102.897C64.6157 99.4928 61.2454 96.4295 57.4106 94.7703L54.2892 78.1523C53.7835 75.3745 52.5047 72.7956 50.5995 70.7118L43.1851 86.4758Z" fill="#21252B"/>
<path d="M38.6845 123.775H34.3088V127.568H38.6845V123.775Z" fill="#FC9D9D"/>
<path opacity="0.15" d="M37.574 123.775L37.6412 127.764L38.6312 127.599V123.801L37.574 123.775Z" fill="black"/>
<path d="M39.088 126.609V129.932C39.0881 130.06 39.0631 130.185 39.0142 130.305C38.9655 130.422 38.8937 130.529 38.8032 130.619C38.7129 130.709 38.6055 130.781 38.4873 130.83C38.3692 130.879 38.2425 130.903 38.1148 130.903H26.8151C26.7074 130.903 26.6043 130.861 26.5282 130.784C26.4521 130.708 26.409 130.604 26.4087 130.497C26.4099 130.111 26.5323 129.735 26.7584 129.422C26.9844 129.108 27.3029 128.873 27.6691 128.751L30.2175 127.91L33.4488 125.402C33.6109 125.275 33.812 125.208 34.0179 125.212C34.2239 125.217 34.4218 125.293 34.5779 125.428L36.0095 126.65C36.1135 126.737 36.2382 126.798 36.3717 126.824C36.5054 126.852 36.6435 126.844 36.7734 126.803L38.5853 126.238C38.6434 126.219 38.7048 126.216 38.7646 126.227C38.8244 126.236 38.881 126.26 38.9299 126.297C38.9786 126.332 39.0183 126.38 39.0458 126.435C39.0733 126.488 39.0877 126.548 39.088 126.609Z" fill="#61656D"/>
<path d="M38.1206 130.903H26.8148C26.7073 130.903 26.6041 130.861 26.5279 130.784C26.4518 130.708 26.4089 130.604 26.4084 130.497C26.406 130.36 26.4236 130.222 26.4604 130.089H39.0694C39.0318 130.315 38.9163 130.52 38.7428 130.668C38.5694 130.818 38.3492 130.9 38.1206 130.903Z" fill="#3F4249"/>
<path d="M33.5193 126.726C33.5434 126.725 33.5667 126.716 33.585 126.7C33.6039 126.681 33.6145 126.655 33.6145 126.627C33.6145 126.601 33.6039 126.575 33.585 126.555L32.902 125.82C32.8826 125.802 32.8565 125.791 32.8295 125.791C32.8023 125.791 32.7763 125.802 32.7569 125.82C32.7474 125.83 32.7398 125.84 32.7346 125.854C32.7296 125.866 32.7268 125.878 32.7268 125.892C32.7268 125.906 32.7296 125.918 32.7346 125.93C32.7398 125.944 32.7474 125.955 32.7569 125.964L33.4398 126.7C33.4641 126.714 33.4913 126.723 33.5193 126.726Z" fill="white"/>
<path d="M32.98 127.146C33.0044 127.146 33.0277 127.137 33.0457 127.12C33.0646 127.101 33.0753 127.075 33.0753 127.047C33.0753 127.021 33.0646 126.995 33.0457 126.975L32.3627 126.24C32.3534 126.231 32.3421 126.224 32.3299 126.219C32.3175 126.213 32.3044 126.211 32.2909 126.211C32.2776 126.211 32.2645 126.213 32.2521 126.219C32.2397 126.224 32.2286 126.231 32.2191 126.24C32.2098 126.25 32.2023 126.262 32.1971 126.274C32.1921 126.286 32.1895 126.299 32.1895 126.312C32.1895 126.326 32.1921 126.338 32.1971 126.35C32.2023 126.363 32.2098 126.375 32.2191 126.384L32.9021 127.12C32.926 127.134 32.9525 127.143 32.98 127.146Z" fill="white"/>
<path d="M32.4413 127.564C32.4656 127.564 32.4891 127.555 32.507 127.538C32.5259 127.518 32.5366 127.492 32.5366 127.464C32.5366 127.438 32.5259 127.412 32.507 127.393L31.8241 126.658C31.814 126.647 31.8022 126.639 31.7891 126.635C31.7759 126.629 31.7619 126.626 31.7477 126.626C31.7335 126.626 31.7194 126.629 31.7064 126.635C31.6933 126.639 31.6814 126.647 31.6713 126.658C31.6612 126.668 31.6532 126.679 31.6479 126.693C31.6424 126.707 31.6396 126.72 31.6396 126.734C31.6396 126.748 31.6424 126.762 31.6479 126.775C31.6532 126.789 31.6612 126.8 31.6713 126.81L32.3542 127.545C32.3667 127.555 32.3808 127.561 32.3958 127.564C32.4109 127.567 32.4263 127.567 32.4413 127.564Z" fill="white"/>
<path opacity="0.3" d="M53.3268 87.7379L55.4657 96.5197C55.4657 96.5197 62.0445 98.1896 69.3689 107.751L75.1578 114.168L76.212 113.083L75.6161 112.438C74.3847 111.098 72.8828 109.731 71.7721 108.29C70.3619 106.457 68.6569 104.538 67.3415 102.897C64.6158 99.4929 61.2455 96.4296 57.4107 94.7704L53.9501 75.937L52.0083 81.0598L53.3268 87.7379Z" fill="black"/>
<path d="M55.3848 75.3902C55.4336 73.8181 54.6438 71.6913 53.8722 70.1452L53.0014 66.1729L41.1134 67.4929L41.2204 71.3124L34.3452 93.1602C34.0136 94.2069 33.8442 95.2982 33.8425 96.3961V123.972H39.0447L39.468 120.86C39.8591 117.983 40.3526 115.12 40.9652 112.281C41.7566 108.614 43.1042 101.424 42.3402 97.3082L52.6102 83.2859C54.1946 80.9377 55.2916 78.2151 55.3848 75.3902Z" fill="#21252B"/>
<path opacity="0.15" d="M53.0781 34.3666C53.059 34.393 53.031 34.4116 52.9992 34.4188C52.9674 34.4262 52.9341 34.4217 52.9054 34.4063C52.851 34.3644 52.7888 34.334 52.7224 34.3168C52.6561 34.2993 52.5869 34.2955 52.5189 34.3055C52.3899 34.3548 52.2856 34.453 52.2286 34.5789C52.1336 34.7734 52.0844 34.9873 52.085 35.2038L52.0743 35.4269C52.0743 35.6117 51.8222 35.5674 51.8237 35.4269V35.2252C51.8117 34.9587 51.8742 34.6941 52.004 34.4613C52.0453 34.3692 52.1059 34.287 52.1819 34.2205C52.2578 34.1541 52.3473 34.1049 52.444 34.0763C52.5429 34.0577 52.6446 34.0601 52.7426 34.0833C52.8403 34.1064 52.9323 34.1498 53.0124 34.2107C53.0385 34.2265 53.0588 34.25 53.0706 34.278C53.0825 34.3059 53.0851 34.3369 53.0781 34.3666Z" fill="black"/>
<path d="M52.2653 36.3301C52.2632 36.2565 52.2394 36.1851 52.1969 36.1249C52.1546 36.0649 52.0953 36.0186 52.0265 35.9919C51.9579 35.9653 51.8829 35.9595 51.8111 35.9752C51.7392 35.9909 51.6735 36.0275 51.6223 36.0805C51.5709 36.1333 51.5366 36.2001 51.5231 36.2725C51.5097 36.3449 51.5179 36.4196 51.5468 36.4875C51.5755 36.5552 51.6238 36.6129 51.6852 36.6534C51.7468 36.6939 51.8189 36.7154 51.8925 36.7151C51.9929 36.7131 52.0884 36.6716 52.1582 36.5995C52.2281 36.5273 52.2665 36.4305 52.2653 36.3301Z" fill="url(#paint4_linear)"/>
<path opacity="0.15" d="M51.6816 36.6663C51.744 36.7162 51.8236 36.7399 51.9032 36.732C51.9534 36.7315 52.0031 36.7206 52.0491 36.7003C52.0951 36.6799 52.1365 36.6504 52.1705 36.6135C52.2048 36.5766 52.2311 36.5332 52.2479 36.4857C52.2647 36.4383 52.2715 36.3879 52.2683 36.3378C52.2621 36.2771 52.243 36.2186 52.2124 36.1661C52.1819 36.1134 52.1405 36.0677 52.0911 36.0322C52.1331 36.0959 52.1592 36.1687 52.1675 36.2446C52.1705 36.2991 52.1628 36.3538 52.1444 36.4053C52.1261 36.457 52.0977 36.5043 52.0609 36.5446C52.0239 36.5851 51.9794 36.6177 51.9298 36.6407C51.8801 36.6637 51.8263 36.6765 51.7718 36.6785C51.7534 36.6586 51.7183 36.6586 51.6816 36.6663Z" fill="black"/>
<path d="M52.392 48.201C52.4164 48.201 52.4164 47.8954 52.4989 47.4004C52.6095 46.7638 52.8298 46.1513 53.1498 45.59C53.5149 44.9269 54.0176 44.4349 54.4698 44.2455C54.922 44.056 55.2444 44.1538 55.2459 44.1217C55.1807 44.0848 55.107 44.0648 55.032 44.0637C54.8278 44.0443 54.6217 44.0725 54.4301 44.1462C53.9381 44.3204 53.3927 44.8368 53.0184 45.5212C52.6879 46.0969 52.4755 46.7326 52.3935 47.3913C52.3293 47.8893 52.3751 48.2025 52.392 48.201Z" fill="#263238"/>
<path d="M44.7035 44.481L33.4756 53.5852L32.9806 44.0089H29.679L28.527 57.197C28.4762 57.654 28.5486 58.1163 28.7367 58.536C28.9247 58.9555 29.2216 59.3171 29.5965 59.5834C29.93 59.8219 30.3158 59.9775 30.7216 60.0369C31.1272 60.0965 31.5414 60.0583 31.9295 59.9257L40.4119 56.8869L44.7035 44.481Z" fill="url(#paint5_linear)"/>
<g opacity="0.2">
<path opacity="0.2" d="M43.714 45.9904C39.7508 49.622 36.272 54.5003 35.1399 58.7049C36.8938 58.1304 38.5546 57.5728 39.65 57.116C39.65 57.116 39.3215 55.3834 39.5201 54.3659C39.7646 53.1192 40.3345 52.227 42.5574 48.1401" fill="black"/>
</g>
<path d="M45.0566 44.2976L52.6957 43.2816C53.8925 43.1219 55.1054 43.4195 56.092 44.1151C57.0789 44.8108 57.7668 45.8532 58.0186 47.0339L60.8069 60.1135L62.7931 75.6346L59.4487 76.0929L56.3533 62.5916L54.5383 58.795L53.2167 63.4182L53.675 65.6029C53.6995 65.7051 53.7027 65.8113 53.6845 65.9148C53.6663 66.0183 53.6272 66.117 53.5696 66.2049C53.5094 66.2911 53.4326 66.3642 53.3437 66.4202C53.2547 66.4759 53.1554 66.5135 53.0517 66.5303L41.0568 68.3927C40.9486 68.4098 40.838 68.4033 40.7327 68.373C40.6275 68.3429 40.53 68.2902 40.4473 68.2184C40.3647 68.1466 40.2987 68.0575 40.2541 67.9576C40.2095 67.8575 40.1872 67.7491 40.189 67.6395L40.8337 59.785C40.8337 59.785 37.7109 55.0839 40.8337 50.5005L44.5173 44.6474C44.5764 44.5535 44.6553 44.4734 44.7485 44.4131C44.8415 44.3526 44.9468 44.3131 45.0566 44.2976Z" fill="url(#paint6_linear)"/>
<g opacity="0.2">
<path opacity="0.2" d="M53.1652 63.3707L54.4852 58.7476C53.6679 55.8952 53.2859 53.4476 52.5617 50.6059C52.4976 50.3507 52.0469 50.0482 51.8956 49.8419C51.8006 49.6988 51.6537 49.5981 51.4861 49.5608C51.0568 49.486 50.8445 49.8404 50.7131 50.172C50.0332 51.8526 50.2226 53.7394 50.4228 55.5392C50.7447 58.4267 51.0665 61.3148 51.3884 64.2034L51.3089 66.8007L52.9987 66.5165C52.9987 66.5165 53.8252 66.3515 53.6602 65.5265L53.1652 63.3707Z" fill="black"/>
</g>
<g opacity="0.2">
<path opacity="0.2" d="M33.5111 53.5256C33.5432 53.5607 33.1643 53.9152 32.9 54.4789C32.6356 55.0427 32.5944 55.5591 32.5409 55.5484C32.4874 55.5377 32.4722 55.003 32.7609 54.4071C33.0497 53.8113 33.4912 53.4935 33.5111 53.5256Z" fill="black"/>
</g>
<path d="M52.873 51.9367C52.9394 51.9977 53.0139 52.0492 53.0946 52.0895C53.3057 52.2235 53.5262 52.3419 53.7546 52.444C54.098 52.6053 54.4754 52.6813 54.8546 52.6655C55.2916 52.6426 55.7301 52.4287 56.1304 52.1629C56.4908 51.8989 56.8695 51.661 57.264 51.4509C57.5813 51.2859 57.9433 51.2265 58.2968 51.2813C58.5348 51.3195 58.7553 51.4306 58.9278 51.5991C59.0454 51.7213 59.0806 51.813 59.0974 51.8069C59.0787 51.7143 59.0347 51.6286 58.9706 51.5594C58.8025 51.362 58.5724 51.2274 58.3182 51.1774C57.9407 51.1023 57.5491 51.156 57.2059 51.3302C56.8014 51.536 56.4141 51.774 56.0478 52.0422C55.6537 52.3034 55.2442 52.5005 54.8439 52.5326C54.4852 52.5531 54.1266 52.4909 53.7958 52.3508C53.2199 52.1109 52.8853 51.9031 52.873 51.9367Z" fill="#FAFAFA"/>
<path d="M40.1973 51.6174C40.1973 51.6174 40.2125 51.6587 40.2553 51.7275C40.3186 51.828 40.393 51.9213 40.4769 52.0055C40.7904 52.3172 41.1819 52.5389 41.6105 52.6472C42.2426 52.8121 42.9053 52.8209 43.5416 52.6732C44.2597 52.5204 45.0022 52.2148 45.7875 51.9505C47.1219 51.4601 48.5691 51.3631 49.9569 51.6709C51.0264 51.9093 51.6146 52.2591 51.6284 52.2271C51.5972 52.1996 51.5622 52.177 51.5245 52.1598C51.4224 52.1006 51.3173 52.0465 51.2097 51.9979C50.8177 51.8139 50.4082 51.6696 49.9875 51.567C49.3597 51.4109 48.7136 51.3409 48.067 51.3592C47.2741 51.3848 46.4903 51.5359 45.7448 51.8069C44.9534 52.0819 44.2169 52.3844 43.5187 52.5372C42.9006 52.6901 42.2548 52.6938 41.6349 52.5479C41.2186 52.4527 40.8334 52.2535 40.5151 51.9689C40.2981 51.7565 40.211 51.6083 40.1973 51.6174Z" fill="#FAFAFA"/>
<path d="M37.815 50.3278C37.764 50.5275 37.7536 50.7353 37.7844 50.9389C37.8271 51.4333 37.9682 51.9142 38.1997 52.3533C38.4312 52.7922 38.748 53.1804 39.132 53.495C39.2822 53.6348 39.4588 53.7434 39.6514 53.8143C39.6652 53.7929 39.4711 53.6615 39.1931 53.4155C38.488 52.7574 38.026 51.8804 37.8822 50.9267C37.8287 50.5616 37.8333 50.3278 37.815 50.3278Z" fill="#FAFAFA"/>
<path opacity="0.3" d="M39.4685 120.853C39.8596 117.976 40.3531 115.113 40.9657 112.275C41.7571 108.608 43.1047 101.418 42.3408 97.3021L52.6107 83.2798C54.1874 80.9391 55.2844 78.2105 55.3745 75.3916C55.4234 73.8195 54.6335 71.6928 53.862 70.1466L53.0431 66.4111L51.1761 66.8389L51.3411 70.4721C51.3411 70.4721 52.7711 72.8203 52.5267 76.3419C52.3388 79.0508 51.3579 81.4785 49.7766 83.6846L40.1101 96.8895C40.1101 96.8895 41.4577 102.848 39.8718 110.182C38.9518 114.369 38.2971 118.61 37.9116 122.879L37.8169 123.959L39.0391 123.93L39.4685 120.853Z" fill="black"/>
<g opacity="0.3">
<path opacity="0.3" d="M53.5761 81.2859C53.1051 82.4507 52.5395 83.5747 51.8848 84.6471C51.5655 85.1879 51.211 85.7074 50.852 86.2223C50.6717 86.482 50.4792 86.7295 50.2867 86.9862L49.726 87.7348L48.5893 89.2153L48.0118 89.9502C47.8223 90.1977 47.6329 90.4452 47.4388 90.6912C46.6749 91.6766 45.8927 92.6514 45.0723 93.594C45.7262 92.5245 46.4198 91.4856 47.1272 90.4574C47.8346 89.4292 48.5893 88.4285 49.3364 87.4247L49.9063 86.6822L50.1904 86.3124L50.4716 85.9427C50.8474 85.4523 51.2049 84.945 51.5578 84.4347C52.2606 83.408 52.9333 82.3584 53.5761 81.2859Z" fill="black"/>
</g>
<path d="M129.79 103.181C129.07 102.907 128.413 102.493 127.854 101.964C127.295 101.435 126.845 100.802 126.531 100.099C126.218 99.3965 126.045 98.6388 126.024 97.8696C126.002 97.1001 126.132 96.3343 126.407 95.6154C126.962 94.164 128.071 92.9923 129.49 92.3583C130.908 91.7244 132.521 91.6798 133.973 92.2344C134.692 92.5089 135.349 92.9225 135.908 93.4513C136.468 93.98 136.917 94.6139 137.232 95.3164C137.545 96.0191 137.717 96.7767 137.739 97.546C137.76 98.3152 137.63 99.0813 137.355 99.8001C136.801 101.252 135.691 102.423 134.272 103.057C132.854 103.691 131.241 103.736 129.79 103.181Z" fill="url(#paint7_linear)"/>
<path d="M7.54418 69.2789C6.21849 69.2789 4.94689 68.7523 4.00942 67.8148C3.07195 66.8772 2.54517 65.6057 2.54517 64.2799C2.54517 62.9538 3.07211 61.6818 4.00988 60.7439C4.94765 59.8061 6.21956 59.2794 7.5457 59.2794C8.87169 59.2798 10.1433 59.8068 11.0808 60.7445C12.0181 61.6823 12.5447 62.9539 12.5447 64.2799C12.5447 64.9365 12.4155 65.5866 12.1641 66.1933C11.9128 66.7999 11.5445 67.3511 11.08 67.8153C10.6157 68.2796 10.0645 68.6478 9.45777 68.8988C8.85107 69.15 8.20083 69.2791 7.54418 69.2789Z" fill="url(#paint8_linear)"/>
<path d="M20.3339 116.149C18.5254 116.58 16.6199 116.274 15.0367 115.3C13.4534 114.326 12.3219 112.763 11.8912 110.955C11.4605 109.146 11.7658 107.241 12.7399 105.658C13.7142 104.074 15.2773 102.943 17.0858 102.512C18.8941 102.081 20.7996 102.387 22.3829 103.361C23.9661 104.335 25.0977 105.898 25.5285 107.706C25.959 109.515 25.6538 111.42 24.6796 113.004C23.7055 114.587 22.1422 115.718 20.3339 116.149Z" fill="#868A91"/>
<path d="M14.6436 108.211C14.6437 107.551 14.8573 106.91 15.2525 106.381C15.6477 105.853 16.2032 105.467 16.836 105.281C17.4687 105.094 18.1449 105.118 18.7632 105.347C19.3816 105.577 19.909 106.001 20.2667 106.555C20.6244 107.109 20.7931 107.764 20.7475 108.423C20.702 109.081 20.4448 109.706 20.0142 110.206C19.5837 110.706 19.0029 111.053 18.3588 111.195C17.7147 111.338 17.0418 111.268 16.4407 110.996C15.9281 111.114 15.3761 111.216 15.1223 111.262C15.0574 111.273 14.9907 111.269 14.9279 111.249C14.8651 111.229 14.8081 111.194 14.7619 111.147C14.7156 111.1 14.6815 111.043 14.6624 110.98C14.6434 110.917 14.64 110.85 14.6525 110.785C14.7006 110.537 14.8073 110.004 14.93 109.505C14.7407 109.1 14.6429 108.658 14.6436 108.211ZM17.1467 106.503C16.9667 106.599 16.8249 106.748 16.7177 106.947C16.6826 107.018 16.6764 107.099 16.7004 107.175C16.7243 107.25 16.7765 107.313 16.846 107.351C16.9156 107.389 16.997 107.398 17.0732 107.377C17.1494 107.356 17.2145 107.306 17.2547 107.238C17.3146 107.128 17.3761 107.073 17.4348 107.042C17.4959 107.009 17.579 106.989 17.6992 106.989C17.7905 106.989 17.8976 107.021 17.9762 107.086C18.0459 107.143 18.1066 107.234 18.1066 107.396C18.1066 107.476 18.0761 107.512 17.867 107.677C17.6837 107.821 17.3936 108.055 17.3936 108.517C17.3936 108.598 17.4258 108.675 17.4831 108.733C17.5404 108.79 17.6181 108.822 17.6992 108.822C17.7802 108.822 17.858 108.79 17.9153 108.733C17.9726 108.675 18.0048 108.598 18.0048 108.517C18.0048 108.366 18.0716 108.293 18.2443 108.157L18.2789 108.13C18.4366 108.009 18.7177 107.793 18.7177 107.396C18.7177 107.051 18.5747 106.786 18.3641 106.613C18.1756 106.462 17.9411 106.379 17.6992 106.378C17.5138 106.378 17.3236 106.408 17.1467 106.503ZM18.1066 109.637C18.1066 109.529 18.0637 109.425 17.9873 109.349C17.9109 109.273 17.8072 109.23 17.6992 109.23C17.5911 109.23 17.4875 109.273 17.4111 109.349C17.3347 109.425 17.2918 109.529 17.2918 109.637C17.2918 109.745 17.3347 109.849 17.4111 109.925C17.4875 110.002 17.5911 110.044 17.6992 110.044C17.8072 110.044 17.9109 110.002 17.9873 109.925C18.0637 109.849 18.1066 109.745 18.1066 109.637Z" fill="white"/>
<path d="M17.6587 111.674C18.2232 112.199 18.9657 112.49 19.7365 112.489C20.1847 112.489 20.6108 112.392 20.995 112.218C21.5084 112.337 22.0629 112.438 22.3183 112.483C22.3833 112.495 22.4501 112.49 22.5129 112.47C22.5757 112.45 22.6327 112.415 22.6789 112.367C22.725 112.32 22.759 112.263 22.7778 112.199C22.7966 112.136 22.7997 112.069 22.7869 112.004C22.7023 111.577 22.6086 111.151 22.5057 110.727C22.6869 110.339 22.7846 109.917 22.7924 109.489C22.8003 109.061 22.7181 108.636 22.5513 108.242C22.3845 107.848 22.1368 107.493 21.8241 107.201C21.5114 106.908 21.1409 106.685 20.7363 106.545C21.0275 107.075 21.1747 107.673 21.1631 108.278C21.1515 108.883 20.9816 109.474 20.6702 109.993C20.3589 110.512 19.917 110.94 19.3886 111.235C18.8602 111.53 18.2638 111.681 17.6587 111.674Z" fill="white"/>
<path d="M152.729 78.4763C151.312 78.4763 149.95 77.9129 148.948 76.9102C147.946 75.9073 147.382 74.5472 147.382 73.129C147.382 71.7107 147.946 70.3506 148.948 69.3478C149.95 68.3449 151.312 67.7816 152.729 67.7816C154.147 67.7816 155.507 68.3449 156.511 69.3478C157.513 70.3506 158.077 71.7107 158.077 73.129C158.077 74.5472 157.513 75.9073 156.511 76.9102C155.507 77.9129 154.147 78.4763 152.729 78.4763Z" fill="#868A91"/>
<path d="M105.85 1.28949L106.205 1.93576L106.851 2.29021L106.205 2.64314L105.85 3.2894L105.497 2.64314L104.851 2.29021L105.497 1.93576L105.85 1.28949Z" fill="url(#paint9_linear)"/>
<path d="M142.37 33.2728L142.723 33.919L143.369 34.2735L142.723 34.6264L142.37 35.2742L142.015 34.6264L141.369 34.2735L142.015 33.919L142.37 33.2728Z" fill="url(#paint10_linear)"/>
<path d="M137.245 59.6183L137.598 60.2646L138.245 60.6191L137.598 60.972L137.245 61.6183L136.891 60.972L136.245 60.6191L136.891 60.2646L137.245 59.6183Z" fill="url(#paint11_linear)"/>
<path d="M109.438 9.85291L109.792 10.4992L110.438 10.8536L109.792 11.2066L109.438 11.8528L109.085 11.2066L108.438 10.8536L109.085 10.4992L109.438 9.85291Z" fill="url(#paint12_linear)"/>
<path d="M31.7265 5.91278L32.1803 6.74391L33.0114 7.19768L32.1803 7.65144L31.7265 8.48256L31.2713 7.65144L30.4417 7.19768L31.2713 6.74391L31.7265 5.91278Z" fill="#DADDDF"/>
<path d="M23.8647 76.0273L24.2177 76.6751L24.8655 77.028L24.2177 77.381L23.8647 78.0288L23.5118 77.381L22.864 77.028L23.5118 76.6751L23.8647 76.0273Z" fill="url(#paint13_linear)"/>
<path d="M50.2087 110.279L50.5617 110.926L51.2079 111.278L50.5617 111.633L50.2087 112.279L49.8543 111.633L49.208 111.278L49.8543 110.926L50.2087 110.279Z" fill="url(#paint14_linear)"/>
<path d="M99.3693 4.39551L100.187 5.88818L101.679 6.70403L100.187 7.52141L99.3693 9.01408L98.5535 7.52141L97.0608 6.70403L98.5535 5.88818L99.3693 4.39551Z" fill="url(#paint15_linear)"/>
<path d="M25.6365 0L26.7228 1.98769L28.712 3.0755L26.7228 4.16331L25.6365 6.151L24.5487 4.16331L22.561 3.0755L24.5487 1.98769L25.6365 0Z" fill="#DADDDF"/>
<path d="M131.86 64.5532L132.676 66.0459L134.17 66.8617L132.676 67.6791L131.86 69.1718L131.042 67.6791L129.55 66.8617L131.044 66.0459L131.86 64.5532Z" fill="url(#paint16_linear)"/>
<path d="M30.4922 65.8688L31.3065 67.3584L32.7962 68.1727L31.3065 68.987L30.4922 70.4767L29.6779 68.987L28.1882 68.1727L29.6779 67.3584L30.4922 65.8688Z" fill="url(#paint17_linear)"/>
<path d="M150.085 96.0004L150.899 97.49L152.389 98.3044L150.899 99.1202L150.085 100.61L149.271 99.1187L147.781 98.3044L149.271 97.49L150.085 96.0004Z" fill="url(#paint18_linear)"/>
<path d="M79.8301 55.858H112.423V67.4844H111.189V70.5251L108.39 67.4844H79.8301V55.858Z" fill="#D8D4D4"/>
<path d="M111.609 56.6728H80.6448V66.4508H111.609V56.6728Z" fill="white"/>
<path d="M97.7564 59.1174H83.0894V59.9322H97.7564V59.1174Z" fill="#00B4F5"/>
<path d="M109.164 61.5618H83.0894V62.3766H109.164V61.5618Z" fill="#D8D4D4"/>
<path d="M109.164 63.1916H83.0894V64.0064H109.164V63.1916Z" fill="#D8D4D4"/>
<path d="M101.016 35.4871H68.4224V48.4052H69.657V51.7838L72.4553 48.4052H101.016V35.4871Z" fill="#D8D4D4"/>
<path d="M100.201 36.3021H69.2368V47.7098H100.201V36.3021Z" fill="white"/>
<path d="M86.3484 39.5614H71.6814V40.3762H86.3484V39.5614Z" fill="#00B4F5"/>
<path d="M97.7561 42.0058H71.6814V42.8206H97.7561V42.0058Z" fill="#D8D4D4"/>
<path d="M97.7561 43.6356H71.6814V44.4504H97.7561V43.6356Z" fill="#D8D4D4"/>
<path d="M80.6448 94.9702H113.238V106.597H112.004V109.637L109.205 106.597H80.6448V94.9702Z" fill="#D8D4D4"/>
<path d="M112.423 95.7849H81.4597V105.563H112.423V95.7849Z" fill="white"/>
<path d="M98.5713 98.2295H83.9043V99.0443H98.5713V98.2295Z" fill="#00B4F5"/>
<path d="M109.979 100.674H83.9043V101.489H109.979V100.674Z" fill="#D8D4D4"/>
<path d="M109.979 102.304H83.9043V103.118H109.979V102.304Z" fill="#D8D4D4"/>
<path d="M101.016 74.5993H68.4224V87.5173H69.657V90.896L72.4553 87.5173H101.016V74.5993Z" fill="#D8D4D4"/>
<path d="M100.201 75.4141H69.2368V86.8218H100.201V75.4141Z" fill="white"/>
<path d="M86.3484 78.6735H71.6814V79.4884H86.3484V78.6735Z" fill="#00B4F5"/>
<path d="M97.7561 81.118H71.6814V81.9329H97.7561V81.118Z" fill="#D8D4D4"/>
<path d="M97.7561 82.7477H71.6814V83.5625H97.7561V82.7477Z" fill="#D8D4D4"/>
<defs>
<linearGradient id="paint0_linear" x1="128.035" y1="30.5981" x2="128.035" y2="48.7834" gradientUnits="userSpaceOnUse">
<stop stop-color="#00B4F5"/>
<stop offset="1" stop-color="#0042DE"/>
</linearGradient>
<linearGradient id="paint1_linear" x1="90.4314" y1="17.3256" x2="90.4314" y2="30.3121" gradientUnits="userSpaceOnUse">
<stop stop-color="#00B4F5"/>
<stop offset="1" stop-color="#0042DE"/>
</linearGradient>
<linearGradient id="paint2_linear" x1="90.427" y1="119.842" x2="90.427" y2="128.856" gradientUnits="userSpaceOnUse">
<stop stop-color="#00B4F5"/>
<stop offset="1" stop-color="#0042DE"/>
</linearGradient>
<linearGradient id="paint3_linear" x1="26.6829" y1="25.3702" x2="26.6829" y2="37.4484" gradientUnits="userSpaceOnUse">
<stop stop-color="#00B4F5"/>
<stop offset="1" stop-color="#0042DE"/>
</linearGradient>
<linearGradient id="paint4_linear" x1="51.8911" y1="35.9666" x2="51.8911" y2="36.7151" gradientUnits="userSpaceOnUse">
<stop stop-color="#00B4F5"/>
<stop offset="1" stop-color="#0042DE"/>
</linearGradient>
<linearGradient id="paint5_linear" x1="36.6074" y1="44.0089" x2="36.6074" y2="60.0642" gradientUnits="userSpaceOnUse">
<stop stop-color="#00B4F5"/>
<stop offset="1" stop-color="#0042DE"/>
</linearGradient>
<linearGradient id="paint6_linear" x1="51.1194" y1="43.2394" x2="51.1194" y2="76.0929" gradientUnits="userSpaceOnUse">
<stop stop-color="#00B4F5"/>
<stop offset="1" stop-color="#0042DE"/>
</linearGradient>
<linearGradient id="paint7_linear" x1="131.881" y1="91.8484" x2="131.881" y2="103.567" gradientUnits="userSpaceOnUse">
<stop stop-color="#00B4F5"/>
<stop offset="1" stop-color="#0042DE"/>
</linearGradient>
<linearGradient id="paint8_linear" x1="7.54494" y1="59.2794" x2="7.54494" y2="69.2789" gradientUnits="userSpaceOnUse">
<stop stop-color="#00B4F5"/>
<stop offset="1" stop-color="#0042DE"/>
</linearGradient>
<linearGradient id="paint9_linear" x1="105.851" y1="1.28949" x2="105.851" y2="3.2894" gradientUnits="userSpaceOnUse">
<stop stop-color="#00B4F5"/>
<stop offset="1" stop-color="#0042DE"/>
</linearGradient>
<linearGradient id="paint10_linear" x1="142.369" y1="33.2728" x2="142.369" y2="35.2742" gradientUnits="userSpaceOnUse">
<stop stop-color="#00B4F5"/>
<stop offset="1" stop-color="#0042DE"/>
</linearGradient>
<linearGradient id="paint11_linear" x1="137.245" y1="59.6183" x2="137.245" y2="61.6183" gradientUnits="userSpaceOnUse">
<stop stop-color="#00B4F5"/>
<stop offset="1" stop-color="#0042DE"/>
</linearGradient>
<linearGradient id="paint12_linear" x1="109.438" y1="9.85291" x2="109.438" y2="11.8528" gradientUnits="userSpaceOnUse">
<stop stop-color="#00B4F5"/>
<stop offset="1" stop-color="#0042DE"/>
</linearGradient>
<linearGradient id="paint13_linear" x1="23.8647" y1="76.0273" x2="23.8647" y2="78.0288" gradientUnits="userSpaceOnUse">
<stop stop-color="#00B4F5"/>
<stop offset="1" stop-color="#0042DE"/>
</linearGradient>
<linearGradient id="paint14_linear" x1="50.208" y1="110.279" x2="50.208" y2="112.279" gradientUnits="userSpaceOnUse">
<stop stop-color="#00B4F5"/>
<stop offset="1" stop-color="#0042DE"/>
</linearGradient>
<linearGradient id="paint15_linear" x1="99.3701" y1="4.39551" x2="99.3701" y2="9.01408" gradientUnits="userSpaceOnUse">
<stop stop-color="#00B4F5"/>
<stop offset="1" stop-color="#0042DE"/>
</linearGradient>
<linearGradient id="paint16_linear" x1="131.86" y1="64.5532" x2="131.86" y2="69.1718" gradientUnits="userSpaceOnUse">
<stop stop-color="#00B4F5"/>
<stop offset="1" stop-color="#0042DE"/>
</linearGradient>
<linearGradient id="paint17_linear" x1="30.4922" y1="65.8688" x2="30.4922" y2="70.4767" gradientUnits="userSpaceOnUse">
<stop stop-color="#00B4F5"/>
<stop offset="1" stop-color="#0042DE"/>
</linearGradient>
<linearGradient id="paint18_linear" x1="150.085" y1="96.0004" x2="150.085" y2="100.61" gradientUnits="userSpaceOnUse">
<stop stop-color="#00B4F5"/>
<stop offset="1" stop-color="#0042DE"/>
</linearGradient>
<clipPath id="clip0">
<rect width="11.4077" height="11.4077" fill="white" transform="translate(122.201 33.8575)"/>
</clipPath>
</defs>
</svg>
