<svg width="597" height="373" viewBox="0 0 597 373" fill="none" xmlns="http://www.w3.org/2000/svg">
<path d="M482.582 1.10229H101.867V266.098H482.582V1.10229Z" fill="white" stroke="#B2B6BB" stroke-width="1.94" stroke-miterlimit="10"/>
<path d="M482.375 1H101.604V25.2808H482.375V1Z" fill="url(#paint0)"/>
<path d="M366.121 41.7334H120.138V207.796H366.121V41.7334Z" fill="#DADDDF"/>
<path d="M243.132 141.803C253.251 141.803 261.455 134.175 261.455 124.766C261.455 115.356 253.251 107.728 243.132 107.728C233.013 107.728 224.809 115.356 224.809 124.766C224.809 134.175 233.013 141.803 243.132 141.803Z" fill="url(#paint1)"/>
<path d="M250.384 125.229L238.713 118.961V131.493L250.384 125.229Z" fill="white"/>
<path d="M469.765 42.4532H378.435V77.2666H469.765V42.4532Z" fill="url(#paint2)"/>
<path opacity="0.6" d="M469.765 42.4532H378.435V77.2666H469.765V42.4532Z" fill="white"/>
<path d="M417.319 48.1925H384.404V71.5267H417.319V48.1925Z" fill="white"/>
<path d="M462.157 50.3638H423.899C423.824 50.3796 423.749 50.3796 423.679 50.3638C423.604 50.3485 423.535 50.3179 423.475 50.2743C423.42 50.2306 423.37 50.1754 423.34 50.1128C423.305 50.0501 423.29 49.981 423.29 49.9114C423.29 49.8418 423.305 49.7731 423.34 49.71C423.37 49.6474 423.42 49.5922 423.475 49.5485C423.535 49.5054 423.604 49.4748 423.679 49.459C423.749 49.4437 423.824 49.4437 423.899 49.459H462.157C462.231 49.4437 462.306 49.4437 462.381 49.459C462.451 49.4748 462.521 49.5054 462.581 49.5485C462.636 49.5922 462.686 49.6474 462.716 49.71C462.75 49.7731 462.765 49.8418 462.765 49.9114C462.765 49.981 462.75 50.0501 462.716 50.1128C462.686 50.1754 462.636 50.2306 462.581 50.2743C462.521 50.3179 462.451 50.3485 462.381 50.3638C462.306 50.3796 462.231 50.3796 462.157 50.3638Z" fill="#F4F4F4"/>
<path d="M462.367 56.4894H424.104C423.975 56.4894 423.845 56.4407 423.75 56.3534C423.66 56.2667 423.605 56.1484 423.605 56.0254C423.605 55.9024 423.66 55.7841 423.75 55.6974C423.845 55.6101 423.975 55.5614 424.104 55.5614H462.367C462.502 55.5614 462.627 55.6101 462.721 55.6974C462.816 55.7841 462.866 55.9024 462.866 56.0254C462.866 56.1484 462.816 56.2667 462.721 56.3534C462.627 56.4407 462.502 56.4894 462.367 56.4894Z" fill="#F4F4F4"/>
<path d="M445.91 62.6087H424.104C423.975 62.6087 423.845 62.5599 423.75 62.4732C423.66 62.3859 423.605 62.2681 423.605 62.1447C423.605 62.0217 423.66 61.9038 423.75 61.8166C423.845 61.7298 423.975 61.6807 424.104 61.6807H445.91C446.045 61.6807 446.17 61.7298 446.265 61.8166C446.359 61.9038 446.409 62.0217 446.409 62.1447C446.409 62.2681 446.359 62.3859 446.265 62.4732C446.17 62.5599 446.045 62.6087 445.91 62.6087Z" fill="#F4F4F4"/>
<path d="M399.252 50.582H402.48L411.198 69.1417H407.52L405.524 64.6921H396.133L394.092 69.1417H390.53L399.252 50.582ZM404.242 61.8199L400.814 54.4517L397.421 61.8199H404.242Z" fill="#DADDDF"/>
<path d="M469.765 89.1306H378.435V123.944H469.765V89.1306Z" fill="url(#paint3)"/>
<path opacity="0.6" d="M469.765 89.1306H378.435V123.944H469.765V89.1306Z" fill="white"/>
<path d="M417.319 94.8711H384.404V118.205H417.319V94.8711Z" fill="white"/>
<path d="M462.157 97.0468H423.899C423.769 97.0468 423.639 96.998 423.545 96.9108C423.455 96.824 423.4 96.7057 423.4 96.5828C423.4 96.4598 423.455 96.342 423.545 96.2547C423.639 96.1675 423.769 96.1188 423.899 96.1188H462.157C462.292 96.1188 462.416 96.1675 462.511 96.2547C462.606 96.342 462.656 96.4598 462.656 96.5828C462.656 96.7057 462.606 96.824 462.511 96.9108C462.416 96.998 462.292 97.0468 462.157 97.0468Z" fill="#F4F4F4"/>
<path d="M462.367 103.167H424.104C423.975 103.167 423.845 103.118 423.75 103.031C423.66 102.944 423.605 102.826 423.605 102.703C423.605 102.58 423.66 102.462 423.75 102.375C423.845 102.288 423.975 102.239 424.104 102.239H462.367C462.502 102.239 462.627 102.288 462.721 102.375C462.816 102.462 462.866 102.58 462.866 102.703C462.866 102.826 462.816 102.944 462.721 103.031C462.627 103.118 462.502 103.167 462.367 103.167Z" fill="#F4F4F4"/>
<path d="M445.907 109.268H424.101C424.027 109.284 423.952 109.284 423.882 109.268C423.807 109.253 423.737 109.222 423.677 109.179C423.622 109.135 423.573 109.08 423.543 109.017C423.508 108.954 423.493 108.886 423.493 108.816C423.493 108.746 423.508 108.677 423.543 108.615C423.573 108.552 423.622 108.497 423.677 108.453C423.737 108.41 423.807 108.379 423.882 108.364C423.952 108.348 424.027 108.348 424.101 108.363H445.907C446.017 108.387 446.117 108.445 446.187 108.527C446.257 108.609 446.296 108.711 446.296 108.816C446.296 108.921 446.257 109.023 446.187 109.105C446.117 109.187 446.017 109.245 445.907 109.268Z" fill="#F4F4F4"/>
<path d="M399.252 97.2593H402.48L411.198 115.819H407.52L405.524 111.369H396.133L394.092 115.819H390.53L399.252 97.2593ZM404.242 108.497L400.814 101.129L397.421 108.497H404.242Z" fill="#DADDDF"/>
<path d="M469.765 135.814H378.435V170.627H469.765V135.814Z" fill="url(#paint4)"/>
<path opacity="0.6" d="M469.765 135.814H378.435V170.627H469.765V135.814Z" fill="white"/>
<path d="M417.319 141.548H384.404V164.882H417.319V141.548Z" fill="white"/>
<path d="M462.157 143.724H423.899C423.769 143.724 423.639 143.675 423.545 143.588C423.455 143.501 423.4 143.383 423.4 143.26C423.4 143.137 423.455 143.019 423.545 142.932C423.639 142.845 423.769 142.796 423.899 142.796H462.157C462.292 142.796 462.416 142.845 462.511 142.932C462.606 143.019 462.656 143.137 462.656 143.26C462.656 143.383 462.606 143.501 462.511 143.588C462.416 143.675 462.292 143.724 462.157 143.724Z" fill="#F4F4F4"/>
<path d="M462.367 149.844H424.104C423.975 149.844 423.845 149.795 423.75 149.708C423.66 149.621 423.605 149.503 423.605 149.38C423.605 149.257 423.66 149.139 423.75 149.052C423.845 148.965 423.975 148.916 424.104 148.916H462.367C462.502 148.916 462.627 148.965 462.721 149.052C462.816 149.139 462.866 149.257 462.866 149.38C462.866 149.503 462.816 149.621 462.721 149.708C462.627 149.795 462.502 149.844 462.367 149.844Z" fill="#F4F4F4"/>
<path d="M445.907 155.964H424.101C424.027 155.979 423.952 155.979 423.882 155.964C423.807 155.948 423.737 155.918 423.677 155.875C423.622 155.831 423.573 155.776 423.543 155.713C423.508 155.65 423.493 155.581 423.493 155.512C423.493 155.442 423.508 155.373 423.543 155.31C423.573 155.248 423.622 155.193 423.677 155.149C423.737 155.106 423.807 155.075 423.882 155.059C423.952 155.044 424.027 155.044 424.101 155.059H445.907C446.017 155.083 446.117 155.14 446.187 155.222C446.257 155.305 446.296 155.406 446.296 155.512C446.296 155.617 446.257 155.719 446.187 155.801C446.117 155.883 446.017 155.941 445.907 155.964Z" fill="#F4F4F4"/>
<path d="M399.252 143.942H402.48L411.198 162.502H407.52L405.524 158.057H396.133L394.092 162.502H390.53L399.252 143.942ZM404.242 155.203L400.814 147.835L397.405 155.203H404.242Z" fill="#DADDDF"/>
<path d="M469.765 182.491H378.435V217.304H469.765V182.491Z" fill="url(#paint5)"/>
<path opacity="0.6" d="M469.765 182.491H378.435V217.304H469.765V182.491Z" fill="white"/>
<path d="M417.319 188.23H384.404V211.564H417.319V188.23Z" fill="white"/>
<path d="M462.157 190.406H423.899C423.769 190.406 423.639 190.358 423.545 190.27C423.455 190.184 423.4 190.065 423.4 189.942C423.4 189.819 423.455 189.701 423.545 189.614C423.639 189.527 423.769 189.478 423.899 189.478H462.157C462.292 189.478 462.416 189.527 462.511 189.614C462.606 189.701 462.656 189.819 462.656 189.942C462.656 190.065 462.606 190.184 462.511 190.27C462.416 190.358 462.292 190.406 462.157 190.406Z" fill="#F4F4F4"/>
<path d="M462.367 196.527H424.104C423.975 196.527 423.845 196.478 423.75 196.391C423.66 196.304 423.605 196.186 423.605 196.063C423.605 195.94 423.66 195.822 423.75 195.735C423.845 195.648 423.975 195.599 424.104 195.599H462.367C462.502 195.599 462.627 195.648 462.721 195.735C462.816 195.822 462.866 195.94 462.866 196.063C462.866 196.186 462.816 196.304 462.721 196.391C462.627 196.478 462.502 196.527 462.367 196.527Z" fill="#F4F4F4"/>
<path d="M445.91 202.647H424.104C423.975 202.647 423.845 202.598 423.75 202.511C423.66 202.424 423.605 202.306 423.605 202.183C423.605 202.06 423.66 201.941 423.75 201.855C423.845 201.767 423.975 201.719 424.104 201.719H445.91C446.045 201.719 446.17 201.767 446.265 201.855C446.359 201.941 446.409 202.06 446.409 202.183C446.409 202.306 446.359 202.424 446.265 202.511C446.17 202.598 446.045 202.647 445.91 202.647Z" fill="#F4F4F4"/>
<path d="M399.252 190.62H402.48L411.198 209.179H407.52L405.524 204.73H396.133L394.092 209.179H390.53L399.252 190.62ZM404.242 201.858L400.814 194.489L397.421 201.858H404.242Z" fill="#DADDDF"/>
<path d="M139.053 251.964C148.219 251.964 155.65 245.055 155.65 236.532C155.65 228.009 148.219 221.1 139.053 221.1C129.887 221.1 122.457 228.009 122.457 236.532C122.457 245.055 129.887 251.964 139.053 251.964Z" fill="url(#paint6)"/>
<path d="M147.598 243.645C147.598 238.578 143.775 234.472 139.055 234.472C134.334 234.472 130.517 238.578 130.517 243.645C133.063 245.171 136.028 245.983 139.057 245.983C142.087 245.983 145.052 245.171 147.598 243.645Z" fill="#DADDDF"/>
<path d="M139.056 235.712C141.619 235.712 143.697 233.78 143.697 231.396C143.697 229.013 141.619 227.081 139.056 227.081C136.493 227.081 134.416 229.013 134.416 231.396C134.416 233.78 136.493 235.712 139.056 235.712Z" fill="white"/>
<path d="M306.365 221.243H166.862V223.563H306.365V221.243Z" fill="#B2B6BB"/>
<path d="M256.188 231.623H166.724V233.943H256.188V231.623Z" fill="#B2B6BB"/>
<path d="M172.383 241.807L174.134 245.101L178.046 245.63L175.212 248.196L175.881 251.815L172.383 250.108L168.885 251.815L169.553 248.196L166.724 245.63L170.636 245.101L172.383 241.807Z" fill="url(#paint7)"/>
<path d="M191.813 241.807L193.56 245.101L197.472 245.63L194.643 248.196L195.311 251.815L191.813 250.108L188.316 251.815L188.984 248.196L186.15 245.63L190.062 245.101L191.813 241.807Z" fill="url(#paint8)"/>
<path d="M211.236 241.807L212.988 245.101L216.9 245.63L214.065 248.196L214.734 251.815L211.236 250.108L207.738 251.815L208.407 248.196L205.578 245.63L209.49 245.101L211.236 241.807Z" fill="url(#paint9)"/>
<path d="M230.665 241.807L232.411 245.101L236.323 245.63L233.494 248.196L234.163 251.815L230.665 250.108L227.167 251.815L227.836 248.196L225.006 245.63L228.913 245.101L230.665 241.807Z" fill="url(#paint10)"/>
<path d="M250.094 241.807L251.846 245.101L255.758 245.63L252.923 248.196L253.592 251.815L250.094 250.108L246.596 251.815L247.265 248.196L244.436 245.63L248.348 245.101L250.094 241.807Z" fill="#DADDDF"/>
<path d="M250.045 250.108L246.547 251.815L247.211 248.196L244.381 245.63L248.293 245.101L250.045 241.807V250.108Z" fill="url(#paint11)"/>
<path d="M117.927 16.7665C120.08 16.7665 121.824 15.1439 121.824 13.1427C121.824 11.141 120.08 9.51892 117.927 9.51892C115.775 9.51892 114.03 11.141 114.03 13.1427C114.03 15.1439 115.775 16.7665 117.927 16.7665Z" fill="white"/>
<path d="M132.352 16.7665C134.504 16.7665 136.249 15.1439 136.249 13.1427C136.249 11.141 134.504 9.51892 132.352 9.51892C130.2 9.51892 128.455 11.141 128.455 13.1427C128.455 15.1439 130.2 16.7665 132.352 16.7665Z" fill="white"/>
<path d="M146.779 16.7665C148.932 16.7665 150.677 15.1439 150.677 13.1427C150.677 11.141 148.932 9.51892 146.779 9.51892C144.627 9.51892 142.882 11.141 142.882 13.1427C142.882 15.1439 144.627 16.7665 146.779 16.7665Z" fill="white"/>
<path d="M596.047 368.2H0.748489C0.54989 368.2 0.359771 368.125 0.219055 367.995C0.0788385 367.865 0 367.689 0 367.504C0 367.318 0.0788385 367.142 0.219055 367.012C0.359771 366.882 0.54989 366.808 0.748489 366.808H596.047C596.247 366.808 596.436 366.882 596.576 367.012C596.716 367.142 596.796 367.318 596.796 367.504C596.796 367.689 596.716 367.865 596.576 367.995C596.436 368.125 596.247 368.2 596.047 368.2Z" fill="#B2B6BB"/>
<path d="M84.6692 337.226H127.847C130.082 337.226 132.226 338.113 133.806 339.693C135.387 341.273 136.275 343.419 136.275 345.654C136.261 347.932 135.348 350.11 133.733 351.715C132.119 353.32 129.935 354.22 127.658 354.22H84.6692V337.226Z" fill="white"/>
<path d="M174.77 344.212V346.774C174.777 348.09 174.453 349.393 173.826 350.551C173.248 351.658 172.382 352.584 171.319 353.238C170.257 353.893 169.037 354.245 167.79 354.264H83.291C83.0128 354.252 82.7503 354.132 82.5609 353.931C82.3708 353.729 82.2688 353.459 82.2776 353.182V352.798C82.2688 352.521 82.3708 352.25 82.5609 352.049C82.7503 351.847 83.0128 351.728 83.291 351.715H134.802C135.078 351.35 135.32 350.96 135.526 350.551C136.024 349.537 136.283 348.423 136.282 347.29V344.03C136.281 343.445 136.209 342.865 136.068 342.299C135.844 341.386 135.439 340.53 134.878 339.781H83.2658C82.9876 339.769 82.7252 339.649 82.5357 339.448C82.3456 339.246 82.2437 338.976 82.2525 338.699V338.315C82.2437 338.038 82.3456 337.767 82.5357 337.564C82.7252 337.361 82.9876 337.242 83.2658 337.232H168.218C169.681 337.268 171.091 337.785 172.229 338.705C173.367 339.624 174.17 340.895 174.512 342.318C174.679 342.935 174.766 343.57 174.77 344.212Z" fill="#868A91"/>
<path opacity="0.2" d="M174.77 344.212V346.774C174.777 348.09 174.453 349.393 173.826 350.551C173.248 351.658 172.382 352.584 171.319 353.238C170.257 353.893 169.037 354.245 167.79 354.264H83.291C83.0128 354.252 82.7503 354.132 82.5609 353.931C82.3708 353.729 82.2688 353.459 82.2776 353.182V352.798C82.2688 352.521 82.3708 352.25 82.5609 352.049C82.7503 351.847 83.0128 351.728 83.291 351.715H134.802C135.078 351.35 135.32 350.96 135.526 350.551C136.024 349.537 136.283 348.423 136.282 347.29V344.03C136.281 343.445 136.209 342.865 136.068 342.299C135.844 341.386 135.439 340.53 134.878 339.781H83.2658C82.9876 339.769 82.7252 339.649 82.5357 339.448C82.3456 339.246 82.2437 338.976 82.2525 338.699V338.315C82.2437 338.038 82.3456 337.767 82.5357 337.564C82.7252 337.361 82.9876 337.242 83.2658 337.232H168.218C169.681 337.268 171.091 337.785 172.229 338.705C173.367 339.624 174.17 340.895 174.512 342.318C174.679 342.935 174.766 343.57 174.77 344.212Z" fill="white"/>
<path opacity="0.1" d="M174.519 342.261H136.068C135.844 341.348 135.439 340.492 134.878 339.743H83.2658C82.9876 339.731 82.7252 339.611 82.5357 339.41C82.3456 339.208 82.2437 338.938 82.2525 338.661V338.277C82.2437 338 82.3456 337.729 82.5357 337.526C82.7252 337.323 82.9876 337.204 83.2658 337.194H168.218C169.679 337.227 171.089 337.742 172.228 338.661C173.367 339.573 174.172 340.839 174.519 342.261Z" fill="black"/>
<path opacity="0.1" d="M84.6692 345.723L90.9256 346.006L84.6692 346.182V345.723Z" fill="black"/>
<path opacity="0.1" d="M84.6692 348.398L99.5549 348.681L84.6692 348.857V348.398Z" fill="black"/>
<path d="M122.164 367.457H78.5893C76.7747 367.457 75.0344 366.733 73.7516 365.455C72.4682 364.171 71.7476 362.428 71.7476 360.615C71.7476 358.909 72.4242 357.279 73.6276 356.077C74.8317 354.868 76.465 354.195 78.1676 354.195H122.164V367.457Z" fill="#868A91"/>
<path opacity="0.2" d="M122.164 367.457H78.5893C76.7747 367.457 75.0344 366.733 73.7516 365.455C72.4682 364.171 71.7476 362.428 71.7476 360.615C71.7476 358.909 72.4242 357.279 73.6276 356.077C74.8317 354.868 76.465 354.195 78.1676 354.195H122.164V367.457Z" fill="black"/>
<path d="M170.245 367.457H120.521C119.64 367.457 118.769 367.28 117.955 366.947C117.142 366.607 116.403 366.116 115.781 365.493C115.158 364.87 114.664 364.133 114.327 363.315C113.991 362.503 113.818 361.634 113.818 360.753C113.829 359.022 114.526 357.361 115.756 356.14C116.986 354.919 118.649 354.239 120.382 354.239H170.245V367.457Z" fill="#F4F4F4"/>
<path d="M110.582 367.469H171.862C172.412 367.469 172.857 367.029 172.857 366.481C172.857 365.933 172.412 365.487 171.862 365.487H110.582C110.033 365.487 109.588 365.933 109.588 366.481C109.588 367.029 110.033 367.469 110.582 367.469Z" fill="#868A91"/>
<path d="M110.582 356.19H171.862C172.412 356.19 172.857 355.75 172.857 355.202C172.857 354.654 172.412 354.208 171.862 354.208H110.582C110.033 354.208 109.588 354.654 109.588 355.202C109.588 355.75 110.033 356.19 110.582 356.19Z" fill="#868A91"/>
<path opacity="0.2" d="M110.582 367.469H171.862C172.412 367.469 172.857 367.029 172.857 366.481C172.857 365.933 172.412 365.487 171.862 365.487H110.582C110.033 365.487 109.588 365.933 109.588 366.481C109.588 367.029 110.033 367.469 110.582 367.469Z" fill="black"/>
<path opacity="0.2" d="M110.582 356.19H171.862C172.412 356.19 172.857 355.75 172.857 355.202C172.857 354.654 172.412 354.208 171.862 354.208H110.582C110.033 354.208 109.588 354.654 109.588 355.202C109.588 355.75 110.033 356.19 110.582 356.19Z" fill="black"/>
<path opacity="0.1" d="M170.239 360.842L163.403 361.062L170.239 361.194V360.842Z" fill="black"/>
<path opacity="0.1" d="M170.238 357.789L153.968 358.009L170.238 358.141V357.789Z" fill="black"/>
<path d="M154.138 357.997C154.584 358.399 154.905 358.922 155.063 359.501C155.108 359.671 155.134 359.853 155.139 360.03C155.176 361.288 155.139 364.089 155.139 364.089L157.197 362.679L159.249 364.089V360.269C159.271 359.602 159.096 358.947 158.745 358.38C158.687 358.273 158.605 358.185 158.507 358.116C158.409 358.053 158.296 358.009 158.179 357.99L154.138 357.997Z" fill="url(#paint12)"/>
<path opacity="0.2" d="M154.138 357.997C154.584 358.399 154.905 358.922 155.063 359.501L159.192 359.558C159.192 359.558 159.028 358.217 158.179 357.997H154.138Z" fill="black"/>
<path d="M73.3462 317.752H114.189C116.743 317.752 119.193 318.766 120.999 320.572C122.804 322.378 123.819 324.828 123.819 327.382C123.818 329.992 122.78 332.495 120.935 334.341C119.088 336.187 116.586 337.224 113.975 337.226H73.3462V317.714V317.752Z" fill="white"/>
<path d="M123.851 325.311V329.503C123.865 330.312 123.686 331.113 123.328 331.839C122.969 332.565 122.443 333.194 121.792 333.676C121.193 334.085 120.485 334.305 119.759 334.305H72.0182C71.7249 334.334 71.4543 334.477 71.2648 334.702C71.0754 334.928 70.9822 335.22 71.0049 335.514V336.011C70.9822 336.305 71.0754 336.596 71.2648 336.822C71.4543 337.048 71.7249 337.191 72.0182 337.22H154.472C155.653 337.182 156.804 336.834 157.808 336.21C158.811 335.586 159.632 334.707 160.187 333.663C161.024 332.209 161.459 330.558 161.446 328.88V325.582C161.456 324.417 161.242 323.26 160.816 322.176C159.753 319.558 157.506 317.771 154.906 317.771H72.0182C71.7249 317.799 71.4543 317.942 71.2648 318.168C71.0754 318.394 70.9822 318.685 71.0049 318.979V319.47C70.9803 319.764 71.0728 320.058 71.2623 320.285C71.4524 320.512 71.7236 320.656 72.0182 320.685H119.904C120.471 320.696 121.028 320.838 121.532 321.1C122.035 321.362 122.471 321.737 122.806 322.195C123.486 323.091 123.853 324.186 123.851 325.311Z" fill="#868A91"/>
<path opacity="0.1" d="M71.0045 335.526V336.023C70.9818 336.317 71.0749 336.608 71.2644 336.834C71.4539 337.06 71.7245 337.203 72.0178 337.231H154.471C155.653 337.195 156.803 336.847 157.807 336.222C158.811 335.597 159.631 334.719 160.186 333.675H121.792C121.193 334.085 120.485 334.304 119.759 334.304H72.0178C71.722 334.333 71.4495 334.478 71.2594 334.707C71.0699 334.935 70.978 335.23 71.0045 335.526Z" fill="black"/>
<path opacity="0.1" d="M73.3462 327.488L79.4704 327.815L73.3462 328.017V327.488Z" fill="black"/>
<path opacity="0.1" d="M73.3462 323.007L87.9046 323.335L73.3462 323.53V323.007Z" fill="black"/>
<path d="M87.7592 323.272C87.1821 323.673 86.7427 324.242 86.5004 324.902C86.4425 325.086 86.411 325.276 86.406 325.468C86.3493 326.822 86.406 329.874 86.406 329.874L83.5673 328.345L80.7349 329.874V325.733C80.7135 324.991 80.9615 324.266 81.4336 323.693C81.5267 323.573 81.6444 323.473 81.7785 323.399C81.9132 323.327 82.0617 323.283 82.2141 323.272H87.7592Z" fill="url(#paint13)"/>
<path opacity="0.2" d="M87.7598 323.272C87.1826 323.673 86.7433 324.242 86.5009 324.902L80.8362 324.965C80.8362 324.965 81.0628 323.511 82.2335 323.272H87.7598Z" fill="black"/>
<path d="M375.655 318.752L416.554 316.247L425.114 328.552L362.091 348.996L271.637 315.492L326.409 306.227L375.655 318.752Z" fill="#21252B"/>
<path opacity="0.3" d="M332.124 331.562L353.354 336.245C358.453 338.019 359.818 337.226 359.818 337.226C372.407 334.079 403.362 327.25 411.305 327.011C422.395 326.684 363.136 344.722 363.136 344.722L314.5 329.044L332.124 331.562Z" fill="black"/>
<path d="M297.984 234.574C298.171 233.699 298.413 232.838 298.708 231.993C300.703 226.379 304.851 222.237 310.667 220.903L328.92 216.711L357.244 217.057L375.849 219.663C378.292 220.002 380.629 220.874 382.696 222.219C384.763 223.564 386.509 225.347 387.808 227.442C395.217 239.401 408.308 266.007 423.975 290.132L405.136 302.286C405.136 302.286 390.553 280.515 388.104 277.538C385.656 274.56 377.442 263.885 377.442 263.885L378.499 281.585C378.805 286.771 379.349 291.935 380.129 297.075L383.132 318.154C383.132 318.154 377.996 319.752 371.89 321.729C365.936 323.655 360.057 325.814 354.229 328.086C342.184 332.738 328.824 332.65 316.842 327.84L309.289 319.18L308.659 303.444L301.219 306.95C301.219 306.95 298.179 296.47 289.726 288.697L291.212 288.76L297.67 237.148C297.706 236.283 297.812 235.422 297.984 234.574Z" fill="url(#paint14)"/>
<path d="M340.212 260.644C322.922 260.644 309.195 259.385 308.968 259.354L309.025 258.724C309.409 258.756 347.828 262.299 377.209 257.466L377.31 258.095C365.383 260.059 351.97 260.644 340.212 260.644Z" fill="white"/>
<path d="M340.212 266.938C322.922 266.938 309.195 265.679 308.968 265.648L309.025 265.018C309.409 265.05 347.828 268.593 377.209 263.76L377.31 264.389C365.383 266.353 351.97 266.938 340.212 266.938Z" fill="white"/>
<path d="M358.333 343.167L303.039 326.683L275.848 315.983C275.848 315.983 253.787 304.175 240.437 327.13C240.437 327.13 234.225 351.576 273.45 354.075C277.176 354.308 280.89 354.642 284.591 355.133L359.818 365.077L358.333 343.167Z" fill="#21252B"/>
<path d="M269.183 300.72L292.472 290.02L294.914 295.798L300.339 301.223L301.176 307.48L279.09 313.094L267.521 311.816L269.183 300.72Z" fill="#FC9D9D"/>
<path opacity="0.15" d="M278.863 313.307L304.323 307.46L304.021 305.213L303.291 302.947L282.898 307.58C279.01 308.462 274.971 308.421 271.102 307.46L269.472 307.674L267.924 312.678L278.863 313.307Z" fill="black"/>
<path opacity="0.3" d="M240.229 327.306C240.229 327.306 256.922 308.524 274.029 317.714C274.029 317.714 288.594 319.13 293.415 325.519L290.728 316.077L280.027 311.904L272.349 314.422L259.83 311.904L248.141 316.908L240.229 327.306Z" fill="black"/>
<path d="M265.261 292.594C265.513 293.381 265.922 294.109 266.463 294.734C267.004 295.36 267.666 295.869 268.408 296.232C271.077 297.692 272.046 301.569 272.046 303.785C272.082 304.937 271.919 306.087 271.562 307.184C271.562 307.184 270.838 310.092 268.415 310.576C265.992 311.061 264.538 312.521 261.623 309.607C258.709 306.693 254.593 297.478 254.593 297.478L255.077 296.024C256.582 295.997 258.065 295.667 259.439 295.055C261.384 294.054 265.261 292.594 265.261 292.594Z" fill="#FC9D9D"/>
<path opacity="0.15" d="M265.261 292.594C265.513 293.381 265.922 294.109 266.463 294.734C267.004 295.36 267.666 295.869 268.408 296.232C271.077 297.692 272.046 301.569 272.046 303.785C272.082 304.937 271.919 306.087 271.562 307.184C271.562 307.184 270.838 310.092 268.415 310.576C265.992 311.061 264.538 312.521 261.623 309.607C258.709 306.693 254.593 297.478 254.593 297.478L255.077 296.024C256.582 295.997 258.065 295.667 259.439 295.055C261.384 294.054 265.261 292.594 265.261 292.594Z" fill="black"/>
<path d="M268.414 311.532C268.244 311.533 268.077 311.49 267.928 311.405C267.78 311.322 267.657 311.201 267.571 311.054L250.828 283.158C250.693 282.933 250.653 282.663 250.716 282.408C250.78 282.153 250.943 281.934 251.168 281.799C251.393 281.663 251.663 281.624 251.918 281.687C252.173 281.751 252.392 281.913 252.528 282.139L269.264 310.034C269.354 310.185 269.403 310.356 269.405 310.532C269.407 310.707 269.363 310.88 269.276 311.032C269.19 311.184 269.065 311.311 268.913 311.399C268.762 311.487 268.589 311.533 268.414 311.532Z" fill="black"/>
<path d="M255.965 308.631C255.965 308.631 258.174 311.867 261.567 311.867C264.959 311.867 268.925 310.06 267.231 309.349C265.538 308.638 264.871 309.305 263.656 309.789C262.442 310.274 255.965 308.631 255.965 308.631Z" fill="#FC9D9D"/>
<path opacity="0.15" d="M257.469 310.249C257.469 310.249 266.357 311.596 265.828 308.99L264.047 308.915L256.462 309.261L257.469 310.249Z" fill="black"/>
<path d="M253.51 304.579C253.51 304.579 254.97 308.701 256.179 309.186C257.387 309.671 263.323 310.545 264.777 309.576C266.23 308.607 263.807 306.907 261.629 306.907C259.452 306.907 253.51 304.579 253.51 304.579Z" fill="#FC9D9D"/>
<path opacity="0.15" d="M254.542 306.957C254.542 306.957 260.295 310.01 264.468 307.807L263.593 307.322L254.032 305.604L255.096 308.506" fill="black"/>
<path d="M253.377 300.361C253.377 300.361 252.509 304.811 254.447 306.026C256.386 307.24 263.807 308.367 264.518 306.913C265.229 305.459 262.573 304.729 259.904 303.521C257.235 302.312 253.377 300.361 253.377 300.361Z" fill="#FC9D9D"/>
<path d="M262.933 291.763C262.314 292.035 261.794 292.489 261.44 293.065C261.087 293.641 260.918 294.311 260.956 294.986C261.076 297.743 261.397 303.042 262.108 303.754C263.077 304.723 265.255 304.968 265.746 304.238C266.237 303.508 266.722 295.263 265.261 292.594C265.173 292.378 265.04 292.183 264.871 292.022C264.702 291.861 264.502 291.737 264.283 291.659C264.063 291.581 263.829 291.55 263.597 291.567C263.364 291.585 263.138 291.652 262.933 291.763Z" fill="#FC9D9D"/>
<path opacity="0.15" d="M253.132 302.244C253.132 302.244 258.898 305.9 261.264 304.081L257.563 302.407L253.195 300.594L253.132 302.244Z" fill="black"/>
<path d="M255.077 295.992C255.077 295.992 251.93 295.262 251.93 298.415C251.93 301.569 256.292 303.514 258.224 303.753C260.156 303.992 262.347 303.268 260.647 301.814C258.948 300.36 256.531 297.207 255.077 295.992Z" fill="#FC9D9D"/>
<path d="M268.119 311.49L269.057 311.748C269.104 311.762 269.154 311.765 269.203 311.755C269.252 311.746 269.298 311.725 269.337 311.694C269.376 311.663 269.407 311.623 269.427 311.578C269.447 311.532 269.456 311.483 269.453 311.433L269.409 310.508L268.119 311.49Z" fill="black"/>
<path opacity="0.3" d="M351.315 340.952L303.895 353.88C301.673 354.484 299.337 354.535 297.091 354.025C291.911 352.842 281.822 351.13 276.623 354.27L304.915 359.022L363.343 344.835L351.315 340.952Z" fill="black"/>
<path opacity="0.2" d="M320.354 312.332C315.63 299.734 312.93 286.467 312.354 273.025L310.793 247.081C310.789 246.915 310.753 246.752 310.686 246.601C310.619 246.449 310.524 246.313 310.404 246.199C310.284 246.084 310.143 245.995 309.989 245.935C309.835 245.875 309.671 245.846 309.506 245.85C309.34 245.854 309.177 245.89 309.026 245.957C308.874 246.023 308.738 246.119 308.624 246.239C308.509 246.358 308.42 246.499 308.36 246.653C308.3 246.808 308.272 246.972 308.275 247.137V249.34L308.049 247.169C308.049 247.169 306.708 300.48 302.894 299.36L303.882 301.601C303.945 302.274 304.511 304.748 304.511 305.509L308.414 303.552L309.616 310.475L315.728 327.973L332.52 331.561C326.566 329.257 324.036 322.063 320.354 312.332Z" fill="black"/>
<path d="M303.744 306.447C303.171 306.875 301.119 308.695 300.093 309.293C299.281 309.922 297.368 311.578 296.405 309.922C296.405 309.922 291.112 297.586 285.145 293.394C284.169 292.708 284.446 291.273 285.516 290.681C286.145 290.335 285.68 290.725 287.033 290.454C288.89 289.724 291.099 285.072 293.207 287.88C294.926 291.071 299.533 299.209 304.052 303.848C304.236 304.023 304.376 304.239 304.463 304.478C304.548 304.717 304.578 304.973 304.548 305.225C304.518 305.477 304.43 305.719 304.29 305.931C304.151 306.143 303.964 306.32 303.744 306.447Z" fill="url(#paint15)"/>
<path opacity="0.5" d="M303.744 306.448C303.171 306.876 301.12 308.695 300.094 309.293C299.282 309.922 297.368 311.578 296.405 309.922C296.405 309.922 292.434 299.656 285.145 293.394C284.94 293.216 284.782 292.989 284.687 292.735C284.591 292.48 284.56 292.206 284.597 291.937C284.634 291.668 284.737 291.412 284.898 291.193C285.058 290.974 285.271 290.797 285.516 290.681C286.146 290.335 285.68 290.725 287.033 290.454C289.01 289.63 290.81 285.299 293.208 287.88C292.131 286.722 306.948 303.722 303.744 306.448Z" fill="#231F20"/>
<path opacity="0.5" d="M309.276 249.761L308.993 300.864" stroke="black" stroke-width="0.71" stroke-miterlimit="10"/>
<path d="M298.255 339.391C298.255 339.391 313.89 326.639 325.578 328.691C325.578 328.691 318.025 306.164 297.173 306.605C297.173 306.605 279.644 307.863 273.809 313.308C273.809 313.308 292.792 306.428 298.255 339.391Z" fill="#DADDDF"/>
<path opacity="0.15" d="M298.255 339.391C298.255 339.391 313.89 326.639 325.578 328.691C325.578 328.691 318.025 306.164 297.173 306.605C297.173 306.605 279.644 307.863 273.809 313.308C273.809 313.308 292.792 306.428 298.255 339.391Z" fill="black"/>
<path d="M274.023 316.883C274.023 316.883 292.37 304.754 297.003 340.228L300.15 337.924C300.15 337.924 292.597 298.271 274.035 313.333C274.035 313.333 257.117 299.58 239.203 326.318L240.462 327.149C240.462 327.149 255.851 305.012 274.023 316.883Z" fill="#DADDDF"/>
<path d="M306.318 354.22C306.318 354.22 371.664 341.109 385.259 335.854C387.966 334.809 390.698 333.814 393.442 332.914C401.694 330.22 416.63 325.638 422.641 325.638C422.641 325.638 443.852 337.144 435.449 351.759C433.135 355.712 429.422 358.645 425.045 359.985C418.858 361.937 400.686 364.889 381.061 365.707C381.061 365.707 339.029 369.326 308.817 368.067L306.318 354.22Z" fill="#21252B"/>
<path opacity="0.3" d="M308.207 364.291L308.565 365.694L308.716 367.161C340.936 368.697 381.099 365.077 381.099 365.077C400.724 364.259 418.896 361.301 425.083 359.356C429.46 358.015 433.173 355.082 435.487 351.13C436.652 349.185 437.322 346.988 437.438 344.722C433.46 358.38 400.101 358.626 400.101 358.626L308.207 364.291Z" fill="black"/>
<path d="M306.318 354.22C303.228 355.076 298.665 356.108 295.473 355.737C286.473 354.761 267.011 353.32 261.302 358.399C261.126 358.576 260.964 358.771 260.818 358.972C259.981 360.143 261.447 363.032 262.889 363.032C262.885 363.712 263.107 364.379 263.518 364.92C263.518 364.92 263.518 366.808 264.777 366.808C264.777 366.808 264.777 368.697 266.036 369.326C266.665 371.214 269.05 371.29 270.442 371.844C271.838 372.083 273.254 372.202 274.671 372.196C283.436 372.014 292.149 370.78 300.622 368.527C303.274 367.727 306.036 367.362 308.804 367.438" fill="#FC9D9D"/>
<path d="M407.654 303.867L440.793 351.306L449.976 345.458L424.648 292.537L407.654 303.867Z" fill="#FC9D9D"/>
<path d="M445.123 340.266L451.6 343.948L460.632 345.981C461.89 346.522 462.89 347.529 463.42 348.795L466.876 356.681C467.241 357.443 467.392 358.33 466.674 358.714C466.324 358.909 465.912 358.96 465.526 358.853C465.139 358.746 464.809 358.5 464.604 358.154L463.76 353.874L467.625 359.539C467.7 359.765 467.72 360.011 467.682 360.25C467.643 360.489 467.547 360.716 467.403 360.911C467.259 361.106 467.07 361.263 466.852 361.37C466.634 361.477 466.394 361.527 466.152 361.521C465.872 361.509 465.601 361.42 465.367 361.269C465.132 361.112 464.945 360.898 464.824 360.646L461.048 354.78L465.56 362.27C465.654 362.478 465.693 362.711 465.674 362.937C465.657 363.17 465.582 363.391 465.457 363.579C465.332 363.775 465.161 363.932 464.959 364.045C464.757 364.152 464.531 364.215 464.302 364.215C464.066 364.221 463.831 364.165 463.622 364.058C463.413 363.944 463.235 363.781 463.106 363.586L457.542 354.604L463.106 363.894C463.209 364.058 463.272 364.24 463.289 364.435C463.307 364.631 463.278 364.819 463.206 365.002C463.133 365.178 463.018 365.342 462.872 365.468C462.726 365.594 462.551 365.682 462.363 365.726C462.159 365.776 461.946 365.776 461.742 365.719C461.539 365.669 461.352 365.568 461.199 365.424L453.413 356.354C453.128 356.064 452.785 355.844 452.407 355.705C452.029 355.561 451.625 355.504 451.222 355.529L448.075 355.435C446.111 355.548 443.418 355.259 441.605 352.993L435.267 343.482C437.791 340.033 445.123 340.266 445.123 340.266Z" fill="#FC9D9D"/>
<path opacity="0.15" d="M454.697 356.14C456.063 357.688 460.677 363.189 461.457 364.146C462.54 365.524 463.345 364.63 463.345 364.63C463.306 364.882 463.194 365.121 463.023 365.31C462.852 365.499 462.63 365.638 462.382 365.707C462.169 365.757 461.946 365.757 461.734 365.7C461.521 365.644 461.327 365.537 461.167 365.386L453.111 356.058C452.532 355.472 448.705 355.17 447.874 355.233L452.633 354.931C453.646 354.799 454.036 355.479 454.697 356.14Z" fill="black"/>
<g opacity="0.15">
<path opacity="0.15" d="M460.74 360.936C460.711 360.93 460.684 360.917 460.662 360.898C460.639 360.879 460.62 360.854 460.608 360.829L457.001 354.975C456.944 354.831 456.951 354.661 457.095 354.598C457.158 354.56 457.231 354.554 457.301 354.573C457.369 354.585 457.429 354.629 457.467 354.692L461.073 360.546C461.093 360.577 461.105 360.609 461.111 360.646C461.117 360.678 461.115 360.716 461.106 360.753C461.097 360.785 461.081 360.816 461.059 360.848C461.038 360.873 461.01 360.898 460.979 360.917C460.903 360.949 460.82 360.955 460.74 360.936Z" fill="black"/>
</g>
<g opacity="0.15">
<path opacity="0.15" d="M464.768 361.458C464.718 361.458 464.617 361.396 464.636 361.345L459.94 354.119C459.926 354.088 459.92 354.05 459.919 354.019C459.919 353.981 459.925 353.949 459.938 353.918C459.952 353.88 459.971 353.855 459.996 353.83C460.02 353.805 460.049 353.786 460.082 353.773C460.114 353.754 460.149 353.748 460.183 353.748C460.219 353.748 460.253 353.754 460.286 353.767C460.318 353.78 460.348 353.798 460.373 353.824C460.397 353.849 460.417 353.88 460.431 353.912L465.133 361.137C465.147 361.169 465.154 361.207 465.155 361.238C465.155 361.276 465.149 361.307 465.135 361.339C465.122 361.377 465.102 361.402 465.076 361.427C465.051 361.452 465.021 361.471 464.988 361.484C464.914 361.503 464.836 361.49 464.768 361.458Z" fill="black"/>
</g>
<path d="M440.17 351.073L448.1 363.592C448.1 363.592 452.273 364.008 446.842 354.409L440.17 351.073Z" fill="#FC9D9D"/>
<path opacity="0.15" d="M437.665 347.34L407.654 303.867L410.801 301.349L439.528 346.233L448.516 363.573L448.1 363.617L437.665 347.34Z" fill="black"/>
<path d="M535.004 367.916H412.626V361.943H535.004L535.067 362.056C535.551 362.956 535.797 363.97 535.784 364.996C535.778 366.015 535.507 367.022 535.004 367.916Z" fill="#21252B"/>
<path opacity="0.3" d="M535.004 367.916H412.626V361.943H535.004C535.576 362.83 535.879 363.869 535.879 364.926C535.879 365.99 535.576 367.022 535.004 367.916Z" fill="black"/>
<path d="M535.275 362.069H463.521L490.253 308.839H562L535.275 362.069Z" fill="#21252B"/>
<path opacity="0.3" d="M535.275 362.069H463.521L490.253 308.839H562L535.275 362.069Z" fill="black"/>
<path d="M412.891 361.773H463.043C463.633 361.773 464.198 362.006 464.614 362.421C465.031 362.843 465.265 363.403 465.265 363.995V365.524C465.265 366.116 465.031 366.676 464.614 367.098C464.198 367.513 463.633 367.746 463.043 367.746H412.891V361.773Z" fill="#21252B"/>
<path d="M463.842 362.723L461.501 361.767L488.226 308.839H490.901L463.842 362.723Z" fill="#21252B"/>
<path opacity="0.2" d="M519.042 340.222C521.453 337.556 521.862 333.99 519.949 332.259C518.042 330.527 514.529 331.286 512.119 333.953C509.702 336.62 509.293 340.184 511.206 341.915C513.119 343.646 516.625 342.891 519.042 340.222Z" fill="white"/>
<path opacity="0.3" d="M464.264 361.886L535.105 361.93L535.489 361.162H464.629L464.264 361.886Z" fill="black"/>
<path opacity="0.15" d="M308.389 364.983L303.662 365.285C274.413 373.392 269.101 371.862 266.986 370.408C267.964 371.227 269.17 371.73 270.442 371.844C271.832 372.127 273.252 372.246 274.671 372.196C283.543 372.001 292.358 370.736 300.924 368.42C303.601 367.57 306.393 367.148 309.201 367.161" fill="black"/>
<g opacity="0.15">
<path opacity="0.15" d="M466.637 358.361C466.592 358.361 466.547 358.349 466.508 358.33C466.468 358.305 466.435 358.273 466.411 358.236L463.106 353.118C463.077 353.055 463.071 352.993 463.089 352.923C463.107 352.86 463.148 352.81 463.204 352.772C463.26 352.734 463.327 352.722 463.393 352.734C463.458 352.741 463.518 352.778 463.56 352.829L466.864 357.94C466.902 358.003 466.916 358.072 466.9 358.147C466.885 358.217 466.843 358.28 466.782 358.317C466.739 358.343 466.689 358.361 466.637 358.361Z" fill="black"/>
</g>
<path d="M331.922 202.53L329.763 184.85C328.454 175.704 335.9 170.864 340.401 170.864H355.997C360.768 170.864 366.459 175.667 364.035 185.97L361.788 203.159L331.922 202.53Z" fill="#1A1A1A"/>
<path d="M358.71 215.628L358.83 218.775C358.854 219.15 358.802 219.525 358.674 219.878C358.548 220.231 358.35 220.554 358.094 220.827C353.774 223.791 348.654 225.365 343.416 225.34C338.568 225.315 333.814 224.013 329.631 221.564C329.371 221.42 329.14 221.228 328.952 220.997L328.895 220.947V220.897C328.665 220.645 328.495 220.344 328.398 220.017C328.301 219.69 328.279 219.345 328.335 219.008L328.385 218.498V218.448L328.775 215.993L330.179 215.465L333.414 193.152L334.075 188.242C334.243 186.54 334.728 184.883 335.504 183.358C341.395 176.944 355.085 184.208 359.768 186.996C359.541 188.368 358.597 194.272 357.924 200.724C357.805 202.184 357.531 203.627 357.105 205.029L357.439 215.1L358.71 215.628Z" fill="url(#paint16)"/>
<path opacity="0.5" d="M358.71 215.628L358.83 218.775C358.854 219.15 358.802 219.525 358.674 219.878C358.548 220.231 358.35 220.554 358.094 220.827C353.774 223.791 348.654 225.365 343.416 225.34C338.568 225.315 333.814 224.013 329.631 221.564C329.371 221.42 329.14 221.228 328.952 220.997L328.895 220.947V220.897C328.665 220.645 328.495 220.344 328.398 220.017C328.301 219.69 328.279 219.345 328.335 219.008L328.385 218.498V218.448L328.775 215.993L330.179 215.465L333.414 193.152L334.075 188.242C334.243 186.54 334.728 184.883 335.504 183.358C341.395 176.944 355.085 184.208 359.768 186.996C359.541 188.368 358.597 194.272 357.924 200.724C357.805 202.184 357.531 203.627 357.105 205.029L357.439 215.1L358.71 215.628Z" fill="#231F20"/>
<path d="M357.931 200.705C357.813 202.166 357.538 203.609 357.113 205.011L357.446 215.082L357.522 217.48C357.57 218.222 357.331 218.955 356.855 219.526C353.887 221.8 350.386 223.276 346.686 223.812C342.986 224.349 339.21 223.928 335.719 222.591C334.085 221.985 332.525 221.198 331.068 220.243C330.824 220.098 330.611 219.908 330.438 219.683L330.381 219.632V219.576C330.172 219.312 330.02 219.009 329.933 218.684C329.847 218.359 329.828 218.02 329.878 217.688L329.928 217.178V217.127L330.174 215.434L333.409 193.121L334.07 188.212C334.238 186.509 334.723 184.852 335.499 183.327C341.39 176.913 355.08 184.178 359.763 186.966C359.542 188.351 358.598 194.254 357.931 200.705Z" fill="#FC9D9D"/>
<path d="M363.557 173.634C363.557 173.634 369.593 210.845 350.61 211.922C334.182 212.891 334.283 187.456 334.283 187.456C334.816 183.071 337.04 179.067 340.48 176.296C343.921 173.525 348.307 172.207 352.706 172.621L363.557 173.634Z" fill="#FC9D9D"/>
<path opacity="0.15" d="M333.207 194.348C333.207 194.348 334.743 194.606 335.611 193.995L332.697 197.885L333.207 194.348Z" fill="black"/>
<path d="M359.988 179.431C359.988 178.978 360.259 178.638 360.334 178.216C360.41 177.795 360.02 177.266 360.183 176.838C360.92 177.115 361.845 176.309 362.393 176.75C364.105 179.689 364.281 183.346 364.35 186.77C364.659 185.058 366.276 185.385 365.791 183.623C366.194 182.295 368.064 182.15 366.522 180.677C366.461 180.431 366.464 180.172 366.533 179.928C366.601 179.683 366.732 179.459 366.912 179.28C368.951 177.486 365.181 176.511 366.54 174.704C367.478 171.588 364.652 172.054 363.689 170.512C364.413 166.736 361.272 168.58 359.755 167.208C359.957 164.86 357.238 165.628 355.897 164.98C355.003 161.002 353.379 163.305 350.761 162.462C349.08 159.315 347.211 162.279 345.096 161.946C342.214 161.153 341.408 162.386 340.885 164.841C340.363 165.565 339.243 165.848 338.764 166.654C337.745 165.911 336.876 167.145 335.9 167.239C333.295 166.805 333.383 167.869 332.753 169.719C331.054 170.349 329.764 171.23 330.148 173.2C328.41 174.591 327.743 175.195 329.128 177.115C329.216 177.864 328.071 178.374 328.064 179.129C328.058 179.884 329.185 180.331 329.248 181.08C329.31 181.829 328.379 182.578 328.851 183.157C330.626 183.969 328.75 184.901 330.11 185.908C331.211 186.348 331.041 190.635 331.614 188.161C331.79 188.425 331.973 187.362 332.111 186.304C333.188 187.45 331.69 189.099 332.332 190.288C334.031 191.396 333.15 194.455 335.34 194.921C333.578 194.134 334.944 191.774 334.295 190.408C332.602 188.639 333.169 187.607 334.163 185.587C334.528 186.008 335.139 185.99 335.34 186.701C335.592 187.576 336.077 187.444 336.322 188.318C336.568 189.193 334.572 189.835 336.02 189.798C336.28 189.797 336.535 189.725 336.756 189.59C336.979 189.455 337.159 189.261 337.279 189.03C337.682 188.186 336.738 187.733 337.147 186.883C337.556 186.034 338.311 186.474 338.808 185.675C339.208 184.431 339.971 183.335 340.999 182.528C341.628 181.766 340.929 181.181 341.666 180.545C342.232 179.992 342.92 179.578 343.674 179.337C344.561 178.965 344.675 179.267 345.612 179.066C346.55 178.865 347.765 179.89 348.218 179.066C348.772 178.009 345.814 177.732 346.229 176.334C347.746 177.266 349.899 175.497 351.397 175.705C353.216 176.422 352.36 179.639 354.909 179.343C357.886 178.084 355.928 180.602 358.308 180.161C358.717 180.117 359.151 179.664 359.478 179.903L359.988 179.431Z" fill="#1A1A1A"/>
<path d="M334.844 184.693C334.72 184.217 334.494 183.774 334.181 183.395C333.867 183.017 333.475 182.712 333.03 182.501C332.586 182.291 332.101 182.181 331.61 182.179C331.118 182.177 330.632 182.283 330.186 182.49C325.994 183.976 326.095 193.341 333.006 194.361C336.637 194.927 336.021 192.775 335.611 189.911L334.844 184.693Z" fill="#FC9D9D"/>
<path opacity="0.2" d="M329.827 184.843C330.113 184.63 330.444 184.487 330.794 184.423C331.145 184.359 331.505 184.378 331.848 184.477C332.19 184.577 332.504 184.754 332.767 184.996C333.029 185.238 333.231 185.536 333.358 185.869C333.739 186.666 333.916 187.544 333.874 188.425V189.243C333.868 189.358 333.815 189.466 333.729 189.543C333.643 189.619 333.53 189.659 333.414 189.652C333.299 189.646 333.192 189.594 333.115 189.507C333.038 189.421 332.999 189.308 333.005 189.193V188.374C333.024 187.637 332.883 186.905 332.59 186.228C332.502 186.009 332.372 185.809 332.205 185.642C332.039 185.474 331.84 185.342 331.621 185.253C331.137 185.171 330.64 185.282 330.236 185.561C330.142 185.614 330.03 185.628 329.925 185.599C329.821 185.571 329.731 185.503 329.676 185.41C329.627 185.314 329.616 185.202 329.644 185.098C329.671 184.993 329.737 184.903 329.827 184.843Z" fill="black"/>
<path opacity="0.15" d="M357.515 215.396L357.301 209.454C355.614 210.99 350.9 212.985 345.971 211.399C343.461 210.582 341.275 208.988 339.728 206.848C339.668 206.772 339.584 206.719 339.489 206.699C339.395 206.679 339.296 206.695 339.212 206.741C339.137 206.803 339.086 206.887 339.067 206.981C339.048 207.076 339.064 207.174 339.111 207.258C341.123 209.984 344.078 211.862 347.4 212.526C348.806 213.661 350.426 214.501 352.164 214.994C353.903 215.487 355.722 215.624 357.515 215.396Z" fill="black"/>
<path opacity="0.2" d="M384.366 261.986L376.253 246.093L377.606 263.679C377.606 263.679 385.971 274.901 388.426 277.879C390.881 280.856 404.508 301.658 404.508 301.658L407.787 299.537L408.328 298.838C402.235 290.02 384.366 261.986 384.366 261.986Z" fill="black"/>
<path d="M421.898 284.644C422.467 285.429 422.974 286.256 423.415 287.118C423.495 287.266 423.591 287.403 423.704 287.527C424.409 288.314 427.141 291.505 425.397 292.562C425.397 292.562 412.324 299.92 407.994 304.458C407.798 304.665 407.559 304.824 407.293 304.925C407.027 305.026 406.742 305.065 406.459 305.041C406.175 305.015 405.902 304.927 405.657 304.782C405.413 304.636 405.205 304.438 405.048 304.2C404.508 303.318 404.113 302.356 403.877 301.349C403.757 300.877 403.468 300.465 403.066 300.191C402.638 299.909 402.234 299.593 401.857 299.247C401.623 299.023 401.445 298.748 401.336 298.443C401.227 298.138 401.191 297.812 401.23 297.491C401.269 297.17 401.382 296.862 401.561 296.592C401.74 296.322 401.979 296.098 402.26 295.936C405.634 294.092 414.275 289.163 419.065 284.474C419.251 284.278 419.478 284.124 419.729 284.025C419.981 283.925 420.251 283.882 420.521 283.898C420.791 283.915 421.054 283.99 421.292 284.119C421.53 284.248 421.737 284.427 421.898 284.644Z" fill="url(#paint17)"/>
<path opacity="0.5" d="M421.898 284.644C422.467 285.429 422.974 286.256 423.415 287.118C423.495 287.266 423.591 287.403 423.704 287.527C424.409 288.314 427.141 291.505 425.397 292.562C425.397 292.562 412.324 299.92 407.994 304.458C407.798 304.665 407.559 304.824 407.293 304.925C407.027 305.026 406.742 305.065 406.459 305.041C406.175 305.015 405.902 304.927 405.657 304.782C405.413 304.636 405.205 304.438 405.048 304.2C404.508 303.318 404.113 302.356 403.877 301.349C403.757 300.877 403.468 300.465 403.066 300.191C402.638 299.909 402.234 299.593 401.857 299.247C401.623 299.023 401.445 298.748 401.336 298.443C401.227 298.138 401.191 297.812 401.23 297.491C401.269 297.17 401.382 296.862 401.561 296.592C401.74 296.322 401.979 296.098 402.26 295.936C405.634 294.092 414.275 289.163 419.065 284.474C419.251 284.278 419.478 284.124 419.729 284.025C419.981 283.925 420.251 283.882 420.521 283.898C420.791 283.915 421.054 283.99 421.292 284.119C421.53 284.248 421.737 284.427 421.898 284.644Z" fill="#231F20"/>
<defs>
<linearGradient id="paint0" x1="291.99" y1="1" x2="291.99" y2="25.2808" gradientUnits="userSpaceOnUse">
<stop stop-color="#00B4F5"/>
<stop offset="1" stop-color="#0042DE"/>
</linearGradient>
<linearGradient id="paint1" x1="243.132" y1="107.728" x2="243.132" y2="141.803" gradientUnits="userSpaceOnUse">
<stop stop-color="#00B4F5"/>
<stop offset="1" stop-color="#0042DE"/>
</linearGradient>
<linearGradient id="paint2" x1="424.1" y1="42.4532" x2="424.1" y2="77.2666" gradientUnits="userSpaceOnUse">
<stop stop-color="#00B4F5"/>
<stop offset="1" stop-color="#0042DE"/>
</linearGradient>
<linearGradient id="paint3" x1="424.1" y1="89.1306" x2="424.1" y2="123.944" gradientUnits="userSpaceOnUse">
<stop stop-color="#00B4F5"/>
<stop offset="1" stop-color="#0042DE"/>
</linearGradient>
<linearGradient id="paint4" x1="424.1" y1="135.814" x2="424.1" y2="170.627" gradientUnits="userSpaceOnUse">
<stop stop-color="#00B4F5"/>
<stop offset="1" stop-color="#0042DE"/>
</linearGradient>
<linearGradient id="paint5" x1="424.1" y1="182.491" x2="424.1" y2="217.304" gradientUnits="userSpaceOnUse">
<stop stop-color="#00B4F5"/>
<stop offset="1" stop-color="#0042DE"/>
</linearGradient>
<linearGradient id="paint6" x1="139.053" y1="221.1" x2="139.053" y2="251.964" gradientUnits="userSpaceOnUse">
<stop stop-color="#00B4F5"/>
<stop offset="1" stop-color="#0042DE"/>
</linearGradient>
<linearGradient id="paint7" x1="172.385" y1="241.807" x2="172.385" y2="251.815" gradientUnits="userSpaceOnUse">
<stop stop-color="#00B4F5"/>
<stop offset="1" stop-color="#0042DE"/>
</linearGradient>
<linearGradient id="paint8" x1="191.811" y1="241.807" x2="191.811" y2="251.815" gradientUnits="userSpaceOnUse">
<stop stop-color="#00B4F5"/>
<stop offset="1" stop-color="#0042DE"/>
</linearGradient>
<linearGradient id="paint9" x1="211.239" y1="241.807" x2="211.239" y2="251.815" gradientUnits="userSpaceOnUse">
<stop stop-color="#00B4F5"/>
<stop offset="1" stop-color="#0042DE"/>
</linearGradient>
<linearGradient id="paint10" x1="230.665" y1="241.807" x2="230.665" y2="251.815" gradientUnits="userSpaceOnUse">
<stop stop-color="#00B4F5"/>
<stop offset="1" stop-color="#0042DE"/>
</linearGradient>
<linearGradient id="paint11" x1="247.213" y1="241.807" x2="247.213" y2="251.815" gradientUnits="userSpaceOnUse">
<stop stop-color="#00B4F5"/>
<stop offset="1" stop-color="#0042DE"/>
</linearGradient>
<linearGradient id="paint12" x1="156.694" y1="357.99" x2="156.694" y2="364.089" gradientUnits="userSpaceOnUse">
<stop stop-color="#00B4F5"/>
<stop offset="1" stop-color="#0042DE"/>
</linearGradient>
<linearGradient id="paint13" x1="84.2464" y1="323.272" x2="84.2464" y2="329.874" gradientUnits="userSpaceOnUse">
<stop stop-color="#00B4F5"/>
<stop offset="1" stop-color="#0042DE"/>
</linearGradient>
<linearGradient id="paint14" x1="356.85" y1="216.711" x2="356.85" y2="331.513" gradientUnits="userSpaceOnUse">
<stop stop-color="#00B4F5"/>
<stop offset="1" stop-color="#0042DE"/>
</linearGradient>
<linearGradient id="paint15" x1="294.552" y1="286.988" x2="294.552" y2="310.637" gradientUnits="userSpaceOnUse">
<stop stop-color="#00B4F5"/>
<stop offset="1" stop-color="#0042DE"/>
</linearGradient>
<linearGradient id="paint16" x1="344.036" y1="180.786" x2="344.036" y2="225.341" gradientUnits="userSpaceOnUse">
<stop stop-color="#00B4F5"/>
<stop offset="1" stop-color="#0042DE"/>
</linearGradient>
<linearGradient id="paint17" x1="413.592" y1="283.895" x2="413.592" y2="305.048" gradientUnits="userSpaceOnUse">
<stop stop-color="#00B4F5"/>
<stop offset="1" stop-color="#0042DE"/>
</linearGradient>
</defs>
</svg>
